<svg width="874" height="530" viewBox="0 0 874 530" fill="none" xmlns="http://www.w3.org/2000/svg">
<mask id="mask0" mask-type="alpha" maskUnits="userSpaceOnUse" x="637" y="56" width="207" height="401">
<path d="M814.368 56H666.999C650.499 56 637 69.479 637 85.9533V427.047C637 443.521 650.499 457 666.999 457H813.993C830.493 457 843.992 443.521 843.992 427.047V85.9533C844.367 69.479 830.868 56 814.368 56Z" fill="#23272A"/>
</mask>
<g mask="url(#mask0)">
<path d="M844 57H637V456.57H844V57Z" fill="#225B73"/>
<path d="M637 126.56C686.268 168.748 757.945 199.258 844 213.126V57H637V126.56Z" fill="#236682"/>
<path d="M808.162 146.632L804.22 144.88C804.147 144.88 804.147 144.807 804.22 144.734L808.162 142.982H808.235L809.987 139.041C809.987 138.968 810.133 138.968 810.133 139.041L811.884 142.982H811.957L815.826 144.734C815.899 144.807 815.899 144.88 815.826 144.88L811.957 146.632C811.938 146.632 811.919 146.639 811.906 146.653C811.892 146.667 811.884 146.685 811.884 146.705L810.133 150.646H809.987L808.235 146.705C808.235 146.685 808.227 146.667 808.213 146.653C808.2 146.639 808.181 146.632 808.162 146.632Z" fill="#F7D197"/>
<path d="M671.451 258.672L668.897 257.504C668.824 257.504 668.824 257.431 668.897 257.431L671.451 256.263C671.524 256.263 671.524 256.263 671.524 256.19L672.692 253.635H672.765L673.933 256.19L676.561 257.358C676.634 257.358 676.634 257.431 676.561 257.431L673.933 258.599L672.765 261.299C672.765 261.372 672.692 261.372 672.692 261.299L671.524 258.672H671.451Z" fill="#FF9CCD"/>
<path d="M731.814 92.7652L688.093 227.578C687.133 230.568 687.138 233.784 688.108 236.771C689.077 239.757 690.962 242.363 693.494 244.22L694.589 245.023C707.453 254.433 722.518 260.381 738.34 262.298C754.163 264.215 770.212 262.037 784.951 255.971C787.117 255.081 788.921 253.489 790.072 251.45C791.224 249.412 791.657 247.045 791.301 244.731L767.871 95.7578C764.733 78.1671 762.105 64.9559 759.404 57H745.39C741.668 64.153 737.288 75.8315 731.814 92.7652Z" fill="#33BEB5"/>
<path d="M731.814 92.7652L688.531 226.337C687.439 229.692 687.437 233.307 688.526 236.664C689.614 240.02 691.736 242.946 694.589 245.023C706.333 253.614 719.936 259.315 734.296 261.664L751.084 254C751.084 254 756.339 144.369 753.93 57H745.39C741.668 64.08 737.288 75.8315 731.814 92.7652Z" fill="#33A2BE"/>
<path d="M700.939 188.163C703.494 180.061 704.735 177.434 707.29 180.645C726.778 132.691 741.303 138.968 748.821 180.864C748.821 180.864 765.682 167.653 770.426 205.024C770.426 205.024 778.163 200.572 785.535 208.163L791.301 244.731C791.591 246.706 791.313 248.722 790.498 250.545C789.684 252.368 788.367 253.92 786.703 255.022C771.046 260.422 754.356 262.144 737.927 260.056C721.497 257.967 705.769 252.124 691.962 242.979C689.944 241.028 688.512 238.552 687.828 235.831C687.145 233.109 687.237 230.25 688.093 227.578L700.939 188.163Z" fill="#F7E5BC"/>
<path d="M688.093 227.578L700.939 188.163C703.494 180.061 704.735 177.434 707.29 180.645C726.778 132.691 741.303 138.968 748.821 180.864C750.243 179.799 751.892 179.075 753.638 178.747C748.821 180.864 749.478 186.046 748.31 197.871C747.142 209.695 747.069 219.987 747.069 219.987L702.618 249.183C699.042 247.285 695.465 245.241 691.962 242.979C689.944 241.028 688.512 238.552 687.828 235.831C687.145 233.109 687.237 230.25 688.093 227.578Z" fill="#F7D197"/>
<path d="M690.429 228.6C709.041 199.404 728.238 187.141 787.068 247.212C787.67 247.834 788.111 248.593 788.354 249.424C788.596 250.255 788.633 251.132 788.461 251.98C788.288 252.828 787.912 253.622 787.364 254.292C786.816 254.961 786.113 255.488 785.316 255.825C770.538 261.964 754.428 264.195 738.538 262.303C722.648 260.411 707.513 254.46 694.589 245.023L693.494 244.22C692.624 243.568 691.817 242.835 691.086 242.03C687.874 238.308 687.801 232.76 690.429 228.6Z" fill="#242236"/>
<path d="M698.166 249.11L698.75 216.994C713.202 200.061 731.084 196.63 768.017 229.038L760.645 260.497C740.354 262.248 716.413 258.599 698.166 249.11Z" fill="#9E4B34"/>
<path d="M696.56 248.307L718.311 242.395L726.121 250.716C726.121 250.716 726.194 246.482 727.362 233.271C728.749 218.016 731.668 224.731 737.945 234.147C744.222 243.563 762.105 236.629 762.105 236.629L764.733 226.191C732.617 199.112 715.464 200.207 701.961 213.637L696.56 248.307Z" fill="#7A2F28"/>
<path d="M844 306.042C841.737 304.144 838.526 302.174 834.365 299.108C834.365 299.108 839.913 322.1 844 329.18V306.042Z" fill="#3EE8DD"/>
<path d="M828.818 299.765L656.78 305.969C656.459 306.208 656.187 306.505 655.977 306.845L653.058 305.969C645.832 311.882 640.722 316.991 637 321.954V456.548H844V318.597C835.314 306.845 828.818 299.765 828.818 299.765Z" fill="#244AB0"/>
<path d="M811.081 348.377C805.169 348.231 805.68 367.719 803.344 383.193C801.009 398.667 800.644 402.754 790.644 389.105C780.645 375.456 775.097 369.544 782.834 346.771L689.626 304.802L656.78 305.969C656.459 306.208 656.187 306.505 655.977 306.845L653.058 305.969C645.832 311.882 640.722 316.991 637 321.954V456.548H821.957C820.205 438.811 817.943 408.885 819.767 387.718C822.541 355.822 817.067 348.523 811.081 348.377Z" fill="#1A3E9C"/>
<path d="M786.411 261.299C796.921 264.219 797.87 261.153 804.95 281.226L790.206 282.247L786.411 261.299Z" fill="#3EE8DD"/>
<path d="M844 308.013L842.029 306.334C839.402 304.218 837.212 302.758 836.701 302.101C836.19 301.444 836.117 299.765 835.752 297.429C834.438 290.349 835.898 288.525 827.358 286.481L800.498 280.131L796.264 269.547C795.409 267.479 794.066 265.649 792.351 264.213C790.635 262.777 788.597 261.777 786.411 261.299L770.718 258.015L708.311 256.993L674.371 274.146C673.006 274.837 671.828 275.849 670.938 277.095C670.048 278.34 669.473 279.783 669.262 281.299L668.021 289.182L651.671 300.13C650.749 300.743 650.016 301.6 649.552 302.605C649.088 303.61 648.912 304.724 649.043 305.823C653.277 343.34 692.035 400.856 745.828 375.018C785.827 355.822 822.979 328.231 840.715 314.144L844 318.67V308.013Z" fill="#33BEB5"/>
<path d="M788.09 271.372C779.039 277.357 775.024 280.277 768.382 284.51C761.74 288.744 758.091 296.846 767.506 292.904C776.922 288.963 784.805 285.678 790.206 282.248C795.608 278.817 793.637 277.503 792.907 274.365C792.177 271.226 791.52 269.182 788.09 271.372Z" fill="#37CFC5"/>
<path d="M651.671 300.13L668.021 289.182L669.262 281.299C669.473 279.783 670.048 278.34 670.938 277.095C671.828 275.849 673.006 274.837 674.371 274.146L708.311 256.993L718.092 257.212L757.288 341.88C753.711 360.347 748.31 362.902 743.493 367.135C738.675 371.368 739.04 371.806 740.5 377.354C689.48 396.988 653.131 342.099 649.043 305.823C648.912 304.724 649.088 303.61 649.552 302.605C650.016 301.6 650.749 300.743 651.671 300.13Z" fill="#33A2BE"/>
<path d="M673.057 283.488C671.378 288.087 670.21 288.452 673.203 296.846C676.196 305.239 687.144 322.392 691.378 327.866C695.611 333.341 697.947 333.56 691.232 316.626C684.517 299.692 682.984 295.751 681.086 288.16C679.188 280.569 676.269 274.657 673.057 283.488Z" fill="#2B98B3"/>
<path d="M793.783 290.422C779.623 309.619 767.579 319.837 756.12 327.866C744.66 335.895 748.529 331.735 753.784 322.465C759.039 313.195 768.455 308.67 779.185 298.597C791.447 286.992 802.834 278.16 793.783 290.422Z" fill="#319BB5"/>
<path d="M833.854 301.444C834.008 302.049 833.963 302.688 833.726 303.266C833.49 303.844 833.074 304.331 832.541 304.655C804.293 320.421 764.076 339.764 749.624 344.946C735.172 350.128 743.858 344.654 761.959 332.903C780.061 321.151 810.936 301.59 820.862 295.897C830.789 290.203 830.643 288.89 833.854 301.444Z" fill="#33A2BE"/>
<path d="M770.426 261.883C784.951 264.438 793.053 264.146 770.426 277.43C747.799 290.714 770.426 261.883 770.426 261.883Z" fill="#1E6470"/>
<path d="M724.88 221.958L724.223 234.95L717.362 237.14L722.033 227.286L719.406 220.133L724.88 221.958Z" fill="#66251F"/>
<path d="M749.478 229.622L741.376 232.541C745.244 236.41 748.894 235.096 749.478 229.622Z" fill="#5E221D"/>
<path d="M720.355 232.322L711.742 231.154C713.494 236.41 717.289 236.921 720.355 232.322Z" fill="#5E221D"/>
<path d="M747.724 228.517C747.786 226.18 746.692 224.255 745.281 224.218C743.871 224.181 742.678 226.046 742.617 228.383C742.556 230.72 743.649 232.645 745.06 232.682C746.47 232.719 747.663 230.854 747.724 228.517Z" fill="#201E2F"/>
<path d="M716.333 232.002C717.733 231.825 718.63 229.802 718.337 227.482C718.044 225.162 716.672 223.425 715.272 223.602C713.872 223.779 712.975 225.803 713.268 228.122C713.561 230.442 714.933 232.179 716.333 232.002Z" fill="#201E2F"/>
<path d="M701.961 213.564C699.94 215.597 698.062 217.767 696.341 220.06C695.027 227.286 695.684 236.702 694.589 245.023C692.837 257.723 692.545 265.679 695.027 272.248C697.509 278.817 696.706 279.547 693.859 288.89C691.013 298.232 684.955 308.597 689.48 318.524C686.341 326.188 688.385 330.275 691.013 336.406C694.37 344.508 701.45 358.814 712.983 356.26C717.508 361.442 732.398 370.785 750.354 362.829C768.309 354.873 784.44 338.742 779.258 322.392C784.513 316.407 780.937 304.072 778.966 297.138C777.133 291.073 776.882 284.641 778.236 278.452C779.55 271.956 778.455 265.898 774.294 253.635C775.366 247.906 775.928 242.093 775.973 236.264C772.032 232.541 768.309 229.184 764.733 226.191L762.105 236.629C762.105 236.629 759.623 245.023 758.748 249.913C758.748 249.913 755.828 249.11 753.784 250.059C752.543 247.504 747.288 242.979 740.135 243.49L726.121 250.716L718.311 242.395C709.698 242.833 705.246 243.417 702.837 246.19C700.231 241.684 699.06 236.49 699.48 231.3C700.063 225.388 701.961 213.564 701.961 213.564Z" fill="white"/>
<path d="M722.617 257.796C722.617 257.796 725.902 256.628 729.187 255.022C732.471 253.416 732.106 253.27 740.135 243.49L726.121 250.716L718.311 242.395C709.698 242.833 705.246 243.417 702.837 246.19C700.231 241.684 699.06 236.49 699.48 231.3C700.063 225.388 701.961 213.564 701.961 213.564C699.94 215.597 698.062 217.767 696.341 220.06C695.027 227.286 695.684 236.702 694.589 245.023C692.837 257.723 692.545 265.679 695.027 272.248C697.509 278.817 696.706 279.547 693.859 288.89C691.013 298.232 684.955 308.597 689.48 318.524C686.341 326.188 688.385 330.275 691.013 336.406C694.37 344.508 701.45 358.814 712.983 356.26C717.508 361.442 732.398 370.785 750.354 362.829C768.309 354.873 784.44 338.742 779.258 322.392C776.338 339.399 763.784 338.523 763.784 338.523C748.894 338.304 740.865 340.202 740.865 340.202C735.245 333.414 728.603 326.99 723.785 324.728C711.888 309.108 715.318 289.474 717.946 278.306C720.574 267.139 722.617 257.796 722.617 257.796Z" fill="#D6DFFF"/>
<path d="M722.617 257.796C718.165 259.329 717.8 255.533 717.289 251.3C716.778 247.066 718.311 242.395 718.311 242.395L726.121 250.716L740.135 243.49C732.106 253.27 732.544 253.416 729.187 255.022C725.829 256.628 722.617 257.796 722.617 257.796Z" fill="#CAD5FC"/>
<path d="M753.857 224.001L735.975 222.907C738.495 220.688 741.791 219.558 745.142 219.763C748.493 219.969 751.626 221.492 753.857 224.001Z" fill="#CFDEFF"/>
<path d="M724.223 222.469L706.268 222.25C708.678 219.898 711.924 218.601 715.291 218.642C718.658 218.683 721.871 220.059 724.223 222.469Z" fill="#CFDEFF"/>
<path d="M734.807 238.162L729.624 242.541L736.923 239.84C737.653 239.548 737.872 239.402 737.215 238.162C736.559 236.921 735.902 237.213 734.807 238.162Z" fill="#7A2F28"/>
<path d="M716.559 265.168C716.739 266.335 717.347 267.392 718.265 268.135C719.183 268.877 720.344 269.251 721.523 269.182C740.208 268.452 747.434 262.467 749.843 259.694C750.169 259.29 750.392 258.814 750.493 258.306C750.595 257.797 750.572 257.272 750.427 256.774C750.369 256.621 750.295 256.474 750.208 256.336C741.23 261.299 726.34 262.394 722.836 262.394C720.647 262.467 720.355 261.153 720.501 259.621C719.874 259.718 719.272 259.939 718.733 260.273C718.193 260.606 717.725 261.044 717.358 261.561C716.99 262.079 716.73 262.664 716.593 263.284C716.456 263.903 716.444 264.544 716.559 265.168Z" fill="#DE5D70"/>
<path d="M724.661 269.036C726.109 266.386 727.955 263.973 730.135 261.883C736.194 261.153 744.368 259.548 750.135 256.336L750.427 256.774C750.572 257.272 750.595 257.797 750.493 258.306C750.392 258.814 750.169 259.29 749.843 259.694L749.697 259.84C747.361 262.467 740.792 267.796 724.661 269.036Z" fill="#B83D50"/>
<path d="M733.541 172.317C735.2 166.335 733.837 160.735 730.496 159.808C727.155 158.882 723.102 162.98 721.443 168.962C719.784 174.945 721.147 180.545 724.488 181.472C727.829 182.398 731.882 178.3 733.541 172.317Z" fill="#FF9CCD"/>
<path d="M721.45 168.894C723.128 162.982 727.143 158.894 730.5 159.77C731.272 160.004 731.958 160.461 732.471 161.084C727.289 161.887 731.157 167.434 721.45 168.894Z" fill="#FFEBF5"/>
<path d="M734.077 164.806C734.473 167.319 734.299 169.889 733.566 172.324C733.424 172.981 733.204 173.618 732.909 174.222C731.741 174.295 729.624 174.076 728.895 175.828C728.165 177.58 727.727 180.134 724.296 181.375C722.617 180.718 721.45 178.821 721.012 176.339L721.815 176.12C728.165 175.098 730.792 167.799 734.077 164.806Z" fill="#FF70B7"/>
<path d="M759.058 195.531C760.685 195.241 761.694 193.269 761.313 191.125C760.931 188.982 759.302 187.48 757.675 187.77C756.048 188.06 755.039 190.032 755.42 192.175C755.802 194.318 757.431 195.82 759.058 195.531Z" fill="#F7D197"/>
<path d="M779.97 218.88C781.597 218.59 782.607 216.618 782.225 214.475C781.843 212.332 780.215 210.83 778.588 211.119C776.961 211.409 775.951 213.382 776.333 215.525C776.714 217.668 778.343 219.17 779.97 218.88Z" fill="#F7D197"/>
<path d="M775.973 236.264C775.894 241.174 775.504 246.074 774.805 250.935C774.002 247.139 771.667 243.271 769.185 242.833C767.141 238.381 765.098 236.264 762.105 236.629L764.733 226.191C768.309 229.184 772.032 232.541 775.973 236.264Z" fill="#A8C3FF"/>
<path d="M780.645 320.202C780.269 320.984 779.803 321.718 779.258 322.392C779.643 321.616 780.108 320.882 780.645 320.202Z" fill="#D6DFFF"/>
<path d="M750.792 274.438C744.077 280.131 741.011 283.561 742.325 290.641C742.325 290.641 749.405 282.758 750.792 274.438Z" fill="#D6DFFF"/>
<path d="M717.216 281.664C710.866 290.568 709.041 296.408 709.26 300.714C712.837 299.254 716.924 294.437 716.924 294.437L717.216 281.664Z" fill="white"/>
<path d="M771.959 259.913C772.324 263.927 772.105 270.788 770.645 274.146C775.316 269.182 774.805 265.898 771.959 259.913Z" fill="#D6DFFF"/>
<path d="M760.28 299.108C756.996 306.626 746.339 308.524 746.339 308.524C757.215 312.027 761.302 311.443 760.28 299.108Z" fill="#D6DFFF"/>
<path d="M701.523 250.716C698.239 256.117 700.282 264.219 700.282 264.219C700.282 264.219 690.721 258.599 701.523 250.716Z" fill="#C7D3FC"/>
<path d="M698.604 315.312C697.947 321.881 700.72 327.136 704.954 328.158C703.825 323.455 701.655 319.065 698.604 315.312Z" fill="#C7D3FC"/>
<path d="M735.61 216.045C727.727 214.951 717.727 214.878 714.443 214.878C725.099 211.812 731.668 212.542 735.61 216.045Z" fill="#66251F"/>
<path d="M757.361 226.41C755.536 225.972 753.2 225.096 751.594 227.286L757.361 226.41Z" fill="#5E221D"/>
<path d="M757.215 230.425C755.755 229.257 753.857 227.578 751.522 228.892L757.215 230.425Z" fill="#5E221D"/>
<path d="M702.034 224.804C703.932 225.023 706.487 224.95 707.289 227.505L702.034 224.804Z" fill="#5E221D"/>
<path d="M700.939 228.746C702.691 228.089 705.027 227.067 706.852 229.038L700.939 228.746Z" fill="#5E221D"/>
<path d="M732.471 230.498C732.325 234.439 731.303 237.286 729.989 238.526C728.676 239.767 729.478 237.505 730.646 233.417C731.814 229.33 732.544 227.943 732.471 230.498Z" fill="#C27059"/>
<path d="M746.558 254.803C747.249 254.571 748.001 254.598 748.673 254.88C749.344 255.162 749.89 255.68 750.208 256.336C741.23 261.299 726.413 262.394 722.836 262.467C720.647 262.467 720.355 261.153 720.501 259.621H720.866C726.997 259.11 737.434 257.869 746.558 254.803Z" fill="#D6DFFF"/>
<path d="M696.341 220.06C698.062 217.767 699.94 215.597 701.961 213.564C701.961 213.564 700.793 220.863 699.99 226.848C698.385 228.381 696.779 229.695 695.465 230.79C695.479 227.196 695.772 223.608 696.341 220.06Z" fill="#A8C3FF"/>
<path d="M844 350.201C835.46 360.785 830.497 366.113 827.723 370.493C824.95 374.872 825.752 374.288 839.913 372.828L844 372.39V350.201Z" fill="#1A3E9C"/>
<path d="M814.368 56H666.999C650.5 56 637 69.479 637 85.9533V427.047C637 443.521 650.5 457 666.999 457H813.993C830.493 457 843.992 443.521 843.992 427.047V85.9533C844.367 69.479 830.868 56 814.368 56ZM833.118 427.047C833.118 437.53 824.868 445.768 814.368 445.768H666.999C656.499 445.768 648.25 437.53 648.25 427.047V85.9533C648.25 75.4697 656.499 67.2325 666.999 67.2325H674.874H677.124C682.748 67.2325 687.248 71.7255 687.248 77.3417C687.248 82.958 691.748 87.8254 697.748 87.8254H783.245C788.869 87.8254 793.369 83.3324 793.369 77.7162C793.369 72.0999 797.869 67.6069 803.494 67.6069H804.994H813.618C824.118 67.6069 832.368 75.8441 832.368 86.3277V427.047H833.118Z" fill="#23272A"/>
</g>
<g>
<circle cx="712" cy="414" r="24" fill="#DBE7FF"/>
<path d="M721.526 410.149C721.231 409.966 720.862 409.951 720.553 410.105L718 411.382V409C718 407.897 717.103 407 716 407H704C702.897 407 702 407.897 702 409V419C702 420.104 702.897 421 704 421H716C717.103 421 718 420.104 718 419V416.618L720.553 417.894C720.694 417.965 720.847 418 721 418C721.183 418 721.365 417.949 721.526 417.851C721.82 417.668 722 417.347 722 417V411C722 410.653 721.82 410.332 721.526 410.149Z" fill="#1C1B29"/>
</g>
<g>
<circle cx="769" cy="414" r="24" fill="#E7366B"/>
<path fill-rule="evenodd" clip-rule="evenodd" d="M778.117 403.116L779.884 404.884L776.768 408L779.884 411.116L778.117 412.884L775 409.768L771.884 412.884L770.117 411.116L773.233 408L770.117 404.884L771.884 403.116L775 406.232L778.117 403.116ZM775 424H770C763.925 424 759 419.075 759 413V408C759 407.447 759.448 407 760 407H764C764.553 407 765 407.447 765 408V412C765 412.553 764.553 413 764 413H763C763.063 416.938 766 420 770 420V419C770 418.447 770.447 418 771 418H775C775.553 418 776 418.447 776 419V423C776 423.553 775.553 424 775 424Z" fill="white"/>
</g>
<rect x="27" y="79" width="639" height="394" rx="8" fill="#292841"/>
<mask id="mask1" mask-type="alpha" maskUnits="userSpaceOnUse" x="487" y="272" width="163" height="96">
<rect x="487" y="272" width="163" height="96" rx="8" fill="#C4C4C4"/>
</mask>
<g mask="url(#mask1)">
<path d="M649.961 272H487.057V367.943H649.961V272Z" fill="#F7E5BC"/>
<path d="M649.961 359.968V325.607C642.687 322.917 625.526 327.463 617.608 338.412C608.288 328.941 590.331 328.335 573.813 338.412C569.38 327.312 552.787 319.242 531.117 327.084C529.488 313.976 505.469 302.535 487.057 317.878V367.962H641.968C644.085 367.952 646.112 367.107 647.609 365.61C649.106 364.113 649.951 362.085 649.961 359.968Z" fill="#6ADBC6"/>
<path d="M587.11 335.95C605.068 336.063 620.411 344.625 627.799 368H573.813L587.11 335.95Z" fill="#44C9C5"/>
<path d="M605.636 367.962H649.961V347.353C639.202 348.451 619.691 352.581 605.636 367.962Z" fill="#44C9C5"/>
<path d="M616.774 358.226H520.017C513.917 364.022 513.614 367.962 513.614 367.962H624.01C624.01 367.962 621.017 361.522 616.774 358.226Z" fill="#FAFAFA"/>
<path d="M619.047 362.469C619.367 362.203 619.58 361.831 619.65 361.421C619.719 361.011 619.64 360.59 619.426 360.234C618.024 357.923 617.57 356.104 614.387 354.437C611.205 352.77 609.122 350.762 599.423 349.512C597.453 344.436 597.87 342.882 583.208 341.746H542.672C536.004 342.807 535.549 342.807 534.375 346.747C533.2 350.687 533.238 350.194 529.753 351.596C526.268 352.998 520.85 353.263 518.766 357.885C518.084 359.4 517.819 360.499 521.797 367.962H611.129C613.927 366.37 616.576 364.531 619.047 362.469Z" fill="#CC4F79"/>
<path d="M587.11 343.375C594.119 344.587 593.854 344.587 589.118 350.156C584.383 355.725 578.359 360.878 571.578 363.643C560.97 367.962 551.878 363.908 546.346 357.468C538.315 348.11 534.867 343.375 541.649 343.375H587.11Z" fill="#590942"/>
<path d="M608.061 290.677L604.916 289.275C604.896 289.275 604.877 289.267 604.863 289.253C604.849 289.239 604.841 289.22 604.841 289.2C604.841 289.179 604.849 289.16 604.863 289.146C604.877 289.132 604.896 289.124 604.916 289.124L608.061 287.722C608.071 287.722 608.08 287.718 608.088 287.711C608.095 287.704 608.099 287.694 608.099 287.684L609.5 284.54C609.5 284.502 609.576 284.502 609.614 284.54L611.016 287.684C611.016 287.722 611.016 287.722 611.054 287.722L614.198 289.124C614.217 289.145 614.227 289.172 614.227 289.2C614.227 289.228 614.217 289.255 614.198 289.275L611.054 290.677H611.016L609.614 293.822C609.576 293.897 609.5 293.897 609.5 293.822L608.099 290.677H608.061Z" fill="#FAFAFA"/>
<path d="M519.789 295.11L517.743 294.2C517.706 294.2 517.706 294.125 517.743 294.125L519.789 293.215C519.789 293.205 519.793 293.196 519.8 293.189C519.807 293.182 519.817 293.178 519.827 293.178L520.736 291.132C520.736 291.094 520.812 291.094 520.812 291.132L521.721 293.178H521.759L523.805 294.125C523.843 294.125 523.843 294.2 523.805 294.2L521.759 295.11C521.759 295.12 521.755 295.129 521.748 295.136C521.741 295.144 521.731 295.148 521.721 295.148L520.812 297.193H520.736L519.827 295.148C519.789 295.148 519.789 295.148 519.789 295.11Z" fill="#F7D78D"/>
<path d="M547.256 312.612C544.528 305.035 539.755 299.504 537.481 298.481C535.208 297.459 535.777 298.747 537.898 305.149C540.02 311.552 540.058 322.046 543.998 322.121C547.938 322.197 547.256 312.612 547.256 312.612Z" fill="#2E64E8"/>
<path d="M542.255 314.62C540.626 311.362 540.512 309.771 539.868 307.309C539.527 305.983 539.035 304.126 538.618 302.649C540.588 306.172 544.035 314.014 544.755 316.515C545.475 319.015 543.884 317.84 542.255 314.62Z" fill="#1C4BBA"/>
<path d="M583.208 313.105C587.073 305.035 593.248 299.315 596.089 298.368C598.93 297.421 598.173 298.747 595.142 305.566C592.111 312.385 591.354 323.864 586.542 323.675C581.731 323.485 583.208 313.105 583.208 313.105Z" fill="#2E64E8"/>
<path d="M568.812 291.473C573.227 291.473 576.806 287.894 576.806 283.479C576.806 279.064 573.227 275.485 568.812 275.485C564.397 275.485 560.818 279.064 560.818 283.479C560.818 287.894 564.397 291.473 568.812 291.473Z" fill="#201E2F"/>
<path d="M576.432 285.568C576.702 283.515 573.373 281.383 568.996 280.806C564.619 280.23 560.851 281.428 560.581 283.482C560.311 285.535 563.64 287.667 568.017 288.243C572.394 288.82 576.161 287.622 576.432 285.568Z" fill="#41314A"/>
<path d="M582.185 289.882C573.927 282.153 560.364 281.168 551.044 287.874C541.724 294.579 543.657 305.036 545.172 316.515L584.61 317.651C586.239 311.4 590.406 297.648 582.185 289.882Z" fill="#4D7AE8"/>
<path d="M585.519 314.242L545.665 313.067C538.353 329.13 531.079 359.021 563.925 359.968C595.256 360.878 592.831 332.35 585.519 314.242Z" fill="#4D7AE8"/>
<path d="M585.519 314.241C587.224 307.233 589.118 296.436 582.185 289.882L581.428 289.238H579.344C579.344 289.238 580.215 302.762 579.496 308.142C578.776 313.522 579.041 314.09 580.67 314.81C582.299 315.53 583.814 316.401 583.511 323.296C583.208 330.191 582.792 331.1 584.307 339.283C585.822 347.466 583.777 352.695 579.496 357.013C594.005 349.323 591.278 328.562 585.519 314.241Z" fill="#2E64E8"/>
<path d="M554.719 345.193C559.038 350.99 570.706 352.467 575.442 345.421C577.829 341.897 571.54 341.708 565.175 341.746C558.811 341.784 552.408 342.049 554.719 345.193Z" fill="#3366E0"/>
<path d="M571.186 315.117C571.287 311.708 568.741 308.867 565.5 308.771C562.258 308.675 559.548 311.36 559.447 314.769C559.346 318.178 561.892 321.02 565.133 321.116C568.375 321.212 571.085 318.526 571.186 315.117Z" fill="#DBE7FF"/>
<path d="M567.48 315.89C567.542 314.574 566.576 313.458 565.322 313.399C564.068 313.34 563.001 314.36 562.939 315.676C562.877 316.993 563.843 318.108 565.097 318.167C566.351 318.227 567.418 317.207 567.48 315.89Z" fill="#201E2F"/>
<path d="M558.924 304.202C561.387 299.05 570.479 299.58 572.563 304.619L558.924 304.202Z" fill="#201E2F"/>
<path d="M556.651 325.758L557.75 326.137L558.848 326.402L559.947 326.668L561.046 326.819C564.031 327.177 567.058 326.813 569.873 325.758L570.934 325.342L571.957 324.849L572.979 324.319L574.002 323.713H574.116C574.441 323.533 574.799 323.421 575.168 323.381C575.537 323.341 575.911 323.375 576.267 323.481C576.623 323.587 576.954 323.762 577.242 323.997C577.53 324.232 577.768 324.521 577.942 324.849C578.173 325.283 578.288 325.77 578.274 326.261C578.261 326.752 578.121 327.232 577.867 327.653C576.651 329.621 574.956 331.25 572.942 332.388C570.928 333.543 568.703 334.278 566.398 334.552C564.094 334.825 561.758 334.631 559.53 333.979C557.314 333.308 555.306 332.083 553.696 330.418C553.174 329.875 552.889 329.148 552.903 328.395C552.917 327.642 553.23 326.925 553.772 326.402C554.134 326.072 554.575 325.839 555.052 325.726C555.529 325.613 556.028 325.625 556.5 325.758H556.651Z" fill="#400015"/>
<path d="M555.439 331.896C556.688 332.786 558.069 333.476 559.53 333.942C561.758 334.593 564.094 334.788 566.398 334.514C568.703 334.241 570.928 333.505 572.942 332.351C574.375 331.526 575.656 330.463 576.73 329.206C575.072 327.574 573.134 326.252 571.009 325.304H570.934L569.873 325.721C567.058 326.775 564.031 327.139 561.046 326.781L559.947 326.63H559.833C557.971 328.011 556.464 329.816 555.439 331.896Z" fill="#590942"/>
<path d="M575.897 327.236L576.01 323.41C575.368 323.252 574.69 323.347 574.116 323.675H574.002L572.979 324.281L571.957 324.811L570.934 325.304L569.873 325.721C567.058 326.775 564.031 327.139 561.046 326.781L559.947 326.63L558.848 326.365L557.75 326.1L556.651 325.721H556.5C556.13 325.62 555.743 325.594 555.363 325.645L555.287 327.615C562.826 331.29 571.35 329.206 575.897 327.236Z" fill="#DBE7FF"/>
<path d="M558.091 326.213L557.75 326.137L556.651 325.758H556.5C556.13 325.658 555.743 325.632 555.363 325.683L555.287 327.653C556.063 328.017 556.86 328.334 557.674 328.6L558.091 326.213Z" fill="#B5CDFF"/>
<path d="M571.691 328.676C573.132 328.318 574.539 327.836 575.897 327.236L576.01 323.41C575.368 323.252 574.69 323.347 574.116 323.675H574.002L572.979 324.281L571.957 324.811L571.578 325.001L571.691 328.676Z" fill="#B5CDFF"/>
<path d="M574.608 320.265L580.443 323.182C580.518 319.659 577.601 319.242 574.608 320.265Z" fill="#3366E0"/>
<path d="M549.15 328.031L554.53 322.728C550.438 322.614 548.809 325.342 549.15 328.031Z" fill="#3366E0"/>
<path d="M552.37 333.449C554.189 336.025 556.045 338.412 556.045 338.412C552.332 338.109 552.37 333.449 552.37 333.449Z" fill="#3366E0"/>
<path d="M582.185 289.882C573.927 282.153 560.364 281.168 551.044 287.874C546.763 290.942 544.907 295.034 544.301 299.732C549.415 303.672 549.983 296.815 552.143 289.692C559.796 295.905 571.388 295.981 578.814 290.45L579.117 296.474C579.458 302.308 583.398 302.99 586.921 299.883C586.466 296.208 585.14 292.647 582.185 289.882Z" fill="#201E2F"/>
<path d="M556.544 299.185C557.512 298.2 557.885 296.998 557.378 296.499C556.871 296 555.675 296.395 554.707 297.38C553.739 298.365 553.366 299.567 553.873 300.066C554.38 300.565 555.576 300.17 556.544 299.185Z" fill="#618AED"/>
<path d="M593.74 302.232C591.685 305.187 589.849 308.29 588.247 311.514C587.3 313.484 588.285 313.749 588.588 316.136C588.891 318.522 589.649 317.386 590.634 313.332C591.619 309.279 592.149 307.839 593.134 305.642C594.119 303.444 595.786 299.277 593.74 302.232Z" fill="#1C4BBA"/>
<path d="M598.741 351.406C596.885 356.369 591.96 367.962 591.96 367.962H577.526C585.178 362.62 590.975 356.597 593.589 351.975C596.203 347.353 596.733 344.587 598.703 349.739C598.923 350.271 598.936 350.865 598.741 351.406Z" fill="#BA3B66"/>
<path d="M596.051 367.962C602.984 359.741 605.257 356.938 607.114 355.877C608.97 354.816 612.077 353.187 608.743 358.264C605.409 363.34 599.802 367.962 599.802 367.962H596.051Z" fill="#BA3B66"/>
<path d="M548.203 367.962C542.823 361.446 539.11 355.081 537.709 351.558C536.307 348.035 535.89 347.163 535.549 349.133C535.208 351.103 534.451 352.013 535.133 354.74C535.815 357.468 538.05 364.855 539.451 367.962H548.203Z" fill="#BA3B66"/>
<path d="M526.04 367.962H523.919C521.494 361.825 520.509 359.059 520.395 357.013C520.282 354.968 522.744 361.749 526.04 367.962Z" fill="#BA3B66"/>
<path d="M534.867 368H530.397C529.223 359.097 529.223 357.354 529.488 354.854C529.753 352.354 531.003 354.513 531.912 358.983C532.6 362.078 533.59 365.098 534.867 368Z" fill="#BA3B66"/>
<path d="M516.91 350.573C520.888 344.133 525.169 340.988 530.359 338.147C535.549 335.305 536.231 333.676 532.405 332.388C528.579 331.1 525.283 331.593 520.699 333.487C516.114 335.381 512.856 336.48 511.455 341.859C510.053 347.239 512.023 350.497 516.91 350.573Z" fill="#542113"/>
<path d="M518.236 343.83C520.698 333.487 522.365 325.645 523.957 318.598C525.548 311.552 527.328 307.46 524.601 306.21C521.873 304.96 520.395 305.414 516.796 313.446C513.197 321.477 511.606 327.274 510.432 331.441C509.257 335.609 505.317 346.936 518.236 343.83Z" fill="#542113"/>
<path d="M513.084 327.615L510.697 327.274C511.985 313.56 512.667 307.725 512.97 303.785C513.273 299.845 511.644 299.77 509.144 299.656C506.643 299.542 505.734 300.565 504.635 305.718C503.537 310.87 502.211 319.811 501.718 323.334C501.226 326.857 500.392 334.965 500.468 337.541C500.544 340.117 513.084 341.291 513.084 327.615Z" fill="#542113"/>
<path d="M501.491 331.062C501.87 325.721 501.074 311.476 500.998 308.824C500.923 306.172 499.976 306.475 497.702 306.399C495.429 306.324 494.482 307.347 494.179 313.597C493.876 319.848 493.384 326.63 493.459 329.774C491.824 334.202 491.202 338.94 491.641 343.64C492.095 348.603 492.74 349.929 493.649 351.482C494.558 353.036 499.976 354.778 506.908 355.46C513.841 356.142 514.485 355.157 516.91 350.573C519.335 345.989 514.788 333.639 514.788 333.639L501.491 331.062Z" fill="#542113"/>
<path d="M492.095 347.201C491.073 349.588 489.065 355.233 487.095 360.84C487.318 362.796 488.251 364.602 489.718 365.915C491.184 367.228 493.082 367.956 495.05 367.962H514.485C514.447 367.318 513.917 358.226 515.736 352.695C515.736 352.695 494.406 341.897 492.095 347.201Z" fill="#542113"/>
<path d="M515.736 336.518C511.265 339.359 510.015 340.723 508.916 342.693C507.818 344.663 506.757 344.852 502.703 344.928C498.65 345.004 498.574 345.08 497.437 340.268C496.301 335.457 498.006 333.411 502.4 333.601C508.234 333.828 518.425 335.002 515.736 336.518Z" fill="#4A1A0D"/>
<path d="M495.316 328.221H510.318C505.658 326.099 499.142 326.365 495.316 328.221Z" fill="#4A1A0D"/>
<path d="M513.008 328.903C515.243 329.699 519.6 331.555 519.6 331.555C516.418 326.857 513.008 328.903 513.008 328.903Z" fill="#4A1A0D"/>
<path d="M515.433 318.825C517.743 319.28 522.365 320.417 522.365 320.417C518.463 316.287 515.433 318.825 515.433 318.825Z" fill="#4A1A0D"/>
<path d="M504.143 315.567C506.302 315.757 510.659 316.287 510.659 316.287C506.454 312.726 504.143 315.567 504.143 315.567Z" fill="#4A1A0D"/>
<path d="M494.975 318.901C496.755 318.636 500.43 318.333 500.43 318.333C496.339 316.098 494.975 318.901 494.975 318.901Z" fill="#4A1A0D"/>
<path d="M534.451 333.449C530.965 336.101 525.775 336.631 520.812 339.17C515.849 341.708 514.978 344.398 513.614 348.11C512.748 350.566 512.026 353.071 511.455 355.612C514.334 355.309 515.167 353.869 516.91 350.573C520.888 344.133 525.169 340.988 530.359 338.147C534.261 336.063 535.625 334.624 534.451 333.449Z" fill="#732D1A"/>
<path d="M515.736 352.695L516.91 350.573C517.137 350.156 517.403 349.815 517.63 349.436C515.167 352.732 508.727 353.414 503.196 353.793C497.665 354.172 493.118 352.392 492.095 347.201C491.451 348.717 489.14 354.589 487.057 360.044V367.962H514.485C514.448 367.318 513.917 358.226 515.736 352.695Z" fill="#4A1A0D"/>
<path d="M524.639 306.21C524.999 307.534 525.025 308.927 524.714 310.264C523.994 313.711 522.365 320.417 518.918 334.207L520.623 333.563C521.911 327.956 522.972 323.107 523.957 318.598C525.548 311.627 527.328 307.498 524.639 306.21Z" fill="#732D1A"/>
<path d="M512.97 303.785C512.667 307.687 511.947 313.749 510.697 327.274L509.674 327.047L511.341 299.921C512.515 300.262 513.159 301.171 512.97 303.785Z" fill="#732D1A"/>
<path d="M628.291 343.375L640.301 334.661C636.512 334.245 629.049 334.661 628.291 343.375Z" fill="#44C9C5"/>
</g>
<mask id="mask2" mask-type="alpha" maskUnits="userSpaceOnUse" x="487" y="162" width="163" height="96">
<rect x="487" y="162" width="163" height="96" rx="8" fill="#C4C4C4"/>
</mask>
<g mask="url(#mask2)">
<path d="M649.993 162H487V257.981H649.993V162Z" fill="#5E87F9"/>
<path d="M487 209.981C502.124 205.85 520.016 211.308 525.436 223.511C541.697 218.319 560.498 227.946 569.368 239.278H487V209.981Z" fill="#6E94FF"/>
<path d="M649.993 192.471C640.099 190.804 628.425 193.002 624.862 197.929C614.248 195.845 601.967 199.748 596.167 204.296H649.993V192.471Z" fill="#7A9DFF"/>
<path d="M611.216 244.773C608.183 238.292 608.259 238.027 602.877 236.094L610.041 246.365L611.216 244.773Z" fill="#FF707E"/>
<path d="M528.051 187.62L528.393 187.923L529.113 188.606L529.378 188.833L529.947 189.326C542.607 200.203 558.831 204.789 569.823 208.086C584 212.331 595.788 213.581 604.62 213.619C616.105 213.506 618.418 207.518 613.566 200.392L610.837 197.019L596.812 179.964L596.129 179.131C586.88 168.178 578.579 163.251 561.105 167.041L534.533 172.801H534.457C525.171 174.848 520.812 180.495 528.051 187.62Z" fill="url(#paint0_linear)"/>
<path d="M558.641 169.163C548.028 171.778 529.833 177.084 529.833 177.084L525.436 177.69C526.99 175.454 530.212 173.749 534.457 172.801H534.533L561.105 167.041C569.368 165.259 575.547 165.449 580.778 167.23C572.704 165.297 568.004 166.851 558.641 169.163Z" fill="#FFFDC4"/>
<path d="M569.027 209.488C559.702 206.684 539.764 198.763 532.032 191.031C533.851 192.85 532.069 189.591 535.557 191.296C553.903 200.241 595.561 212.331 604.62 213.619C595.75 214.15 578.541 212.331 569.027 209.488Z" fill="#FFFDC4"/>
<path d="M525.929 177.084C534.116 174.621 552.576 176.857 573.045 183.262C594.386 189.932 611.329 199.142 615.878 205.926C616.409 210.36 612.921 213.544 604.62 213.619C596.319 213.695 584 212.331 569.823 208.086C558.831 204.789 542.607 200.203 529.947 189.326L529.378 188.833L529.113 188.606L528.393 187.923L528.051 187.62C523.844 183.451 523.579 179.813 525.929 177.084Z" fill="url(#paint1_linear)"/>
<path d="M604.802 208.079C605.997 204.264 590.854 196.123 570.977 189.895C551.1 183.667 534.018 181.71 532.822 185.525C531.626 189.34 546.77 197.482 566.647 203.71C586.523 209.938 603.606 211.894 604.802 208.079Z" fill="#6B3143"/>
<path d="M532.979 186.9C532.754 186.469 532.687 185.973 532.79 185.498C532.875 185.284 533.004 185.091 533.169 184.929L553.675 193.722L538.286 183.603C538.955 183.565 539.626 183.565 540.295 183.603L554.547 193.116C555.39 192.999 556.244 192.999 557.087 193.116L549.278 184.55L552.235 185.081L558.224 193.267C559.437 193.419 560.84 193.684 562.394 194.025L557.921 186.294L560.574 186.938L563.531 194.291L566.336 195.049L564.289 187.923C565.35 188.176 566.412 188.479 567.473 188.833L568.458 195.579H568.231L568.989 195.845L571.15 189.932L573.538 190.728L569.785 196.072L571.68 196.716L577.063 191.903L579.906 192.926L573.272 197.285L575.244 198.043L583.469 194.291L586.956 195.693L576.76 198.649L579.148 199.748L593.59 198.763C594.803 199.369 595.978 199.976 597.039 200.582H580.74L581.877 201.302L601.701 203.614C602.555 204.226 603.331 204.939 604.014 205.736L582.825 202.174C582.89 202.244 582.938 202.329 582.964 202.421C582.991 202.513 582.995 202.61 582.976 202.704C582.944 202.787 582.893 202.861 582.827 202.92C582.761 202.979 582.683 203.022 582.597 203.045L604.544 208.503C604.203 208.958 603.521 209.337 602.535 209.602L580.512 203.235C579.328 203.17 578.15 203.018 576.987 202.78L594.499 209.792C593.666 209.754 592.756 209.64 591.808 209.526L574.713 202.325L574.106 202.212L585.099 208.427C583.431 208.086 581.687 207.745 579.868 207.29L571.946 201.681L567.662 200.43C565.843 199.862 564.137 199.256 562.583 198.687L555.836 199.938C553.562 199.104 551.439 198.232 549.468 197.361L559.778 197.55H559.74L543.934 194.821C542.152 193.912 540.522 193.04 539.12 192.206L556.594 196.072L555.457 195.428L532.979 186.9Z" fill="#7A384C"/>
<path d="M624.596 258H532.714C534.344 256.332 536.315 255.309 539.461 253.869L546.549 252.883L549.165 252.542L554.851 251.746L559.172 251.178L561.749 250.837L562.849 250.685L573.5 249.245L575.964 248.904L579.982 248.373L581.574 248.146L584.682 247.729L585.44 247.615L592.339 246.668L608.714 244.47L609.548 244.356C610.04 244.318 610.534 244.318 611.026 244.356C618.797 244.546 621.488 247.994 624.596 258Z" fill="#2347A1"/>
<path d="M610.799 254.362L607.918 258H591.126L600.451 248.601L604.544 250.875L610.799 254.362Z" fill="#2A52C2"/>
<path d="M609.548 244.356L609.093 245.001C608.941 245.152 608.828 245.38 608.638 245.607L608.145 246.251C607.274 247.388 606.061 248.98 604.544 250.875L600.981 255.196L599.806 256.56C599.389 257.015 599.01 257.507 598.593 258H540.105C539.65 255.461 539.461 253.869 539.461 253.869C539.455 253.474 539.559 253.084 539.759 252.744C539.96 252.403 540.25 252.123 540.598 251.936L545.905 248.866H545.943V248.487C545.943 248.336 545.905 248.222 545.905 248.108C545.905 247.995 545.829 246.896 545.829 246.441V245.948C545.801 245.722 545.789 245.494 545.791 245.266C545.772 245.217 545.759 245.166 545.753 245.114L545.564 241.931C545.527 241.299 545.646 240.668 545.911 240.093C546.175 239.518 546.577 239.017 547.08 238.633L554.092 233.1L554.699 232.607L556.67 231.091L561.56 227.263L564.327 226.884H564.365L568.042 226.316H568.079L573.083 225.596L574.523 225.368L578.238 224.8L580.02 224.535H580.323L581.308 224.686L582.597 224.876L585.213 225.293C586.354 225.475 587.445 225.896 588.411 226.53C589.378 227.164 590.2 227.995 590.823 228.969L593.703 233.403L593.931 233.479L595.712 234.01L601.664 235.791L602.877 236.132L603.673 236.435H603.748C605.342 237.139 606.633 238.389 607.387 239.96L609.548 244.356Z" fill="#EF6270"/>
<path d="M595.712 233.972C594.31 230.447 593.552 226.278 584.682 224.497L578.124 223.511L578.655 228.855L591.05 237.042L595.712 233.972Z" fill="#FF707E"/>
<path d="M609.548 244.356L609.093 245C608.941 245.152 608.828 245.379 608.638 245.607L608.145 246.251C607.273 247.388 606.061 248.98 604.544 250.875L600.981 255.195L599.806 256.56L598.555 258H571.15C571.794 255.726 572.742 252.315 573.197 250.382C573.27 249.996 573.372 249.616 573.5 249.245C574.144 246.857 574.675 245.379 570.695 244.773L571.112 242.688L572.931 233.479L573.386 231.015L573.765 229.234L574.372 226.202L574.523 225.406L578.238 224.838L580.02 224.572H580.323L581.308 224.724L582.597 224.913L585.213 225.33C586.354 225.512 587.444 225.934 588.411 226.568C589.378 227.201 590.2 228.033 590.823 229.007L593.703 233.441L593.931 233.517L595.712 234.047L601.664 235.829L602.876 236.17L603.672 236.473H603.748C605.342 237.177 606.633 238.427 607.387 239.998L609.548 244.356Z" fill="#E05164"/>
<path d="M584.303 234.502C588.776 231.129 588.472 231.394 585.971 229.765C584.466 228.782 582.725 228.219 580.929 228.135L584.303 234.502Z" fill="#BD3C53"/>
<path d="M585.44 247.616L578.124 258H572.628C575.623 254.741 578.769 251.292 581.574 248.146C585.554 243.598 588.852 239.619 590.102 237.686L589.723 240.149L589.458 241.893L585.44 247.616Z" fill="#E05164"/>
<path d="M594.841 254.021C593.326 255.438 591.732 256.766 590.065 258H583.204C586.426 256.636 590.671 254.665 593.438 252.921C597.608 250.306 597.077 251.936 594.841 254.021Z" fill="#E05164"/>
<path d="M552.766 235.563C547.8 239.884 545.336 238.709 557.049 254.778L559.854 252.921L568.042 243.75L557.655 230.674L552.766 235.563Z" fill="#C74153"/>
<path d="M554.282 192.471C554.585 191.486 561.294 192.623 569.33 195.011C577.366 197.398 583.583 200.127 583.317 201.112C581.65 214.453 581.915 226.278 584.303 234.502L559.854 252.921C549.62 228.287 552.728 206.456 554.282 192.471Z" fill="#FFB685"/>
<path d="M565.047 226.354L574.523 226.202L575.547 231.736C571.832 235.45 566.412 233.972 563.645 231.508C560.006 234.692 556.443 234.654 553.941 231.849L553.865 231.774C553.638 230.258 553.41 228.742 553.258 227.226C557.125 226.089 565.047 226.354 565.047 226.354Z" fill="#FE9B77"/>
<path d="M574.523 241.21C572.173 225.179 572.704 205.888 573.007 196.186C579.148 198.232 583.545 200.279 583.317 201.113C581.65 214.453 581.915 226.278 584.303 234.502L574.523 241.21Z" fill="#FE9B77"/>
<g style="mix-blend-mode:multiply" opacity="0.4">
<path d="M554.282 192.471C554.585 191.486 561.294 192.623 569.33 195.011C577.366 197.398 583.583 200.127 583.317 201.112C583.09 202.818 582.9 204.486 582.749 206.153C574.031 205.092 561.939 206.456 552.766 209.261C553.069 202.894 553.751 197.209 554.282 192.471Z" fill="#A8387E"/>
</g>
<path d="M563.228 172.233L558.679 173.105L560.006 175.227L563.228 172.233Z" fill="#FFCD8F"/>
<path d="M571.011 219.074C571.552 218.105 571.428 217.006 570.733 216.618C570.039 216.229 569.037 216.7 568.496 217.668C567.955 218.637 568.079 219.736 568.773 220.124C569.468 220.512 570.469 220.042 571.011 219.074Z" fill="#543247"/>
<path d="M575.547 167.761C575.547 167.761 573.197 167.571 572.173 168.367C573.348 169.731 575.547 167.761 575.547 167.761Z" fill="#FFD08F"/>
<path d="M568.042 167.723C563.038 166.548 562.621 169.163 562.621 169.163L568.042 167.723Z" fill="#FFFDC4"/>
<path d="M604.848 198.649C604.582 200.468 600.526 201.643 600.526 201.643L602.194 202.932C606.402 202.818 607.501 200.696 607.501 200.696C606.725 199.883 605.83 199.193 604.848 198.649Z" fill="#D4655B"/>
<path d="M615.613 206.532C614.93 208.541 606.25 207.328 606.25 207.328L605.985 208.351C612.391 209.488 615.158 208.92 615.158 208.92C615.158 208.92 615.537 208.313 615.613 206.532Z" fill="#D4655B"/>
<path d="M583.659 187.923C583.166 190.273 580.285 191.865 580.285 191.865L575.585 190.425C576.911 188.53 577.48 185.915 577.48 185.915C577.48 185.915 580.702 186.786 583.659 187.923Z" fill="#DC7363"/>
<path d="M552.614 257.924L552.5 258H547.724C547.345 256.522 546.928 254.665 546.549 252.884C546.17 251.102 545.981 249.814 545.905 248.828V248.449C545.905 248.298 545.867 248.184 545.867 248.07C545.867 247.957 545.791 246.857 545.791 246.403V245.91C545.763 245.684 545.751 245.456 545.753 245.228C545.734 245.179 545.721 245.128 545.715 245.076C546.645 247.667 547.812 250.167 549.203 252.542C550.454 254.703 551.704 256.598 552.614 257.924Z" fill="#D14658"/>
<path d="M601.664 235.753C598.766 239.566 595.653 243.211 592.339 246.668C588.397 250.875 584.227 254.968 580.929 258H577.063C579.148 255.309 581.877 251.671 584.682 247.729C586.388 245.266 588.131 242.689 589.723 240.149C590.519 238.899 591.278 237.648 591.998 236.435C592.604 235.412 593.173 234.426 593.703 233.441H593.931L595.712 233.972L601.664 235.753Z" fill="#CC4355"/>
<path d="M588.965 233.403L576.874 245.076L574.523 255.271L587.79 238.482L588.965 233.403Z" fill="#E65568"/>
<path d="M559.134 251.064L584.038 233.63L584.492 233.289C585.213 232.645 585.781 232.645 584.303 234.502L559.854 252.921L559.134 251.064Z" fill="#BD3C53"/>
<path d="M620.275 180.495L617.129 179.093C617.091 179.093 617.091 178.979 617.129 178.979L620.275 177.577H620.313L621.715 174.431C621.715 174.393 621.829 174.393 621.829 174.431L623.232 177.577H623.27L626.416 178.979C626.454 178.979 626.454 179.093 626.416 179.093L623.27 180.495H623.232L621.829 183.641H621.715L620.313 180.495H620.275Z" fill="#FF99B9"/>
<path d="M512.283 229.613L509.137 228.211C509.117 228.211 509.097 228.203 509.083 228.189C509.069 228.174 509.061 228.155 509.061 228.135C509.061 228.115 509.069 228.096 509.083 228.081C509.097 228.067 509.117 228.059 509.137 228.059L512.283 226.657H512.321L513.723 223.549C513.723 223.473 513.799 223.473 513.837 223.549L515.239 226.657H515.277L518.424 228.059C518.442 228.08 518.452 228.107 518.452 228.135C518.452 228.163 518.442 228.19 518.424 228.211L515.277 229.613H515.239L513.837 232.721C513.799 232.797 513.723 232.797 513.723 232.721L512.321 229.613H512.283Z" fill="#5580F9"/>
<path d="M604.544 189.401C599.503 184.816 595.296 182.921 595.296 182.921C599.996 183.868 603.369 185.422 604.544 189.401Z" fill="#EB9363"/>
<path d="M553.372 169.163L545.374 170.907C546.322 169.087 547.383 168.746 553.372 169.163Z" fill="#FFFDC4"/>
<path d="M567.852 230.788C564.554 230.788 561.408 230.712 560.423 231.546C559.437 232.38 560.991 234.313 563.417 236.132C564.478 236.928 564.971 237.003 567.511 234.767C569.368 233.176 570.392 230.75 567.852 230.788Z" fill="#C74153"/>
<path d="M566.487 230.94L569.255 231.394C569.634 232.19 568.8 233.668 567.511 234.768C564.971 237.004 564.478 236.928 563.417 236.132L562.318 235.222C562.735 234.237 564.061 231.736 566.487 230.94Z" fill="#A82C3C"/>
<path d="M561.56 231.091C563 230.75 565.388 230.788 567.852 230.788C569.255 230.75 569.558 231.508 569.255 232.418L561.749 232.569C561.332 232.569 561.408 231.736 561.56 231.091Z" fill="white"/>
<path d="M550.605 226.43C549.847 225.103 550.264 222.981 551.894 221.882C551.801 222.13 551.763 222.395 551.784 222.66C551.804 222.924 551.882 223.181 552.012 223.412C552.142 223.643 552.321 223.843 552.536 223.997C552.751 224.152 552.998 224.258 553.258 224.307C554.168 224.459 555.836 224.118 556.556 223.852C558.565 223.094 560.839 223.057 563.569 224.459C567.283 222.45 569.785 224.194 573.159 224.194C574.082 224.203 575.002 224.075 575.888 223.815C578.731 222.981 578.693 221.616 578.049 220.176C582.104 221.124 581.915 225.444 580.133 227.339C579.072 228.666 577.101 229.272 574.485 228.628C570.392 232.115 568.383 232.342 563.569 229.272C559.664 232.531 555.912 232.19 553.675 228.097C553.675 228.097 551.401 227.908 550.605 226.43Z" fill="#6B3143"/>
<path d="M563.569 229.272C559.664 232.531 555.912 232.19 553.675 228.097C553.675 228.097 550.15 227.794 550.226 225.103C550.681 226.164 552.538 227.188 554.282 226.809C557.087 229.083 560.081 228.4 562.886 226.24C562.886 226.24 568.838 229.424 573.045 225.937C577.859 227.112 581.271 224.914 580.702 221.882C581.839 223.587 581.346 226.051 580.133 227.339C579.072 228.666 577.101 229.272 574.485 228.628C570.392 232.115 568.383 232.342 563.569 229.272Z" fill="#5E2737"/>
<path d="M559.766 220.113C560.459 219.817 560.688 218.797 560.278 217.834C559.867 216.872 558.972 216.331 558.279 216.626C557.586 216.922 557.357 217.942 557.767 218.905C558.178 219.867 559.073 220.408 559.766 220.113Z" fill="#543247"/>
</g>
<path d="M73.564 102.624C73.564 101.886 72.988 101.364 72.286 101.364C71.566 101.364 70.99 101.886 70.99 102.624C70.99 103.344 71.566 103.848 72.286 103.848C72.988 103.848 73.564 103.344 73.564 102.624ZM73.348 114.666V105.306H71.188V114.486C71.188 115.242 70.828 115.512 70.234 115.512C69.982 115.512 69.73 115.494 69.532 115.44L69.82 117.204C69.964 117.258 70.342 117.276 70.666 117.276C72.268 117.276 73.348 116.538 73.348 114.666ZM75.6147 105.306V111.552C75.6147 113.19 76.4607 114.18 78.0987 114.18C79.2507 114.18 80.1867 113.55 80.9967 112.776L81.1947 114H83.0307V105.306H80.8707V111.174C80.2407 111.822 79.5567 112.254 78.8907 112.254C78.0987 112.254 77.7747 111.75 77.7747 110.994V105.306H75.6147ZM91.6748 111.444C91.6748 109.806 90.7928 109.194 88.5428 108.618C87.2468 108.276 86.9228 108.006 86.9228 107.538C86.9228 107.07 87.3188 106.746 88.1288 106.746C88.9928 106.746 90.0188 107.052 90.8828 107.538L91.1708 105.738C90.3068 105.36 89.2628 105.126 88.1288 105.126C86.1128 105.126 84.9248 106.188 84.9248 107.7C84.9248 109.284 85.8068 109.896 87.9128 110.436C89.2988 110.778 89.6768 111.03 89.6768 111.642C89.6768 112.218 89.1728 112.56 88.2368 112.56C87.1568 112.56 86.0048 112.146 85.0688 111.534L84.7808 113.334C85.6088 113.784 86.9048 114.18 88.1648 114.18C90.4508 114.18 91.6748 113.154 91.6748 111.444ZM98.0319 114L97.7619 112.182C97.5639 112.236 97.3299 112.254 97.0779 112.254C96.2499 112.254 95.9439 111.876 95.9439 111.174V107.07H97.9779L97.7079 105.306H95.9439V102.228L93.8019 102.552V105.306H92.5779V107.07H93.8019V111.534C93.8019 113.514 94.9539 114.144 96.6639 114.144C97.2939 114.144 97.6899 114.072 98.0319 114ZM103.844 109.86V107.772H99.1644V109.86H103.844ZM112.332 113.334L112.044 111.48C111.252 112.092 110.514 112.308 109.758 112.308C108.498 112.308 107.508 111.444 107.508 109.644C107.508 107.916 108.408 106.998 109.686 106.998C110.55 106.998 111.234 107.286 111.936 107.808L112.242 105.864C111.612 105.468 110.712 105.126 109.578 105.126C107.22 105.126 105.33 106.674 105.33 109.698C105.33 112.542 107.04 114.162 109.452 114.162C110.604 114.162 111.504 113.892 112.332 113.334ZM121.475 114V107.736C121.475 106.116 120.611 105.126 118.991 105.126C117.839 105.126 116.939 105.738 116.219 106.404V101.004L114.059 101.346V114H116.219V108.132C116.849 107.466 117.533 107.034 118.199 107.034C118.991 107.034 119.315 107.556 119.315 108.312V114H121.475ZM126.105 102.624C126.105 101.886 125.529 101.364 124.827 101.364C124.107 101.364 123.531 101.886 123.531 102.624C123.531 103.344 124.107 103.848 124.827 103.848C125.529 103.848 126.105 103.344 126.105 102.624ZM125.889 114V105.306H123.729V114H125.889ZM130.424 114V101.004L128.264 101.346V114H130.424ZM134.959 114V101.004L132.799 101.346V114H134.959ZM139.71 102.624C139.71 101.886 139.134 101.364 138.432 101.364C137.712 101.364 137.136 101.886 137.136 102.624C137.136 103.344 137.712 103.848 138.432 103.848C139.134 103.848 139.71 103.344 139.71 102.624ZM139.494 114V105.306H137.334V114H139.494ZM149.196 114V107.736C149.196 106.116 148.332 105.126 146.712 105.126C145.542 105.126 144.624 105.756 143.814 106.53L143.616 105.306H141.78V114H143.94V108.132C144.57 107.466 145.254 107.034 145.92 107.034C146.712 107.034 147.036 107.556 147.036 108.312V114H149.196Z" fill="white"/>
<path fill-rule="evenodd" clip-rule="evenodd" d="M53.4344 100.694C53.0916 100.559 52.6974 100.634 52.4352 100.884L48.5 105.002H45.75C45.2458 105.002 44.8333 105.396 44.8333 105.877V111.127C44.8333 111.608 45.2458 112.002 45.75 112.002H48.5L52.4352 116.121C52.6974 116.372 53.0916 116.447 53.4344 116.311C53.7772 116.176 54 115.856 54 115.502V101.502C54 101.149 53.7772 100.828 53.4344 100.694ZM55.8333 102.377V104.127C58.3606 104.127 60.4167 106.09 60.4167 108.502C60.4167 110.914 58.3606 112.877 55.8333 112.877V114.627C59.3717 114.627 62.25 111.88 62.25 108.502C62.25 105.125 59.3717 102.377 55.8333 102.377ZM55.8333 105.877C57.3495 105.877 58.5833 107.055 58.5833 108.502C58.5833 109.95 57.3495 111.127 55.8333 111.127V109.377C56.3384 109.377 56.75 108.984 56.75 108.502C56.75 108.02 56.3384 107.627 55.8333 107.627V105.877Z" fill="#B9BBBE"/>
<circle cx="261" cy="435" r="24" fill="#DBE7FF"/>
<path d="M270.526 431.149C270.231 430.966 269.862 430.951 269.553 431.105L267 432.382V430C267 428.897 266.103 428 265 428H253C251.897 428 251 428.897 251 430V440C251 441.104 251.897 442 253 442H265C266.103 442 267 441.104 267 440V437.618L269.553 438.894C269.694 438.965 269.847 439 270 439C270.183 439 270.365 438.949 270.526 438.851C270.82 438.668 271 438.347 271 438V432C271 431.653 270.82 431.332 270.526 431.149Z" fill="#1C1B29"/>
<circle cx="318" cy="435" r="24" fill="#DBE7FF"/>
<path fill-rule="evenodd" clip-rule="evenodd" d="M308 428.5C308 427.397 308.897 426.5 310 426.5H326C327.103 426.5 328 427.397 328 428.5V439.5C328 440.604 327.103 441.5 326 441.5H319V443.5H323V445.5H313V443.5H317V441.5H310C308.897 441.5 308 440.604 308 439.5V428.5ZM319.2 438.338V435.6C315.864 435.6 313.668 436.662 312 439C312.672 435.662 314.532 432.337 319.2 431.662V429L324 433.663L319.2 438.338Z" fill="#1C1B29"/>
<circle cx="375" cy="435" r="24" fill="#DBE7FF"/>
<path d="M369.7 434H368C368 435.19 368.34 436.3 368.9 437.28L370.13 436.05C369.86 435.43 369.7 434.74 369.7 434Z" fill="#1C1B29"/>
<path d="M372.01 434.085C372.015 434.112 372.02 434.14 372.02 434.17L378 428.18V428C378 426.34 376.66 425 375 425C373.34 425 372 426.34 372 428V434C372 434.03 372.005 434.058 372.01 434.085Z" fill="#1C1B29"/>
<path d="M374.724 439.093L373.963 439.853L373.253 440.569C373.498 440.633 373.747 440.684 374 440.72V445H376V440.72C379.28 440.23 382 437.41 382 434H380.3C380.3 437 377.76 439.1 375 439.1C374.908 439.1 374.815 439.098 374.724 439.093Z" fill="#1C1B29"/>
<path d="M384 427.27L382.73 426L366 442.73L367.27 444L371.46 439.82L372.69 438.58L374.35 436.92L377.99 433.28L384 427.27Z" fill="#1C1B29"/>
<circle cx="432" cy="435" r="24" fill="#E7366B"/>
<path fill-rule="evenodd" clip-rule="evenodd" d="M441.117 424.116L442.884 425.884L439.768 429L442.884 432.116L441.117 433.884L438 430.768L434.884 433.884L433.117 432.116L436.233 429L433.117 425.884L434.884 424.116L438 427.232L441.117 424.116ZM438 445H433C426.925 445 422 440.075 422 434V429C422 428.447 422.448 428 423 428H427C427.553 428 428 428.447 428 429V433C428 433.553 427.553 434 427 434H426C426.063 437.938 429 441 433 441V440C433 439.447 433.447 439 434 439H438C438.553 439 439 439.447 439 440V444C439 444.553 438.553 445 438 445Z" fill="white"/>
<mask id="mask3" mask-type="alpha" maskUnits="userSpaceOnUse" x="43" y="132" width="430" height="266">
<path d="M473 140C473 135.582 469.418 132 465 132H51C46.5817 132 43 135.582 43 140V390C43 394.418 46.5817 398 51 398H465C469.418 398 473 394.418 473 390V140Z" fill="#A8BFFF"/>
</mask>
<g mask="url(#mask3)">
<path d="M473 140C473 135.582 469.418 132 465 132H51C46.5817 132 43 135.582 43 140V390C43 394.418 46.5817 398 51 398H465C469.418 398 473 394.418 473 390V140Z" fill="#A8BFFF"/>
<path d="M292 318.3C306.8 274.8 348.5 267.9 370.1 278.8C367.1 255.5 397.3 207.2 454.4 236.7H473V390H294L292 318.3Z" fill="#C2D2FF"/>
<path d="M103.8 321.5C99.8 310.1 81.8 281.7 43 286.5V370.1H192.3C191.9 327.9 144.9 305 103.8 321.5Z" fill="#C2D2FF"/>
<path d="M43 398H473V300.5H399V377.8H372V353.5H310.2L198.5 301.7H149.2V284.5H124.8V345.8L112.3 341.8L95.3 360H43V398Z" fill="#648AE8"/>
<path d="M95.3 372.3H43V377.79H95.3V372.3Z" fill="#7B6EB3"/>
<path d="M114.6 398.1L134 378.7H176.1V398L114.6 398.1Z" fill="#6273E3"/>
<path d="M454.4 390H344.1V398.06H454.4V390Z" fill="#6273E3"/>
<path d="M288.9 192.7C292.103 192.7 294.7 190.103 294.7 186.9C294.7 183.697 292.103 181.1 288.9 181.1C285.697 181.1 283.1 183.697 283.1 186.9C283.1 190.103 285.697 192.7 288.9 192.7Z" fill="#7D2952"/>
<path d="M249.3 206.1C252.503 206.1 255.1 203.503 255.1 200.3C255.1 197.097 252.503 194.5 249.3 194.5C246.097 194.5 243.5 197.097 243.5 200.3C243.5 203.503 246.097 206.1 249.3 206.1Z" fill="#7D2952"/>
<path d="M198.4 219.7C201.603 219.7 204.2 217.103 204.2 213.9C204.2 210.697 201.603 208.1 198.4 208.1C195.197 208.1 192.6 210.697 192.6 213.9C192.6 217.103 195.197 219.7 198.4 219.7Z" fill="#7D2952"/>
<path d="M161.9 226.5C165.103 226.5 167.7 223.903 167.7 220.7C167.7 217.497 165.103 214.9 161.9 214.9C158.697 214.9 156.1 217.497 156.1 220.7C156.1 223.903 158.697 226.5 161.9 226.5Z" fill="#7D2952"/>
<path d="M122.2 230.8C125.403 230.8 128 228.203 128 225C128 221.797 125.403 219.2 122.2 219.2C118.997 219.2 116.4 221.797 116.4 225C116.4 228.203 118.997 230.8 122.2 230.8Z" fill="#7D2952"/>
<path d="M84.5 229.8C87.7032 229.8 90.3 227.203 90.3 224C90.3 220.797 87.7032 218.2 84.5 218.2C81.2967 218.2 78.7 220.797 78.7 224C78.7 227.203 81.2967 229.8 84.5 229.8Z" fill="#7D2952"/>
<path d="M442.9 318C446.103 318 448.7 315.403 448.7 312.2C448.7 308.997 446.103 306.4 442.9 306.4C439.697 306.4 437.1 308.997 437.1 312.2C437.1 315.403 439.697 318 442.9 318Z" fill="#7D2952"/>
<path d="M465 132H43V209.3C127.9 231.9 268.7 197.6 346.5 148.9C372.9 278 473 318.1 473 318.1V140C473 137.878 472.157 135.843 470.657 134.343C469.157 132.843 467.122 132 465 132V132Z" fill="#7D2952"/>
<path d="M43 132V147.7C142.6 203.4 273.7 173.5 328.7 132H43Z" fill="#70254A"/>
<path d="M473 132H387.6C390.9 209.2 426.4 269.5 473 300.5V132Z" fill="#70254A"/>
<path d="M334.5 298C329.5 309.8 320.5 332.4 320.5 332.4L343.4 346.6C352.6 325.1 355.7 313.7 357.2 307.7C358.7 301.7 359.7 295.9 351.9 291.2C344.1 286.5 339.8 285.6 334.5 298Z" fill="#F073AB"/>
<path d="M354.6 334.1L340.9 365.7C339.828 368.195 338.267 370.449 336.309 372.33C334.35 374.21 332.034 375.679 329.498 376.649C326.962 377.618 324.257 378.07 321.543 377.975C318.83 377.881 316.163 377.243 313.7 376.1L262.5 352.8L288 312.6L319.2 330L323.8 316.4C339.9 322.8 348.5 328.4 354.6 334.1Z" fill="#F7E5BC"/>
<path d="M295.1 318.8C315.7 322.2 317.6 326.5 323.1 337.3L301 334.8L295.1 318.8Z" fill="#F7E5BC"/>
<path d="M198.1 147.5C194.003 148.777 190.545 151.564 188.428 155.297C186.311 159.03 185.693 163.428 186.7 167.6L207.2 251.3L243.9 243.7L219.2 158.9C218.582 156.754 217.542 154.753 216.141 153.014C214.741 151.275 213.007 149.833 211.043 148.771C209.078 147.71 206.922 147.051 204.699 146.833C202.477 146.614 200.234 146.841 198.1 147.5Z" fill="#D6569B"/>
<path d="M218.5 231.7L233 231.1L217.6 180.7C217.387 179.975 217.027 179.303 216.542 178.723C216.058 178.144 215.459 177.671 214.783 177.333C214.108 176.995 213.37 176.8 212.616 176.76C211.862 176.72 211.108 176.836 210.4 177.1C209.159 177.574 208.136 178.489 207.528 179.67C206.919 180.85 206.767 182.214 207.1 183.5L218.5 231.7Z" fill="#E374B0"/>
<path d="M210.7 231.1C202.1 198.3 193.7 167.2 189.9 153.2C188.279 155.184 187.145 157.519 186.59 160.02C186.034 162.521 186.072 165.117 186.7 167.6L202.3 231.4L210.7 231.1Z" fill="#F06EA8"/>
<path d="M283 147.1C287.113 148.336 290.601 151.091 292.755 154.806C294.91 158.521 295.569 162.916 294.6 167.1L275 250.9L238.2 243.8L262 158.7C262.598 156.548 263.619 154.536 265.004 152.783C266.388 151.03 268.109 149.57 270.064 148.49C272.02 147.41 274.171 146.731 276.392 146.492C278.613 146.253 280.86 146.46 283 147.1Z" fill="#D6569B"/>
<path d="M243.1 226.5L246.5 233.2C246.5 233.2 259.5 175.6 265.6 152.1C263.941 154.017 262.714 156.268 262 158.7L243.1 226.5Z" fill="#F06EA8"/>
<path d="M269.1 231.5L254.7 231L269.5 180.4C269.711 179.676 270.071 179.004 270.557 178.427C271.044 177.851 271.645 177.383 272.324 177.053C273.002 176.723 273.742 176.539 274.496 176.513C275.249 176.487 276 176.618 276.7 176.9C277.938 177.354 278.968 178.245 279.594 179.406C280.22 180.566 280.4 181.916 280.1 183.2L269.1 231.5Z" fill="#E374B0"/>
<path d="M288.853 224.765L182.846 229.208C167.672 229.844 155.886 242.661 156.522 257.836L156.56 258.745C157.196 273.919 170.013 285.705 185.187 285.069L291.194 280.626C306.369 279.99 318.155 267.173 317.519 251.999L317.48 251.089C316.844 235.915 304.027 224.129 288.853 224.765Z" fill="#F06EA8"/>
<path d="M198 381.3C191.8 375.5 185.7 370.1 184.4 368C183.1 365.9 185.3 365.2 188.4 364.1C191.5 363 194.3 366.8 197.5 373.3C200.7 379.8 203.7 386.5 198 381.3Z" fill="#F2C591"/>
<path d="M310.2 353.5L304.2 372.5L303.4 374.9L296 398.1H158.4C157.1 393 158.7 392 162.2 386.3C165.7 380.6 163.9 382.1 164.4 368.3C164.8 358.6 168.3 349.6 180.8 338.4C184.6 335.1 185.5 333.8 189.4 330.2L190.6 329.1L191.2 328.5L192 327.9L286 313.1L304.9 344.6L310.2 353.5Z" fill="#F7E5BC"/>
<path d="M301 353.6C306.8 338.1 307 336.8 309 341.3C311 345.8 312.2 345.5 302.6 358.1C293 370.7 298.5 360.3 301 353.6Z" fill="#E8C282"/>
<path d="M304.2 372.5C303.6 381.6 302.8 390.2 301.8 398.1H200.7C200.8 394 200.9 388.9 201.1 382.7C201.083 382.032 201.117 381.363 201.2 380.7V373C200.5 354.7 195.3 342.2 180.8 338.4C183.5 335.7 186.3 333 189.4 330.2L190.6 329.1L192 327.9L286 313.1C293.4 315.8 298.3 317.7 303.9 323.4C304.5 330.6 304.8 337.7 304.9 344.6C305 354.3 304.7 363.6 304.2 372.5Z" fill="#1F3A70"/>
<path d="M286 313.1L284.7 313.3L283.4 314.6C278.6 334.7 268.5 355.7 268.5 355.7C268.5 355.7 269 360.8 276 350.9C283 341 289 329.3 292 318.3L286 313.1Z" fill="#172E5C"/>
<path d="M202.5 328C220.7 349.9 226.9 354.8 233.6 359.3C240.3 363.8 234.7 357.1 227.7 346.7C220.7 336.3 212.5 323.4 212.5 323.4L202.5 328Z" fill="#172E5C"/>
<path d="M303.8 374.7C303.3 382.9 302.6 390.7 301.8 398.1H200.7C200.8 394 200.9 388.9 201.1 382.7C201.083 382.032 201.117 381.363 201.2 380.7V373C223 378.3 251.8 387.8 258.3 390.1L303.4 374.9L303.8 374.7Z" fill="#172E5C"/>
<path d="M209.7 340.7C209.7 340.7 208.8 342.5 204.9 345.2C201 347.9 199.9 349.1 199.5 348.2C197.975 345.042 195.766 342.264 193.033 340.067C190.3 337.87 187.112 336.31 183.7 335.5C186.3 332.9 189.2 330.2 192.3 327.3C206.3 333.3 209.7 340.7 209.7 340.7Z" fill="#244AB0"/>
<path d="M277.7 313.1L258.7 384.2L210.1 315.2L277.7 313.1Z" fill="#D4BF9B"/>
<path d="M268.8 346.4L236.4 337.9C230.6 336.4 233.5 338.4 236.4 342C239.3 345.6 256.6 365.3 262.1 371.6L268.8 346.4Z" fill="#CCAC89"/>
<path d="M220.7 326.6L265.1 332.5C270.1 333.1 270.2 327.7 272.8 317.2L224.9 320.7L220.7 326.6Z" fill="#CF518A"/>
<path d="M295.18 273.52L186.08 277.884C171.721 278.458 160.546 290.565 161.12 304.924L161.122 304.964C161.696 319.323 173.802 330.498 188.162 329.924L297.262 325.56C311.621 324.986 322.796 312.879 322.222 298.52L322.22 298.48C321.646 284.121 309.539 272.946 295.18 273.52Z" fill="#F06EA8"/>
<path d="M296.9 324.7C310.9 324.1 322.4 312.8 322.4 298.8C322.446 293.709 320.991 288.718 318.217 284.449C315.442 280.181 311.471 276.824 306.8 274.8C310.317 272.118 313.136 268.626 315.016 264.622C316.896 260.618 317.782 256.22 317.6 251.8V250.9C317.446 247.288 316.581 243.741 315.054 240.463C313.528 237.185 311.37 234.241 308.704 231.798C306.039 229.355 302.917 227.462 299.519 226.227C296.121 224.992 292.512 224.439 288.9 224.6L194.3 228.6C185.8 244.9 187 262.4 193.3 275C194.219 276.907 194.737 278.983 194.823 281.098C194.909 283.214 194.561 285.324 193.8 287.3C184.7 311.5 196.7 329 196.7 329L296.9 324.7Z" fill="#E05FA3"/>
<path d="M243.5 398.1H181.9C181.9 396.9 181.9 395.8 182 394.7V394.5C182 394.2 182.1 393.9 182.1 393.5C182.175 392.921 182.309 392.351 182.5 391.8L182.8 390.8L183.4 389.4L184.2 388.2L184.8 387.4L185.2 387.1C186.815 385.475 188.758 384.214 190.9 383.4C193.723 382.272 196.797 381.927 199.8 382.4L201.1 382.7C213.1 384.6 223.4 386.2 232.2 388.4L233.4 388.9C234.598 389.299 235.716 389.908 236.7 390.7L237.3 391.1L237.9 391.6C238.1 391.8 238.3 391.9 238.4 392.1L239 392.7C239.213 392.813 239.387 392.987 239.5 393.2L240.1 393.8L242.7 397L243.5 398.1Z" fill="#FF8FB1"/>
<path d="M220.511 275.678C222.914 274.105 223.048 270.058 220.81 266.638C218.572 263.218 214.81 261.721 212.407 263.293C210.004 264.866 209.87 268.913 212.108 272.333C214.346 275.753 218.108 277.25 220.511 275.678Z" fill="#1B1926"/>
<path d="M267.893 268.21C268.933 264.487 267.706 260.89 265.152 260.177C262.599 259.464 259.686 261.905 258.647 265.629C257.607 269.352 258.834 272.949 261.388 273.662C263.941 274.375 266.854 271.934 267.893 268.21Z" fill="#1B1926"/>
<path d="M173.5 277.9C167.6 275.7 166.1 275 162 273.7C164.652 277.352 168.152 280.304 172.2 282.3L171 283.3C173.725 283.576 176.462 283.709 179.2 283.7C184.9 283.5 185.9 282.7 173.5 277.9Z" fill="#E05FA3"/>
<path d="M175.483 245.639C179.895 241.625 182.206 236.98 180.645 235.264C179.084 233.549 174.242 235.412 169.83 239.426C165.418 243.441 163.108 248.086 164.669 249.801C166.23 251.517 171.072 249.654 175.483 245.639Z" fill="#F792C0"/>
<path d="M168.4 384C176.8 380.6 179.7 379.2 182.5 378.2C185.3 377.2 182.9 376.1 176.5 373.3C170.1 370.5 168.6 369.5 168.2 375C167.8 380.5 165.7 385.1 168.4 384Z" fill="#FAD596"/>
<path d="M185 381.1C170.6 385 170.5 387 170.1 389.5C169.7 392 170.1 394.2 175.4 390.2C179.826 386.907 184.546 384.028 189.5 381.6C192.3 380.4 190.8 379.5 185 381.1Z" fill="#F7D08D"/>
<path d="M203.6 381C206.3 366.6 206 362.7 207.2 362.4C208.4 362.1 210.7 365.7 212.9 370.2C215.1 374.7 203.6 381 203.6 381Z" fill="#172E5C"/>
<path d="M199.8 382.4C195.2 383 186.4 383.1 185.4 398.1H181.9C181.761 395.981 181.964 393.854 182.5 391.8L182.8 390.8L183.4 389.4L184.2 388.2L184.8 387.4L185.2 387.1C186.815 385.475 188.758 384.214 190.9 383.4C193.723 382.272 196.797 381.927 199.8 382.4Z" fill="#F278B0"/>
<path d="M233.7 398.1C235.7 393.5 236.4 390.5 233.4 388.9C235.291 389.567 237.002 390.662 238.4 392.1L239 392.7C239.213 392.813 239.387 392.987 239.5 393.2L240.1 393.8L242.7 397L243.5 398.1H233.7Z" fill="#F278B0"/>
<path d="M231 287.7C237.6 298.9 247.3 301.5 253.8 287C253.877 286.87 253.915 286.722 253.911 286.571C253.907 286.42 253.861 286.274 253.777 286.148C253.694 286.023 253.576 285.924 253.439 285.862C253.301 285.8 253.149 285.779 253 285.8L231.7 286.4C231.556 286.417 231.418 286.468 231.298 286.549C231.178 286.631 231.08 286.74 231.011 286.867C230.942 286.995 230.905 287.137 230.903 287.282C230.901 287.427 230.935 287.571 231 287.7Z" fill="#751B40"/>
<path d="M211.5 278C216.1 269.2 225 272.9 225 272.9L220.6 282.7L211.5 278Z" fill="#E05FA3"/>
<path d="M256.5 270.8C265.7 267.1 270.1 275.7 270.1 275.7L260.4 280.3L256.5 270.8Z" fill="#E05FA3"/>
<path d="M244.3 286.1L231.7 286.4C231.556 286.417 231.418 286.468 231.298 286.549C231.178 286.631 231.08 286.74 231.011 286.867C230.942 286.995 230.905 287.137 230.903 287.282C230.901 287.427 230.935 287.571 231 287.7C236.7 297.3 244.6 300.6 250.9 292.2C249.337 289.571 247.044 287.452 244.3 286.1Z" fill="#9C2455"/>
<path d="M319.3 335.3C319.3 335.3 325.8 351.1 328 357.4C330.2 363.7 327.1 363 323.6 362.5C320.1 362 319.8 357.4 319.3 349.1C318.8 340.8 317.3 331.3 319.3 335.3Z" fill="#FAD596"/>
<path d="M326.2 331.1C327.2 337.9 330.7 344.2 331.4 345.9C332.1 347.6 337.3 346.5 341.8 345.4C346.3 344.3 343.5 342.7 338 338.1C332.5 333.5 325.3 325.6 326.2 331.1Z" fill="#FAD596"/>
<path d="M123.6 368L116.9 365C116.8 365 116.8 364.8 116.9 364.8L123.6 361.8L126.6 355.1H126.9L129.9 361.8L136.6 364.8C136.7 364.8 136.7 365 136.6 365L129.9 368L126.9 374.7H126.6L123.6 368Z" fill="#3366E0"/>
<path d="M338.3 232.9L335.2 231.5C335.1 231.5 335.1 231.4 335.2 231.4L338.3 230L339.7 226.8H339.9L341.3 230L344.5 231.4L341.3 232.8L339.9 235.9C339.8 236 339.8 236 339.7 235.9L338.3 232.8V232.9Z" fill="#FAFAFA"/>
<path d="M148.7 193.9L145.5 192.5L148.7 191.1L150.1 187.9H150.2L151.6 191.1H151.7L154.8 192.5C154.9 192.5 154.9 192.6 154.8 192.6L151.7 194H151.6L150.2 197.1C150.2 197.2 150.1 197.2 150.1 197.1L148.7 194V193.9Z" fill="#F7E5BC"/>
<path d="M442.9 132H427.3V398.06H442.9V132Z" fill="#783837"/>
<path d="M83.4 132H67.8V398.06H83.4V132Z" fill="#783837"/>
<path d="M442.9 132H427.3V334.68H442.9V132Z" fill="#571E2F"/>
<path d="M83.4 132H67.8V252.95H83.4V132Z" fill="#571E2F"/>
<path d="M345.3 183.9C348.503 183.9 351.1 181.303 351.1 178.1C351.1 174.897 348.503 172.3 345.3 172.3C342.097 172.3 339.5 174.897 339.5 178.1C339.5 181.303 342.097 183.9 345.3 183.9Z" fill="#7D2952"/>
<path d="M312 182.8C315.203 182.8 317.8 180.203 317.8 177C317.8 173.797 315.203 171.2 312 171.2C308.797 171.2 306.2 173.797 306.2 177C306.2 180.203 308.797 182.8 312 182.8Z" fill="#7D2952"/>
<path d="M43 213.9V225.4C44.5211 225.4 45.9814 224.803 47.0663 223.737C48.1511 222.671 48.7738 221.221 48.8 219.7C48.8 218.162 48.1889 216.687 47.1012 215.599C46.0135 214.511 44.5383 213.9 43 213.9V213.9Z" fill="#7D2952"/>
<path d="M352.3 208.6C355.503 208.6 358.1 206.003 358.1 202.8C358.1 199.597 355.503 197 352.3 197C349.097 197 346.5 199.597 346.5 202.8C346.5 206.003 349.097 208.6 352.3 208.6Z" fill="#7D2952"/>
<path d="M387.6 266.8C390.803 266.8 393.4 264.203 393.4 261C393.4 257.797 390.803 255.2 387.6 255.2C384.397 255.2 381.8 257.797 381.8 261C381.8 264.203 384.397 266.8 387.6 266.8Z" fill="#7D2952"/>
<path d="M408.2 290.3C411.403 290.3 414 287.703 414 284.5C414 281.297 411.403 278.7 408.2 278.7C404.997 278.7 402.4 281.297 402.4 284.5C402.4 287.703 404.997 290.3 408.2 290.3Z" fill="#7D2952"/>
<path d="M366.7 235.5C369.903 235.5 372.5 232.903 372.5 229.7C372.5 226.497 369.903 223.9 366.7 223.9C363.497 223.9 360.9 226.497 360.9 229.7C360.9 232.903 363.497 235.5 366.7 235.5Z" fill="#7D2952"/>
<path d="M416 318.9H412V326.75H416V318.9Z" fill="#5177D6"/>
<path d="M458.4 344.7H454.4V352.55H458.4V344.7Z" fill="#5177D6"/>
<path d="M424 351H420V358.85H424V351Z" fill="#5177D6"/>
<path d="M414 372.3H410V380.15H414V372.3Z" fill="#5177D6"/>
<path d="M356.2 376.2H352.2V384.05H356.2V376.2Z" fill="#5177D6"/>
<path d="M158.2 330.4H154.2V338.25H158.2V330.4Z" fill="#5177D6"/>
<path d="M103.5 376.2H99.5V384.05H103.5V376.2Z" fill="#5177D6"/>
<path d="M151.1 280.9H122.9V284.53H151.1V280.9Z" fill="#8F80CF"/>
<path d="M391 372.3H372V377.79H391V372.3Z" fill="#8F80CF"/>
</g>
<defs>
<linearGradient id="paint0_linear" x1="560.961" y1="169.826" x2="577.51" y2="212.469" gradientUnits="userSpaceOnUse">
<stop stop-color="#FFC285"/>
<stop offset="1" stop-color="#DB8D6B"/>
</linearGradient>
<linearGradient id="paint1_linear" x1="615.935" y1="194.863" x2="524.443" y2="194.863" gradientUnits="userSpaceOnUse">
<stop stop-color="#D67569"/>
<stop offset="1" stop-color="#E39E7F"/>
</linearGradient>
</defs>
</svg>
