<svg width="678" height="440" viewBox="0 0 678 440" fill="none" xmlns="http://www.w3.org/2000/svg">
<rect x="216" y="18" width="270" height="369" rx="8" fill="#292841"/>
<rect x="236" y="198" width="226" height="38" rx="4" fill="#807CEF" fill-opacity="0.09"/>
<mask id="mask0" mask-type="alpha" maskUnits="userSpaceOnUse" x="241" y="112" width="28" height="28">
<circle cx="255" cy="126" r="14" fill="#C4C4C4"/>
</mask>
<g mask="url(#mask0)">
<circle cx="255" cy="126" r="14" fill="#CFDEFF"/>
<path d="M270.647 144.788C270.381 144.132 269.942 143.56 269.376 143.134C268.81 142.709 268.139 142.445 267.435 142.371L265.964 142.216C263.855 134.615 264.921 132.889 258.693 131.184L253.652 131.006C253.652 131.006 248.529 131.092 246.645 133.615L249.28 142.252C249.28 142.252 248.201 147.985 248.692 150.892L255.258 150.044L258.104 159.253C268.833 157.66 273.831 152.687 273.831 152.687L270.647 144.788Z" fill="#CFDEFF"/>
<path d="M247.847 131.687C254.996 138.383 261.456 142.959 260.369 132.395L247.847 131.687Z" fill="#B8C5FF"/>
<path d="M251.356 132.477C257.58 135.402 259.196 136.506 258.788 132.991L251.356 132.477Z" fill="#5697B0"/>
<path d="M264.79 137.395C264.032 134.201 263.463 132.824 260.275 131.671C261.133 133.678 261.506 137.819 261.506 137.819L264.79 137.395Z" fill="white"/>
<path d="M254.165 121.962L253.937 120.196C253.86 119.62 253.602 119.083 253.2 118.664C252.798 118.244 252.273 117.962 251.701 117.861C251.073 117.751 250.426 117.866 249.874 118.186C249.321 118.505 248.899 119.009 248.681 119.609C247.88 121.784 246.628 125.283 245.765 128.226C244.391 132.916 250.608 134.001 256.718 133.534C262.827 133.068 263.402 130.392 262.557 126.519C262.015 124.103 261.328 121.636 260.9 120.103C260.769 119.675 260.516 119.295 260.172 119.008C259.829 118.721 259.409 118.541 258.965 118.488C258.466 118.43 257.963 118.54 257.534 118.799C257.105 119.059 256.775 119.454 256.595 119.922L255.908 121.737L254.165 121.962Z" fill="#7CE4CC"/>
<path d="M261.737 128.374L261.303 128.223L259.078 128.994L256.814 129.286L252.891 128.503C252.891 128.503 250.734 125.168 250.891 128.877C251.014 131.439 252.102 132.91 252.765 133.584C254.081 133.644 255.401 133.62 256.715 133.511C257.706 133.456 258.689 133.291 259.644 133.018C260.305 132.081 261.371 130.355 261.737 128.374Z" fill="#AAFAE7"/>
<path opacity="0.74" d="M250.827 128.563C250.323 127.154 249.411 124.188 249.789 121.952C250.168 119.716 250.668 117.879 251.701 117.861C251.073 117.751 250.426 117.866 249.874 118.186C249.321 118.505 248.899 119.009 248.681 119.609C247.88 121.784 246.628 125.283 245.765 128.226C244.533 132.414 249.375 133.722 254.795 133.621C253.619 133.428 252.125 132.193 250.827 128.563Z" fill="url(#paint0_linear)"/>
<path d="M254.795 133.621L254.359 133.631L253.946 133.639L253.297 133.607L253.093 133.634L252.767 133.607C252.108 132.955 251.02 131.484 250.896 128.922C250.887 128.876 250.889 128.828 250.902 128.783C252.176 132.233 253.645 133.447 254.795 133.621Z" fill="#AAFAE7"/>
<path d="M261.203 127.983L261.2 128.5C258.82 130.057 258.433 130.488 252.3 128.562L252.238 128.081L252.504 128.156C257.697 129.469 258.689 129.585 261.203 127.983Z" fill="#2C4661"/>
<path d="M251.817 129.993C252.619 129.77 253.066 128.86 252.816 127.961C252.565 127.062 251.713 126.515 250.911 126.738C250.109 126.961 249.662 127.871 249.912 128.769C250.163 129.668 251.015 130.216 251.817 129.993Z" fill="#738EFF"/>
<path d="M262.349 128.128C262.512 127.351 262.284 126.645 261.839 126.552C261.395 126.459 260.903 127.014 260.74 127.791C260.577 128.568 260.805 129.274 261.249 129.367C261.693 129.461 262.186 128.906 262.349 128.128Z" fill="#738EFF"/>
<path opacity="0.41" d="M256.265 126.641C256.151 126.471 256.343 126.354 256.496 126.288C256.557 126.265 256.625 126.261 256.689 126.278C256.753 126.294 256.81 126.33 256.853 126.38L257.434 127.134C257.602 127.366 257.35 127.375 257.1 127.223C256.85 127.071 256.439 126.917 256.265 126.641Z" fill="#284E7A"/>
<path opacity="0.41" d="M258.866 126.995L259.043 126.581C259.074 126.51 259.083 126.432 259.069 126.355C259.055 126.279 259.019 126.209 258.964 126.154L258.885 126.072C258.877 126.063 258.868 126.057 258.857 126.053C258.847 126.049 258.836 126.047 258.824 126.049C258.813 126.05 258.802 126.055 258.793 126.061C258.784 126.068 258.777 126.076 258.772 126.087C258.663 126.382 258.579 126.685 258.52 126.994C258.493 127.32 258.697 127.293 258.866 126.995Z" fill="#284E7A"/>
<path d="M256.349 122.118L254.165 121.962L255.908 121.737L256.595 119.922C256.775 119.454 257.105 119.059 257.534 118.8C257.963 118.54 258.466 118.43 258.965 118.488L259.39 118.571C258.353 118.383 258.001 119.579 257.797 121.033C257.693 121.829 257.722 122.24 256.349 122.118Z" fill="#61C7C7"/>
<path d="M260.423 121.786C260.427 121.231 260.061 120.779 259.607 120.777C259.153 120.774 258.783 121.221 258.78 121.776C258.776 122.331 259.141 122.783 259.595 122.786C260.049 122.788 260.42 122.341 260.423 121.786Z" fill="#21354A"/>
<path d="M252.737 121.454C252.792 120.902 252.47 120.418 252.018 120.373C251.566 120.329 251.156 120.74 251.101 121.292C251.047 121.844 251.369 122.328 251.82 122.373C252.272 122.417 252.683 122.006 252.737 121.454Z" fill="#21354A"/>
<path d="M249.28 142.252C250.226 142.268 251.431 142.158 252.507 142.112C252.487 141.682 252.525 141.251 252.618 140.831C252.783 140.126 253.035 139.444 253.369 138.801C252.508 138.728 251.463 138.655 250.607 138.628C250.429 134.392 248.199 132.102 246.969 133.273C246.386 133.827 246.032 134.579 245.976 135.381C245.944 136.03 246.011 137.08 245.972 137.316C245.865 138.089 245.319 138.321 245.988 139.754C246.333 140.469 245.686 142.233 249.28 142.252Z" fill="white"/>
<path d="M252.229 118.023C253.106 118.577 253.327 119.93 253.397 120.473C253.467 121.017 253.593 121.99 253.625 122.239C253.657 122.488 253.737 122.57 254.568 122.946C255.399 123.322 255.052 122.953 254.674 122.518L254.165 121.962L253.937 120.196C253.872 119.714 253.68 119.258 253.38 118.876C253.079 118.494 252.682 118.199 252.229 118.023Z" fill="#D4FFDC"/>
<path d="M259.949 121.123C260.264 121.244 260.335 121.971 260.022 121.689C259.71 121.408 259.516 120.972 259.949 121.123Z" fill="#335A70"/>
<path d="M252.344 120.701C252.636 120.824 252.71 121.575 252.417 121.267C252.124 120.96 251.888 120.553 252.344 120.701Z" fill="#335A70"/>
<path d="M252.28 129.049C252.581 128.89 252.605 128.345 252.334 127.833C252.063 127.32 251.6 127.033 251.299 127.192C250.998 127.351 250.973 127.896 251.244 128.409C251.515 128.922 251.979 129.208 252.28 129.049Z" fill="#B2A6FF"/>
<path d="M262.329 127.51C262.329 127.145 262.186 126.848 262.01 126.848C261.833 126.848 261.69 127.144 261.69 127.51C261.689 127.876 261.832 128.172 262.009 128.172C262.185 128.172 262.329 127.876 262.329 127.51Z" fill="#B2A6FF"/>
<path d="M260.027 119.226C260.515 119.623 260.654 120.342 260.106 119.837C259.557 119.333 259.436 118.75 260.027 119.226Z" fill="#D4FFDC"/>
</g>
<path d="M464 51.1111H456.889V44H455.111V51.1111H448V52.8889H455.111V60H456.889V52.8889H464V51.1111Z" fill="#8684BD"/>
<mask id="mask1" mask-type="alpha" maskUnits="userSpaceOnUse" x="241" y="76" width="28" height="28">
<circle cx="255" cy="90" r="14" fill="#C4C4C4"/>
</mask>
<g mask="url(#mask1)">
<circle cx="255" cy="90" r="14" fill="#628BF7"/>
<path d="M251.917 66.105L262.298 85.5699C262.538 86.0067 262.631 86.5097 262.562 87.0036C262.492 87.4975 262.265 87.9556 261.913 88.3093L261.769 88.4535C260.054 90.2471 257.907 91.5693 255.533 92.2931C253.16 93.017 250.64 93.1181 248.216 92.5868C247.864 92.5104 247.548 92.3165 247.321 92.037C247.094 91.7575 246.969 91.409 246.966 91.0488L246.486 67.5469C246.438 58.6555 246.87 56.685 251.917 66.105Z" fill="#33BEB5"/>
<path d="M261.769 88.4535C262.146 88.0559 262.39 87.551 262.468 87.0085C262.545 86.4661 262.452 85.913 262.202 85.4257L251.917 66.105C249.465 61.5392 248.12 59.6168 247.351 59.9532C249.321 73.6026 253.358 91.3853 253.358 91.3853L256.146 92.0581C258.278 91.3166 260.205 90.0815 261.769 88.4535Z" fill="#33A2BE"/>
<path d="M259.27 79.8986C258.645 78.7451 258.357 78.3606 258.068 78.9374C253.791 72.1127 251.724 73.4584 251.724 80.0908C251.724 80.0908 248.745 78.5048 249.081 84.3683C248.656 84.2536 248.206 84.2808 247.798 84.4456C247.39 84.6105 247.048 84.9039 246.822 85.2815L246.966 91.0488C246.969 91.3565 247.062 91.6566 247.233 91.9126C247.403 92.1686 247.645 92.3695 247.927 92.4906C250.472 92.8953 253.075 92.7068 255.534 91.9398C257.994 91.1729 260.242 89.8481 262.106 88.069C262.37 87.7128 262.528 87.2893 262.562 86.8471C262.596 86.405 262.504 85.9622 262.298 85.5698L259.27 79.8986Z" fill="#F7E5BC"/>
<path d="M262.298 85.5698L259.27 79.8986C258.645 78.7451 258.357 78.3606 258.068 78.9374C253.791 72.1127 251.724 73.4584 251.724 80.0908C251.471 79.9625 251.191 79.8966 250.907 79.8986C251.724 80.0908 251.772 80.9079 252.253 82.6861C252.734 84.4644 253.07 86.0504 253.07 86.0504L260.664 89.2705C261.177 88.9109 261.659 88.509 262.106 88.069C262.37 87.7128 262.528 87.2892 262.562 86.8471C262.596 86.405 262.504 85.9622 262.298 85.5698Z" fill="#F7D197"/>
<path d="M261.961 85.8102C258.309 81.8691 255.041 80.4753 247.639 91.2891C247.567 91.4052 247.523 91.5367 247.511 91.673C247.5 91.8092 247.521 91.9463 247.572 92.0729C247.624 92.1995 247.705 92.3121 247.808 92.4014C247.912 92.4908 248.035 92.5543 248.168 92.5868C250.599 93.1128 253.125 93.0092 255.505 92.2859C257.885 91.5625 260.041 90.2434 261.769 88.4535L261.913 88.3093L262.25 87.8768C262.433 87.5479 262.504 87.1681 262.452 86.7951C262.4 86.4221 262.228 86.0763 261.961 85.8102Z" fill="#242236"/>
<path d="M261.337 89.1744L260.375 84.2721C257.684 82.0613 254.848 82.0133 250.09 87.9729L252.061 92.6348C255.404 92.322 258.605 91.128 261.337 89.1744Z" fill="#9E4B34"/>
<path d="M261.577 88.9821L258.068 88.6938L257.588 90.0395L256.723 88.1651C255.906 86.2426 255.858 86.2907 255.137 87.9248C254.416 89.5589 251.196 88.9821 251.196 88.9821L250.523 87.4922C254.704 82.4458 257.347 82.1574 259.799 83.8396L261.577 88.9821Z" fill="#7A2F28"/>
<path d="M245.669 95.6627L246.293 94.0286C246.429 93.7061 246.639 93.4203 246.906 93.1947C247.174 92.9691 247.491 92.8102 247.831 92.731L250.282 92.2503L259.991 92.0581L265.278 94.7495C265.493 94.8546 265.679 95.01 265.821 95.2024C265.963 95.3948 266.057 95.6186 266.095 95.8549L266.287 97.1045L268.834 98.7867C268.975 98.8779 269.087 99.0083 269.155 99.162C269.223 99.3156 269.246 99.4858 269.219 99.6518C268.546 105.515 262.538 114.455 254.175 110.466C247.927 107.486 242.16 103.16 239.373 100.949L238.315 102.391C238.027 100.997 238.267 100.469 239.18 99.7479C239.473 99.5494 239.746 99.3241 239.997 99.075C240.081 98.8434 240.13 98.6003 240.142 98.3541C240.382 97.2487 240.142 96.9604 241.439 96.672L245.669 95.6627Z" fill="#33BEB5"/>
<path d="M250.33 92.8271C248.072 93.2116 246.822 93.1636 250.33 95.2302C253.839 97.2968 250.33 92.8271 250.33 92.8271Z" fill="#1E6470"/>
<path d="M256.53 85.8582L256.915 87.5884C256.963 87.6365 257.011 87.7326 257.107 87.7326L257.828 87.8287L257.203 86.3869V86.2908L257.347 85.2815L256.675 85.666L256.53 85.8582Z" fill="#66251F"/>
<path d="M253.07 87.5884L254.368 87.7806C253.887 88.5015 253.31 88.4054 253.07 87.5884Z" fill="#5E221D"/>
<path d="M257.828 87.1078L259.126 86.7233C258.982 87.5884 258.405 87.7326 257.828 87.1078Z" fill="#5E221D"/>
<path d="M253.935 87.8288C254.147 87.8288 254.32 87.5275 254.32 87.1559C254.32 86.7843 254.147 86.483 253.935 86.483C253.723 86.483 253.551 86.7843 253.551 87.1559C253.551 87.5275 253.723 87.8288 253.935 87.8288Z" fill="black"/>
<path d="M258.549 86.9636C258.761 86.9636 258.933 86.6624 258.933 86.2908C258.933 85.9192 258.761 85.6179 258.549 85.6179C258.337 85.6179 258.165 85.9192 258.165 86.2908C258.165 86.6624 258.337 86.9636 258.549 86.9636Z" fill="black"/>
<path d="M259.799 83.8396L260.856 84.6566C261.24 85.714 261.385 87.2039 261.769 88.4535C262.154 89.7031 262.682 91.5775 262.442 92.6348C262.202 93.6922 262.394 93.7883 263.067 95.134C263.74 96.4797 264.989 97.9216 264.557 99.5556C265.278 100.661 265.037 101.334 264.845 102.343C264.653 103.352 263.836 106.044 262.009 105.996C261.393 106.856 260.53 107.509 259.535 107.87C258.54 108.23 257.459 108.281 256.434 108.014C253.503 107.294 250.571 105.275 250.907 102.632C249.946 101.863 250.138 99.844 250.282 98.7386C250.385 97.7562 250.237 96.7638 249.85 95.8549C249.513 94.8937 249.513 93.9325 249.802 91.9139C249.465 91.0785 249.223 90.208 249.081 89.3186L250.523 87.4442L251.196 88.9822C251.518 89.6235 251.807 90.2812 252.061 90.9527C252.303 90.8465 252.566 90.7972 252.83 90.8085C253.008 90.4386 253.279 90.1206 253.615 89.885C253.952 89.6494 254.343 89.504 254.752 89.4628L257.588 90.0395L258.068 88.6938C259.414 88.5015 260.087 88.5015 260.568 88.838C260.822 88.0779 260.855 87.2612 260.664 86.483C260.423 85.5698 259.799 83.8396 259.799 83.8396Z" fill="white"/>
<path d="M257.828 91.1449L256.723 90.9046C256.194 90.7604 256.242 90.7124 254.752 89.4628L257.588 90.0395L258.068 88.6938C259.414 88.5015 260.087 88.5015 260.568 88.838C260.822 88.0779 260.855 87.2612 260.664 86.483C260.423 85.5698 259.799 83.8396 259.799 83.8396L260.808 84.6566C261.24 85.714 261.385 87.2039 261.769 88.4535C262.154 89.7031 262.682 91.5775 262.442 92.6348C262.202 93.6922 262.394 93.7883 263.067 95.134C263.74 96.4797 264.989 97.9216 264.557 99.5556C265.278 100.661 265.037 101.334 264.845 102.343C264.653 103.352 263.836 106.044 262.009 105.996C261.393 106.856 260.53 107.509 259.535 107.87C258.54 108.23 257.459 108.281 256.434 108.014C253.503 107.294 250.571 105.275 250.907 102.632C251.82 105.131 253.743 104.65 253.743 104.65C254.911 104.398 256.105 104.285 257.299 104.314C257.972 103.112 258.789 101.959 259.462 101.478C260.904 98.7386 259.799 95.8069 259.126 94.1728L257.828 91.1449Z" fill="#D6DFFF"/>
<path d="M257.828 91.145C258.549 91.2892 258.501 90.6644 258.453 90.0396C258.427 89.568 258.295 89.1082 258.068 88.6938L257.588 90.0396L254.752 89.4628C256.242 90.7124 256.194 90.7605 256.723 90.9047L257.828 91.145Z" fill="#CAD5FC"/>
<path d="M252.397 86.7714L255.041 86.0024C254.817 85.876 254.571 85.7956 254.316 85.766C254.061 85.7363 253.803 85.7579 253.557 85.8296C253.31 85.9012 253.081 86.0215 252.882 86.1832C252.683 86.345 252.518 86.5449 252.397 86.7714Z" fill="#CFDEFF"/>
<path d="M256.963 85.714L259.702 85.1854C259.266 84.9039 258.737 84.8017 258.227 84.9002C257.716 84.9987 257.264 85.2902 256.963 85.714Z" fill="#CFDEFF"/>
<path d="M258.982 92.1542C258.972 92.3342 258.899 92.505 258.776 92.6368C258.653 92.7685 258.488 92.8529 258.309 92.8752C255.425 93.2597 254.175 92.5868 253.695 92.2023C253.637 92.1478 253.593 92.0797 253.568 92.0042C253.543 91.9287 253.537 91.8481 253.551 91.7697V91.6736C255.089 92.2023 257.395 91.962 257.924 91.8659C258.453 91.7697 258.261 91.6256 258.213 91.3853C258.314 91.3853 258.414 91.4051 258.507 91.4438C258.6 91.4824 258.685 91.5391 258.756 91.6105C258.828 91.6819 258.884 91.7667 258.923 91.86C258.962 91.9533 258.982 92.0533 258.982 92.1542Z" fill="#DE5D70"/>
<path d="M255.449 79.5107C255.928 79.2813 255.981 78.3967 255.569 77.535C255.156 76.6732 254.433 76.1606 253.954 76.39C253.475 76.6193 253.422 77.5039 253.835 78.3657C254.248 79.2274 254.971 79.7401 255.449 79.5107Z" fill="#FF9CCD"/>
<path d="M255.569 77.4955C255.185 76.6304 254.416 76.1017 253.935 76.342C253.878 76.3715 253.827 76.4122 253.786 76.4618C253.744 76.5113 253.713 76.5687 253.695 76.6304C254.512 76.5823 254.079 77.5436 255.569 77.4955Z" fill="#FFEBF5"/>
<path d="M253.551 77.2072C253.561 77.6029 253.643 77.9936 253.791 78.3606L253.983 78.649C254.127 78.6009 254.464 78.5048 254.608 78.7451C254.752 78.9854 254.944 79.418 255.473 79.5141C255.603 79.4123 255.706 79.2802 255.773 79.1294C255.84 78.9786 255.869 78.8136 255.858 78.649H255.713C254.704 78.649 254.127 77.5916 253.551 77.2072Z" fill="#FF70B7"/>
<path d="M250.523 82.6381C250.788 82.6381 251.003 82.3584 251.003 82.0133C251.003 81.6683 250.788 81.3885 250.523 81.3885C250.257 81.3885 250.042 81.6683 250.042 82.0133C250.042 82.3584 250.257 82.6381 250.523 82.6381Z" fill="#F7D197"/>
<path d="M247.975 86.7713C248.241 86.7713 248.456 86.4916 248.456 86.1465C248.456 85.8015 248.241 85.5217 247.975 85.5217C247.71 85.5217 247.495 85.8015 247.495 86.1465C247.495 86.4916 247.71 86.7713 247.975 86.7713Z" fill="#F7D197"/>
<path d="M249.081 89.3186C249.223 90.0677 249.416 90.8063 249.658 91.5294C249.658 90.9527 249.898 90.2798 250.282 90.1356C250.667 89.9915 250.715 89.0302 251.196 88.9822L250.523 87.4442L249.081 89.3186Z" fill="#A8C3FF"/>
<path d="M259.318 94.6534C260.52 95.855 260.952 96.7201 261.048 97.3929C260.559 97.2143 260.104 96.9543 259.702 96.624L259.318 94.6534Z" fill="white"/>
<path d="M254.704 85.1373C255.762 84.8191 256.837 84.5623 257.924 84.3683C256.194 84.176 255.233 84.4644 254.704 85.1373Z" fill="#66251F"/>
<path d="M255.809 87.2039C255.819 87.4258 255.876 87.6432 255.975 87.8419C256.075 88.0406 256.215 88.2162 256.386 88.3574C256.626 88.5496 256.434 88.2132 256.146 87.5884C255.858 86.9636 255.713 86.8194 255.809 87.2039Z" fill="#C27059"/>
</g>
<path d="M284.264 96L283.976 94.112H280.296V84.96H278.168V96H284.264ZM292.262 92.128C292.262 89.616 290.726 88.112 288.614 88.112C286.518 88.112 284.982 89.632 284.982 92.144C284.982 94.656 286.502 96.16 288.598 96.16C290.71 96.16 292.262 94.64 292.262 92.128ZM290.39 92.144C290.39 93.584 289.782 94.592 288.598 94.592C287.478 94.592 286.854 93.552 286.854 92.128C286.854 90.704 287.462 89.68 288.598 89.68C289.75 89.68 290.39 90.72 290.39 92.144ZM299.644 95.408L299.388 93.76C298.684 94.304 298.028 94.496 297.356 94.496C296.236 94.496 295.356 93.728 295.356 92.128C295.356 90.592 296.156 89.776 297.292 89.776C298.06 89.776 298.668 90.032 299.292 90.496L299.564 88.768C299.004 88.416 298.204 88.112 297.196 88.112C295.1 88.112 293.42 89.488 293.42 92.176C293.42 94.704 294.94 96.144 297.084 96.144C298.108 96.144 298.908 95.904 299.644 95.408ZM305.915 96.112L307.963 95.808L304.939 91.76L307.787 88.272H305.611L303.099 91.472V84.448L301.179 84.752V96H303.099V92.16L305.915 96.112ZM311.954 89.44C312.882 89.44 313.362 90.112 313.49 91.312H310.402C310.546 90.064 311.186 89.44 311.954 89.44ZM315.346 95.216L315.122 93.712C314.274 94.304 313.458 94.672 312.466 94.672C311.282 94.672 310.466 94.016 310.386 92.512H315.346C315.346 92.4 315.362 92.208 315.362 92.048C315.362 89.856 314.322 88.112 312.002 88.112C309.986 88.112 308.482 89.632 308.482 92.144C308.482 94.928 310.098 96.16 312.258 96.16C313.506 96.16 314.514 95.792 315.346 95.216Z" fill="#DCDDDE"/>
<mask id="mask2" mask-type="alpha" maskUnits="userSpaceOnUse" x="241" y="239" width="28" height="28">
<circle cx="255" cy="253" r="14" fill="#C4C4C4"/>
</mask>
<g mask="url(#mask2)">
<circle cx="255" cy="253" r="14" fill="#FF82A6"/>
<path d="M262.911 242.282L262.87 242.402L262.747 242.694L262.706 242.813L262.611 243.026C260.521 247.896 256.51 251.486 253.853 253.981C251.101 256.553 248.003 258.729 244.651 260.445C241.348 262.03 239.855 260.606 240.223 257.905L240.554 256.55L242.181 249.718L242.25 249.385C243.352 244.933 245.051 242.377 250.576 240.997L258.982 238.934L259.009 238.921C261.945 238.213 263.988 239.201 262.911 242.282Z" fill="url(#paint1_linear)"/>
<path d="M262.045 238.959C259.378 239.404 254.385 242.612 249.432 247.326C244.479 252.04 240.695 257.243 240.354 259.798C240.823 261.16 242.258 261.584 244.651 260.445C248.003 258.729 251.101 256.553 253.853 253.981C256.51 251.486 260.521 247.896 262.612 243.026L262.706 242.813L262.747 242.694L262.87 242.402L262.911 242.282C263.551 240.476 263.121 239.394 262.045 238.959Z" fill="url(#paint2_linear)"/>
<path d="M254.132 252.221C258.94 247.659 262.13 243.216 261.259 242.297C260.387 241.379 255.783 244.332 250.975 248.894C246.168 253.457 242.977 257.899 243.849 258.818C244.72 259.737 249.324 256.783 254.132 252.221Z" fill="#6B3143"/>
<path d="M253.123 260.141L251.85 261.063C251.543 261.267 251.286 261.537 251.096 261.854C250.907 262.17 250.791 262.525 250.757 262.892L250.543 264.555L248.303 266.614C247.834 267.075 247.557 267.696 247.529 268.353L247.543 269.937C247.543 269.937 259.795 276.47 266.384 275.298C272.972 274.127 268.962 262.827 268.962 262.827C268.904 262.717 268.816 262.624 268.709 262.56C268.601 262.496 268.478 262.462 268.353 262.463L266.396 262.327L265.561 260.283C265.484 260.093 265.361 259.925 265.205 259.794C265.048 259.663 264.861 259.572 264.661 259.529L258.891 258.31L253.123 260.141Z" fill="#EF6270"/>
<path d="M253.402 263.553C251.646 263.219 251.766 263.26 252.265 262.452C252.551 261.952 252.969 261.54 253.474 261.263L253.402 263.553Z" fill="#BD3C53"/>
<path d="M256.091 247.314C255.88 247.086 254.111 248.35 252.152 250.172C250.193 251.994 248.781 253.647 248.992 253.875C251.347 257.463 252.917 260.872 253.402 263.553L262.975 265.429C262.458 256.928 258.484 251.116 256.091 247.314Z" fill="#FFB685"/>
<path d="M259.734 254.872C259.653 254.57 259.421 254.369 259.214 254.424C259.007 254.479 258.905 254.769 258.985 255.071C259.066 255.373 259.298 255.573 259.505 255.518C259.712 255.463 259.814 255.174 259.734 254.872Z" fill="#543247"/>
<path d="M256.59 256.655C256.74 256.439 256.631 256.104 256.347 255.907C256.063 255.711 255.712 255.727 255.562 255.943C255.412 256.159 255.521 256.494 255.805 256.691C256.089 256.887 256.44 256.871 256.59 256.655Z" fill="#543247"/>
<path d="M258.561 259.6C259.363 259.207 260.099 258.813 260.444 258.909C260.79 259.005 260.638 259.643 260.26 260.359C259.881 261.075 259.99 260.757 259.113 260.523C258.236 260.289 257.946 259.901 258.561 259.6Z" fill="#C74153"/>
<path d="M258.895 259.469L258.279 259.904C258.304 260.157 258.661 260.413 259.113 260.523C259.565 260.633 260.084 260.677 260.26 260.359L260.422 260.014C260.197 259.826 259.575 259.368 258.895 259.469Z" fill="#A82C3C"/>
<path d="M260.112 258.906C259.575 259.091 259.056 259.323 258.561 259.6C258.213 259.77 258.239 259.957 258.397 260.144L260.241 259.307C260.348 259.255 260.217 259.054 260.112 258.906Z" fill="white"/>
<path d="M262.436 256.408C262.45 256.369 262.423 256.315 262.437 256.275C262.405 256.005 262.291 255.752 262.109 255.55C261.926 255.348 261.686 255.207 261.421 255.148C261.485 255.206 261.535 255.277 261.568 255.357C261.601 255.437 261.615 255.523 261.609 255.609C261.603 255.695 261.577 255.779 261.534 255.853C261.491 255.928 261.432 255.992 261.36 256.04C261.103 256.187 260.815 256.272 260.519 256.286C260.134 256.329 259.763 256.456 259.432 256.659C259.102 256.861 258.819 257.133 258.605 257.456C257.247 257.392 256.774 258.253 255.811 258.725C255.552 258.859 255.272 258.952 254.984 258.998C254.037 259.163 253.88 258.776 253.858 258.256C252.812 259.1 253.468 260.304 254.278 260.604C254.756 260.834 255.396 260.719 256.066 260.192C257.727 260.605 258.315 260.383 259.273 258.82C260.855 259.205 261.872 258.575 261.951 257.11C262.084 257.043 262.198 256.944 262.283 256.821C262.367 256.698 262.42 256.557 262.436 256.408Z" fill="#6B3143"/>
<path d="M259.273 258.82C260.855 259.205 261.872 258.575 261.951 257.11C262.084 257.043 262.198 256.944 262.283 256.821C262.367 256.698 262.42 256.557 262.436 256.408C262.45 256.368 262.423 256.315 262.437 256.275C262.41 256.137 262.366 256.002 262.307 255.875C262.326 256.095 262.261 256.315 262.127 256.491C261.993 256.667 261.798 256.787 261.58 256.828C261.105 257.889 260.145 258.094 259.041 257.872C259.041 257.872 257.802 259.607 256.087 259.22C254.881 260.209 253.59 260.078 253.318 259.117C253.293 259.436 253.374 259.754 253.547 260.023C253.72 260.291 253.977 260.495 254.278 260.603C254.756 260.834 255.396 260.719 256.066 260.192C257.727 260.605 258.315 260.383 259.273 258.82Z" fill="#5E2737"/>
</g>
<path d="M286.216 258.248L285.928 256.392C285.08 256.952 284.168 257.352 283.128 257.352C281.144 257.352 279.896 255.88 279.896 253.48C279.896 251.096 281.096 249.592 283.096 249.592C284.168 249.592 285.016 250.024 285.736 250.568L286.04 248.568C285.224 248.056 284.264 247.768 283.016 247.768C279.8 247.768 277.736 250.072 277.736 253.496C277.736 256.936 279.752 259.192 282.952 259.192C284.216 259.192 285.352 258.808 286.216 258.248ZM292.059 256.872C291.531 257.384 290.907 257.704 290.251 257.704C289.659 257.704 289.307 257.368 289.307 256.808C289.307 256.072 289.835 255.416 292.059 255.144V256.872ZM293.979 259V253.704C293.979 251.848 292.987 251.112 290.987 251.112C289.755 251.112 288.811 251.384 287.915 251.736L288.155 253.272C288.987 252.904 289.835 252.648 290.731 252.648C291.579 252.648 292.059 252.968 292.059 253.8V254.024C288.939 254.328 287.403 255.144 287.403 257.016C287.403 258.36 288.283 259.16 289.595 259.16C290.747 259.16 291.547 258.648 292.171 257.992L292.331 259H293.979ZM301.034 255.032C301.034 256.728 300.282 257.544 299.29 257.544C298.634 257.544 298.266 257.432 297.802 257.208V253.896C298.314 253.24 298.858 252.808 299.546 252.808C300.41 252.808 301.034 253.544 301.034 255.032ZM302.97 254.92C302.97 252.328 301.674 251.112 300.058 251.112C298.986 251.112 298.234 251.704 297.69 252.328L297.514 251.272H295.882V261.976L297.802 261.688V258.776C298.266 258.952 298.858 259.08 299.594 259.08C301.37 259.08 302.97 257.8 302.97 254.92Z" fill="#DCDDDE"/>
<mask id="mask3" mask-type="alpha" maskUnits="userSpaceOnUse" x="241" y="203" width="28" height="28">
<circle cx="255" cy="217" r="14" fill="#C4C4C4"/>
</mask>
<g mask="url(#mask3)">
<circle cx="255" cy="217" r="14" fill="#FFB869"/>
<path d="M247.816 221.572C249.449 227.254 256.023 231.19 261.296 227.477C266.569 223.763 261.333 216.15 261.333 216.15C261.333 216.15 264.192 208.946 257.025 207.238C249.858 205.529 248.075 208.649 247.816 221.572Z" fill="#4D7AE8"/>
<path d="M258.436 217.413C257.636 217.413 256.988 216.548 256.988 215.482C256.988 214.415 257.636 213.551 258.436 213.551C259.236 213.551 259.885 214.415 259.885 215.482C259.885 216.548 259.236 217.413 258.436 217.413Z" fill="#DBE7FF"/>
<path d="M259.057 216.948C258.853 216.934 258.709 216.608 258.735 216.219C258.761 215.83 258.949 215.526 259.153 215.54C259.358 215.554 259.502 215.881 259.476 216.269C259.449 216.658 259.262 216.962 259.057 216.948Z" fill="#201E2F"/>
<path d="M260.107 211.88C260.011 211.591 259.827 211.34 259.58 211.163C259.333 210.985 259.038 210.889 258.733 210.889C258.429 210.889 258.133 210.985 257.886 211.163C257.64 211.34 257.455 211.591 257.359 211.88H260.107Z" fill="#201E2F"/>
<path d="M259.959 220.087C258.548 220.458 257.025 220.124 255.763 218.75C255.598 218.562 255.366 218.445 255.117 218.424C254.867 218.403 254.619 218.48 254.426 218.638C254.214 218.782 254.069 219.003 254.02 219.253C253.971 219.504 254.024 219.763 254.166 219.975C256.097 223.132 259.105 223.615 260.962 221.832C261.089 221.718 261.184 221.571 261.236 221.408C261.288 221.245 261.296 221.071 261.259 220.904C261.233 220.762 261.178 220.626 261.097 220.507C261.016 220.387 260.911 220.286 260.789 220.209C260.667 220.132 260.53 220.081 260.387 220.06C260.244 220.039 260.098 220.048 259.959 220.087Z" fill="#590942"/>
<path d="M258.882 220.235C259.246 220.238 259.609 220.188 259.959 220.087H260.293V221.015C260.293 221.015 259.736 221.424 257.656 221.201V220.681L254.017 219.455C254.019 219.302 254.056 219.152 254.127 219.016C254.198 218.881 254.301 218.764 254.426 218.676C254.426 218.666 254.43 218.656 254.437 218.649C254.443 218.642 254.453 218.638 254.463 218.638C254.615 218.534 254.798 218.482 254.983 218.49C255.02 218.453 255.094 218.49 255.131 218.49H255.465C255.503 218.527 255.54 218.527 255.54 218.564C255.54 218.601 255.614 218.564 255.614 218.601L255.763 218.713C255.982 218.965 256.232 219.189 256.505 219.381L257.025 219.715C257.267 219.864 257.53 219.977 257.805 220.05C258.152 220.169 258.515 220.232 258.882 220.235Z" fill="#DBE7FF"/>
<path d="M254.426 218.638C254.426 218.629 254.43 218.619 254.437 218.612C254.443 218.605 254.453 218.601 254.463 218.601C254.615 218.497 254.798 218.445 254.983 218.453C255.02 218.416 255.094 218.453 255.131 218.453H255.465C255.503 218.49 255.54 218.49 255.54 218.527C255.54 218.564 255.614 218.527 255.614 218.564L255.763 218.676C255.879 218.83 256.017 218.967 256.171 219.084L255.131 219.715L254.017 219.344C254.03 219.204 254.073 219.068 254.143 218.946C254.214 218.824 254.31 218.719 254.426 218.638Z" fill="#B5CDFF"/>
<path d="M249.338 209.837C250.675 206.866 253.014 206.272 257.025 207.238C257.833 207.418 258.609 207.719 259.328 208.129C259.55 209.317 257.731 209.689 254.351 208.612C255.465 210.617 253.163 214.182 249.338 209.837Z" fill="#201E2F"/>
<path d="M254.017 207.126L254.203 204.675C254.219 204.452 254.188 204.227 254.11 204.017C254.031 203.806 253.909 203.615 253.75 203.457C253.592 203.298 253.401 203.176 253.19 203.098C252.98 203.019 252.755 202.988 252.532 203.004C252.28 203.019 252.035 203.094 251.818 203.224C251.602 203.353 251.42 203.534 251.289 203.749C251.157 203.965 251.08 204.209 251.064 204.461C251.047 204.713 251.092 204.965 251.195 205.195L252.309 207.721L254.017 207.126Z" fill="#201E2F"/>
<path d="M244.362 220.235L245.476 220.644L247.815 219.121V221.015L249.747 222.538C250.152 222.871 250.486 223.283 250.729 223.749C250.971 224.215 251.117 224.725 251.158 225.249L251.232 226.771C254.054 229.111 257.916 229.853 261.296 227.477C261.845 227.11 262.334 226.659 262.744 226.14L263.895 226.548C263.895 226.548 261.556 236.389 257.656 238.172C253.757 239.954 251.046 238.172 251.046 238.172C246.961 224.283 248.15 221.684 238.049 225.694L237.566 222.872L244.362 220.235Z" fill="#EF6767"/>
<path d="M252.457 215.816L245.105 208.946L244.436 209.8L250.118 220.384L252.457 215.816Z" fill="#4D7AE8"/>
<path d="M249.784 214.256L246.887 212.214L249.115 216.225L248.707 214.665L249.784 214.256Z" fill="#3366E0"/>
</g>
<path d="M287.032 222.088V216.824H282.6L282.856 218.52H285.096V220.968C284.552 221.256 284.008 221.416 283.24 221.416C281.016 221.416 279.896 219.848 279.896 217.48C279.896 215.128 280.984 213.56 283.144 213.56C284.36 213.56 285.352 214.008 286.184 214.6L286.488 212.632C285.608 212.104 284.536 211.752 283.128 211.752C279.768 211.752 277.736 214.072 277.736 217.496C277.736 220.904 279.656 223.208 283.16 223.208C284.632 223.208 285.992 222.76 287.032 222.088ZM293.663 217.016L293.359 215.112C292.159 215.176 291.391 215.928 290.879 216.824L290.639 215.272H289.007V223H290.927V218.568C291.487 217.736 292.463 217.096 293.663 217.016ZM298.825 220.872C298.297 221.384 297.673 221.704 297.017 221.704C296.425 221.704 296.073 221.368 296.073 220.808C296.073 220.072 296.601 219.416 298.825 219.144V220.872ZM300.745 223V217.704C300.745 215.848 299.753 215.112 297.753 215.112C296.521 215.112 295.577 215.384 294.681 215.736L294.921 217.272C295.753 216.904 296.601 216.648 297.497 216.648C298.345 216.648 298.825 216.968 298.825 217.8V218.024C295.705 218.328 294.169 219.144 294.169 221.016C294.169 222.36 295.049 223.16 296.361 223.16C297.513 223.16 298.313 222.648 298.937 221.992L299.097 223H300.745ZM306.84 217.784C306.84 218.632 306.328 219.256 305.48 219.256C304.648 219.256 304.136 218.648 304.136 217.848C304.136 217 304.632 216.344 305.48 216.344C306.296 216.344 306.84 216.968 306.84 217.784ZM309.576 223.32C309.576 222.136 308.584 221.64 307 221.416L306.008 221.32C304.808 221.144 304.568 221.08 304.568 220.824C304.568 220.696 304.696 220.552 304.888 220.408C305.08 220.44 305.288 220.456 305.512 220.456C307.176 220.456 308.6 219.464 308.6 217.8C308.6 217.448 308.536 217.096 308.392 216.792L309.8 216.696L309.544 215.16L307.656 215.832C307.096 215.368 306.36 215.112 305.464 215.112C303.736 215.112 302.36 216.152 302.36 217.848C302.36 218.872 302.904 219.672 303.816 220.104C303.176 220.488 302.84 220.904 302.84 221.336C302.84 221.64 302.984 221.928 303.288 222.168C302.328 222.712 301.832 223.272 301.832 223.992C301.832 225.272 303.416 225.912 305.512 225.912C307.752 225.912 309.576 224.984 309.576 223.32ZM305.64 224.776C304.184 224.776 303.496 224.36 303.496 223.784C303.496 223.384 303.752 223.016 304.312 222.616C304.696 222.696 304.936 222.744 305.464 222.808L306.504 222.936C307.464 223.08 307.8 223.32 307.8 223.736C307.8 224.312 307.016 224.776 305.64 224.776ZM315.137 217.784C315.137 218.632 314.625 219.256 313.777 219.256C312.945 219.256 312.433 218.648 312.433 217.848C312.433 217 312.929 216.344 313.777 216.344C314.593 216.344 315.137 216.968 315.137 217.784ZM317.873 223.32C317.873 222.136 316.881 221.64 315.297 221.416L314.305 221.32C313.105 221.144 312.865 221.08 312.865 220.824C312.865 220.696 312.993 220.552 313.185 220.408C313.377 220.44 313.585 220.456 313.809 220.456C315.473 220.456 316.897 219.464 316.897 217.8C316.897 217.448 316.833 217.096 316.689 216.792L318.097 216.696L317.841 215.16L315.953 215.832C315.393 215.368 314.657 215.112 313.761 215.112C312.033 215.112 310.657 216.152 310.657 217.848C310.657 218.872 311.201 219.672 312.113 220.104C311.473 220.488 311.137 220.904 311.137 221.336C311.137 221.64 311.281 221.928 311.585 222.168C310.625 222.712 310.129 223.272 310.129 223.992C310.129 225.272 311.713 225.912 313.809 225.912C316.049 225.912 317.873 224.984 317.873 223.32ZM313.937 224.776C312.481 224.776 311.793 224.36 311.793 223.784C311.793 223.384 312.049 223.016 312.609 222.616C312.993 222.696 313.233 222.744 313.761 222.808L314.801 222.936C315.761 223.08 316.097 223.32 316.097 223.736C316.097 224.312 315.313 224.776 313.937 224.776ZM321.242 223V211.448L319.322 211.752V223H321.242ZM326.345 216.44C327.273 216.44 327.753 217.112 327.881 218.312H324.793C324.937 217.064 325.577 216.44 326.345 216.44ZM329.737 222.216L329.513 220.712C328.665 221.304 327.849 221.672 326.857 221.672C325.673 221.672 324.857 221.016 324.777 219.512H329.737C329.737 219.4 329.753 219.208 329.753 219.048C329.753 216.856 328.713 215.112 326.393 215.112C324.377 215.112 322.873 216.632 322.873 219.144C322.873 221.928 324.489 223.16 326.649 223.16C327.897 223.16 328.905 222.792 329.737 222.216Z" fill="white"/>
<path d="M287.032 349.088V343.824H282.6L282.856 345.52H285.096V347.968C284.552 348.256 284.008 348.416 283.24 348.416C281.016 348.416 279.896 346.848 279.896 344.48C279.896 342.128 280.984 340.56 283.144 340.56C284.36 340.56 285.352 341.008 286.184 341.6L286.488 339.632C285.608 339.104 284.536 338.752 283.128 338.752C279.768 338.752 277.736 341.072 277.736 344.496C277.736 347.904 279.656 350.208 283.16 350.208C284.632 350.208 285.992 349.76 287.032 349.088ZM293.663 344.016L293.359 342.112C292.159 342.176 291.391 342.928 290.879 343.824L290.639 342.272H289.007V350H290.927V345.568C291.487 344.736 292.463 344.096 293.663 344.016ZM298.825 347.872C298.297 348.384 297.673 348.704 297.017 348.704C296.425 348.704 296.073 348.368 296.073 347.808C296.073 347.072 296.601 346.416 298.825 346.144V347.872ZM300.745 350V344.704C300.745 342.848 299.753 342.112 297.753 342.112C296.521 342.112 295.577 342.384 294.681 342.736L294.921 344.272C295.753 343.904 296.601 343.648 297.497 343.648C298.345 343.648 298.825 343.968 298.825 344.8V345.024C295.705 345.328 294.169 346.144 294.169 348.016C294.169 349.36 295.049 350.16 296.361 350.16C297.513 350.16 298.313 349.648 298.937 348.992L299.097 350H300.745ZM306.84 344.784C306.84 345.632 306.328 346.256 305.48 346.256C304.648 346.256 304.136 345.648 304.136 344.848C304.136 344 304.632 343.344 305.48 343.344C306.296 343.344 306.84 343.968 306.84 344.784ZM309.576 350.32C309.576 349.136 308.584 348.64 307 348.416L306.008 348.32C304.808 348.144 304.568 348.08 304.568 347.824C304.568 347.696 304.696 347.552 304.888 347.408C305.08 347.44 305.288 347.456 305.512 347.456C307.176 347.456 308.6 346.464 308.6 344.8C308.6 344.448 308.536 344.096 308.392 343.792L309.8 343.696L309.544 342.16L307.656 342.832C307.096 342.368 306.36 342.112 305.464 342.112C303.736 342.112 302.36 343.152 302.36 344.848C302.36 345.872 302.904 346.672 303.816 347.104C303.176 347.488 302.84 347.904 302.84 348.336C302.84 348.64 302.984 348.928 303.288 349.168C302.328 349.712 301.832 350.272 301.832 350.992C301.832 352.272 303.416 352.912 305.512 352.912C307.752 352.912 309.576 351.984 309.576 350.32ZM305.64 351.776C304.184 351.776 303.496 351.36 303.496 350.784C303.496 350.384 303.752 350.016 304.312 349.616C304.696 349.696 304.936 349.744 305.464 349.808L306.504 349.936C307.464 350.08 307.8 350.32 307.8 350.736C307.8 351.312 307.016 351.776 305.64 351.776ZM315.137 344.784C315.137 345.632 314.625 346.256 313.777 346.256C312.945 346.256 312.433 345.648 312.433 344.848C312.433 344 312.929 343.344 313.777 343.344C314.593 343.344 315.137 343.968 315.137 344.784ZM317.873 350.32C317.873 349.136 316.881 348.64 315.297 348.416L314.305 348.32C313.105 348.144 312.865 348.08 312.865 347.824C312.865 347.696 312.993 347.552 313.185 347.408C313.377 347.44 313.585 347.456 313.809 347.456C315.473 347.456 316.897 346.464 316.897 344.8C316.897 344.448 316.833 344.096 316.689 343.792L318.097 343.696L317.841 342.16L315.953 342.832C315.393 342.368 314.657 342.112 313.761 342.112C312.033 342.112 310.657 343.152 310.657 344.848C310.657 345.872 311.201 346.672 312.113 347.104C311.473 347.488 311.137 347.904 311.137 348.336C311.137 348.64 311.281 348.928 311.585 349.168C310.625 349.712 310.129 350.272 310.129 350.992C310.129 352.272 311.713 352.912 313.809 352.912C316.049 352.912 317.873 351.984 317.873 350.32ZM313.937 351.776C312.481 351.776 311.793 351.36 311.793 350.784C311.793 350.384 312.049 350.016 312.609 349.616C312.993 349.696 313.233 349.744 313.761 349.808L314.801 349.936C315.761 350.08 316.097 350.32 316.097 350.736C316.097 351.312 315.313 351.776 313.937 351.776ZM321.242 350V338.448L319.322 338.752V350H321.242ZM326.345 343.44C327.273 343.44 327.753 344.112 327.881 345.312H324.793C324.937 344.064 325.577 343.44 326.345 343.44ZM329.737 349.216L329.513 347.712C328.665 348.304 327.849 348.672 326.857 348.672C325.673 348.672 324.857 348.016 324.777 346.512H329.737C329.737 346.4 329.753 346.208 329.753 346.048C329.753 343.856 328.713 342.112 326.393 342.112C324.377 342.112 322.873 343.632 322.873 346.144C322.873 348.928 324.489 350.16 326.649 350.16C327.897 350.16 328.905 349.792 329.737 349.216Z" fill="#DCDDDE"/>
<path d="M278.168 132H280.28V127.936H281.224C283.752 127.936 285.448 126.736 285.448 124.352C285.448 122.128 283.928 120.96 281.4 120.96H278.168V132ZM283.368 124.4C283.368 125.664 282.568 126.224 281.208 126.224H280.28V122.656H281.288C282.648 122.656 283.368 123.248 283.368 124.4ZM293.459 132V126.432C293.459 124.992 292.691 124.112 291.251 124.112C290.227 124.112 289.427 124.656 288.787 125.248V120.448L286.867 120.752V132H288.787V126.784C289.347 126.192 289.955 125.808 290.547 125.808C291.251 125.808 291.539 126.272 291.539 126.944V132H293.459ZM297.574 121.888C297.574 121.232 297.062 120.768 296.438 120.768C295.798 120.768 295.286 121.232 295.286 121.888C295.286 122.528 295.798 122.976 296.438 122.976C297.062 122.976 297.574 122.528 297.574 121.888ZM297.382 132V124.272H295.462V132H297.382ZM306.438 127.92C306.438 125.328 305.158 124.112 303.526 124.112C302.549 124.112 301.83 124.624 301.334 125.136V120.448L299.414 120.752V131.584C300.374 131.904 301.382 132.096 302.582 132.096C304.886 132.096 306.438 130.768 306.438 127.92ZM304.502 128.032C304.502 129.792 303.766 130.528 302.549 130.528C302.006 130.528 301.734 130.464 301.334 130.32V126.816C301.814 126.24 302.39 125.808 303.03 125.808C303.894 125.808 304.502 126.544 304.502 128.032ZM310.199 121.888C310.199 121.232 309.687 120.768 309.063 120.768C308.423 120.768 307.911 121.232 307.911 121.888C307.911 122.528 308.423 122.976 309.063 122.976C309.687 122.976 310.199 122.528 310.199 121.888ZM310.007 132V124.272H308.087V132H310.007Z" fill="#DCDDDE"/>
<path d="M252.52 58.06L252.16 55.74C251.1 56.44 249.96 56.94 248.66 56.94C246.18 56.94 244.62 55.1 244.62 52.1C244.62 49.12 246.12 47.24 248.62 47.24C249.96 47.24 251.02 47.78 251.92 48.46L252.3 45.96C251.28 45.32 250.08 44.96 248.52 44.96C244.5 44.96 241.92 47.84 241.92 52.12C241.92 56.42 244.44 59.24 248.44 59.24C250.02 59.24 251.44 58.76 252.52 58.06ZM262.988 54.16C262.988 51.02 261.068 49.14 258.428 49.14C255.808 49.14 253.888 51.04 253.888 54.18C253.888 57.32 255.788 59.2 258.408 59.2C261.048 59.2 262.988 57.3 262.988 54.16ZM260.648 54.18C260.648 55.98 259.888 57.24 258.408 57.24C257.008 57.24 256.228 55.94 256.228 54.16C256.228 52.38 256.988 51.1 258.408 51.1C259.848 51.1 260.648 52.4 260.648 54.18ZM270.215 56.34C269.555 56.98 268.775 57.38 267.955 57.38C267.215 57.38 266.775 56.96 266.775 56.26C266.775 55.34 267.435 54.52 270.215 54.18V56.34ZM272.615 59V52.38C272.615 50.06 271.375 49.14 268.875 49.14C267.335 49.14 266.155 49.48 265.035 49.92L265.335 51.84C266.375 51.38 267.435 51.06 268.555 51.06C269.615 51.06 270.215 51.46 270.215 52.5V52.78C266.315 53.16 264.395 54.18 264.395 56.52C264.395 58.2 265.495 59.2 267.135 59.2C268.575 59.2 269.575 58.56 270.355 57.74L270.555 59H272.615ZM282.273 58.26L281.953 56.2C281.073 56.88 280.253 57.12 279.413 57.12C278.013 57.12 276.913 56.16 276.913 54.16C276.913 52.24 277.913 51.22 279.333 51.22C280.293 51.22 281.053 51.54 281.833 52.12L282.173 49.96C281.473 49.52 280.473 49.14 279.213 49.14C276.593 49.14 274.493 50.86 274.493 54.22C274.493 57.38 276.393 59.18 279.073 59.18C280.353 59.18 281.353 58.88 282.273 58.26ZM292.433 59V52.04C292.433 50.24 291.473 49.14 289.673 49.14C288.393 49.14 287.393 49.82 286.593 50.56V44.56L284.193 44.94V59H286.593V52.48C287.293 51.74 288.053 51.26 288.793 51.26C289.673 51.26 290.033 51.84 290.033 52.68V59H292.433Z" fill="#F7E5BC"/>
<path d="M250.86 182.06C250.86 179.92 249.82 178.94 246.98 177.78C245.06 176.98 244.62 176.56 244.62 175.68C244.62 174.84 245.2 174.2 246.52 174.2C247.6 174.2 248.78 174.62 249.78 175.28L250.18 172.88C249.18 172.36 248.1 172.04 246.54 172.04C243.96 172.04 242.08 173.46 242.08 175.9C242.08 178.04 243.16 178.92 245.84 180.02C247.84 180.88 248.32 181.3 248.32 182.32C248.32 183.4 247.48 184 246.26 184C244.88 184 243.44 183.46 242.28 182.78L241.88 185.18C243.1 185.78 244.54 186.16 246.22 186.16C248.88 186.16 250.86 184.76 250.86 182.06ZM258.084 186L257.784 183.98C257.564 184.04 257.304 184.06 257.024 184.06C256.104 184.06 255.764 183.64 255.764 182.86V178.3H258.024L257.724 176.34H255.764V172.92L253.384 173.28V176.34H252.024V178.3H253.384V183.26C253.384 185.46 254.664 186.16 256.564 186.16C257.264 186.16 257.704 186.08 258.084 186ZM259.836 176.34V183.28C259.836 185.1 260.776 186.2 262.596 186.2C263.876 186.2 264.916 185.5 265.816 184.64L266.036 186H268.076V176.34H265.676V182.86C264.976 183.58 264.216 184.06 263.476 184.06C262.596 184.06 262.236 183.5 262.236 182.66V176.34H259.836ZM272.461 181.3C272.461 179.18 273.361 178.16 274.621 178.16C275.441 178.16 275.901 178.3 276.501 178.58V182.72C275.861 183.54 275.181 184.06 274.301 184.06C273.241 184.06 272.461 183.18 272.461 181.3ZM270.041 181.44C270.041 184.7 271.661 186.2 273.681 186.2C275.021 186.2 275.961 185.48 276.641 184.66L276.841 186H278.901V171.56L276.501 171.94V176.6C275.921 176.4 275.181 176.24 274.261 176.24C272.021 176.24 270.041 177.84 270.041 181.44ZM285.181 177.8C286.341 177.8 286.941 178.64 287.101 180.14H283.241C283.421 178.58 284.221 177.8 285.181 177.8ZM289.421 185.02L289.141 183.14C288.081 183.88 287.061 184.34 285.821 184.34C284.341 184.34 283.321 183.52 283.221 181.64H289.421C289.421 181.5 289.441 181.26 289.441 181.06C289.441 178.32 288.141 176.14 285.241 176.14C282.721 176.14 280.841 178.04 280.841 181.18C280.841 184.66 282.861 186.2 285.561 186.2C287.121 186.2 288.381 185.74 289.421 185.02ZM299.62 186V179.04C299.62 177.24 298.66 176.14 296.86 176.14C295.56 176.14 294.54 176.84 293.64 177.7L293.42 176.34H291.38V186H293.78V179.48C294.48 178.74 295.24 178.26 295.98 178.26C296.86 178.26 297.22 178.84 297.22 179.68V186H299.62ZM307.225 186L306.925 183.98C306.705 184.04 306.445 184.06 306.165 184.06C305.245 184.06 304.905 183.64 304.905 182.86V178.3H307.165L306.865 176.34H304.905V172.92L302.525 173.28V176.34H301.165V178.3H302.525V183.26C302.525 185.46 303.805 186.16 305.705 186.16C306.405 186.16 306.845 186.08 307.225 186ZM321.154 186L320.794 183.64H316.194V172.2H313.534V186H321.154ZM326.392 177.8C327.552 177.8 328.152 178.64 328.312 180.14H324.452C324.632 178.58 325.432 177.8 326.392 177.8ZM330.632 185.02L330.352 183.14C329.292 183.88 328.272 184.34 327.032 184.34C325.552 184.34 324.532 183.52 324.432 181.64H330.632C330.632 181.5 330.652 181.26 330.652 181.06C330.652 178.32 329.352 176.14 326.452 176.14C323.932 176.14 322.052 178.04 322.052 181.18C322.052 184.66 324.072 186.2 326.772 186.2C328.332 186.2 329.592 185.74 330.632 185.02ZM337.871 183.34C337.211 183.98 336.431 184.38 335.611 184.38C334.871 184.38 334.431 183.96 334.431 183.26C334.431 182.34 335.091 181.52 337.871 181.18V183.34ZM340.271 186V179.38C340.271 177.06 339.031 176.14 336.531 176.14C334.991 176.14 333.811 176.48 332.691 176.92L332.991 178.84C334.031 178.38 335.091 178.06 336.211 178.06C337.271 178.06 337.871 178.46 337.871 179.5V179.78C333.971 180.16 332.051 181.18 332.051 183.52C332.051 185.2 333.151 186.2 334.791 186.2C336.231 186.2 337.231 185.56 338.011 184.74L338.211 186H340.271ZM344.59 181.3C344.59 179.18 345.49 178.16 346.75 178.16C347.57 178.16 348.03 178.3 348.63 178.58V182.72C347.99 183.54 347.31 184.06 346.43 184.06C345.37 184.06 344.59 183.18 344.59 181.3ZM342.17 181.44C342.17 184.7 343.79 186.2 345.81 186.2C347.15 186.2 348.09 185.48 348.77 184.66L348.97 186H351.03V171.56L348.63 171.94V176.6C348.05 176.4 347.31 176.24 346.39 176.24C344.15 176.24 342.17 177.84 342.17 181.44Z" fill="#BED3FF"/>
<path d="M251.82 313.14L254.48 312.66L249.42 299.14H246.6L241.42 313H244.08L245.28 309.5H250.52L251.82 313.14ZM247.9 302L249.76 307.34H246.02L247.9 302ZM264.366 313V306.04C264.366 304.24 263.406 303.14 261.606 303.14C260.306 303.14 259.286 303.84 258.386 304.7L258.166 303.34H256.126V313H258.526V306.48C259.226 305.74 259.986 305.26 260.726 305.26C261.606 305.26 261.966 305.84 261.966 306.68V313H264.366ZM269.511 300.36C269.511 299.54 268.871 298.96 268.091 298.96C267.291 298.96 266.651 299.54 266.651 300.36C266.651 301.16 267.291 301.72 268.091 301.72C268.871 301.72 269.511 301.16 269.511 300.36ZM269.271 313V303.34H266.871V313H269.271ZM285.67 313V306.04C285.67 304.24 284.77 303.14 282.95 303.14C281.65 303.14 280.59 303.84 279.73 304.7C279.37 303.76 278.63 303.14 277.25 303.14C275.95 303.14 274.97 303.84 274.07 304.7L273.85 303.34H271.81V313H274.21V306.46C274.91 305.74 275.61 305.26 276.35 305.26C277.23 305.26 277.55 305.84 277.55 306.68V313H279.95V306.46C280.65 305.74 281.35 305.26 282.09 305.26C282.97 305.26 283.27 305.84 283.27 306.68V313H285.67ZM293.359 310.34C292.699 310.98 291.919 311.38 291.099 311.38C290.359 311.38 289.919 310.96 289.919 310.26C289.919 309.34 290.579 308.52 293.359 308.18V310.34ZM295.759 313V306.38C295.759 304.06 294.519 303.14 292.019 303.14C290.479 303.14 289.299 303.48 288.179 303.92L288.479 305.84C289.519 305.38 290.579 305.06 291.699 305.06C292.759 305.06 293.359 305.46 293.359 306.5V306.78C289.459 307.16 287.539 308.18 287.539 310.52C287.539 312.2 288.639 313.2 290.279 313.2C291.719 313.2 292.719 312.56 293.499 311.74L293.699 313H295.759ZM300.638 313V298.56L298.238 298.94V313H300.638ZM317.754 312.06L317.394 309.74C316.334 310.44 315.194 310.94 313.894 310.94C311.414 310.94 309.854 309.1 309.854 306.1C309.854 303.12 311.354 301.24 313.854 301.24C315.194 301.24 316.254 301.78 317.154 302.46L317.534 299.96C316.514 299.32 315.314 298.96 313.754 298.96C309.734 298.96 307.154 301.84 307.154 306.12C307.154 310.42 309.674 313.24 313.674 313.24C315.254 313.24 316.674 312.76 317.754 312.06ZM325.599 305.52L325.219 303.14C323.719 303.22 322.759 304.16 322.119 305.28L321.819 303.34H319.779V313H322.179V307.46C322.879 306.42 324.099 305.62 325.599 305.52ZM335.468 308.16C335.468 305.02 333.548 303.14 330.908 303.14C328.288 303.14 326.368 305.04 326.368 308.18C326.368 311.32 328.268 313.2 330.888 313.2C333.528 313.2 335.468 311.3 335.468 308.16ZM333.128 308.18C333.128 309.98 332.368 311.24 330.888 311.24C329.488 311.24 328.708 309.94 328.708 308.16C328.708 306.38 329.468 305.1 330.888 305.1C332.328 305.1 333.128 306.4 333.128 308.18ZM344.575 310.16C344.575 308.34 343.595 307.66 341.095 307.02C339.655 306.64 339.295 306.34 339.295 305.82C339.295 305.3 339.735 304.94 340.635 304.94C341.595 304.94 342.735 305.28 343.695 305.82L344.015 303.82C343.055 303.4 341.895 303.14 340.635 303.14C338.395 303.14 337.075 304.32 337.075 306C337.075 307.76 338.055 308.44 340.395 309.04C341.935 309.42 342.355 309.7 342.355 310.38C342.355 311.02 341.795 311.4 340.755 311.4C339.555 311.4 338.275 310.94 337.235 310.26L336.915 312.26C337.835 312.76 339.275 313.2 340.675 313.2C343.215 313.2 344.575 312.06 344.575 310.16ZM353.56 310.16C353.56 308.34 352.58 307.66 350.08 307.02C348.64 306.64 348.28 306.34 348.28 305.82C348.28 305.3 348.72 304.94 349.62 304.94C350.58 304.94 351.72 305.28 352.68 305.82L353 303.82C352.04 303.4 350.88 303.14 349.62 303.14C347.38 303.14 346.06 304.32 346.06 306C346.06 307.76 347.04 308.44 349.38 309.04C350.92 309.42 351.34 309.7 351.34 310.38C351.34 311.02 350.78 311.4 349.74 311.4C348.54 311.4 347.26 310.94 346.22 310.26L345.9 312.26C346.82 312.76 348.26 313.2 349.66 313.2C352.2 313.2 353.56 312.06 353.56 310.16ZM358.202 300.36C358.202 299.54 357.562 298.96 356.782 298.96C355.982 298.96 355.342 299.54 355.342 300.36C355.342 301.16 355.982 301.72 356.782 301.72C357.562 301.72 358.202 301.16 358.202 300.36ZM357.962 313V303.34H355.562V313H357.962ZM368.741 313V306.04C368.741 304.24 367.781 303.14 365.981 303.14C364.681 303.14 363.661 303.84 362.761 304.7L362.541 303.34H360.501V313H362.901V306.48C363.601 305.74 364.361 305.26 365.101 305.26C365.981 305.26 366.341 305.84 366.341 306.68V313H368.741ZM376.386 306.48C376.386 307.54 375.746 308.32 374.686 308.32C373.646 308.32 373.006 307.56 373.006 306.56C373.006 305.5 373.626 304.68 374.686 304.68C375.706 304.68 376.386 305.46 376.386 306.48ZM379.806 313.4C379.806 311.92 378.566 311.3 376.586 311.02L375.346 310.9C373.846 310.68 373.546 310.6 373.546 310.28C373.546 310.12 373.706 309.94 373.946 309.76C374.186 309.8 374.446 309.82 374.726 309.82C376.806 309.82 378.586 308.58 378.586 306.5C378.586 306.06 378.506 305.62 378.326 305.24L380.086 305.12L379.766 303.2L377.406 304.04C376.706 303.46 375.786 303.14 374.666 303.14C372.506 303.14 370.786 304.44 370.786 306.56C370.786 307.84 371.466 308.84 372.606 309.38C371.806 309.86 371.386 310.38 371.386 310.92C371.386 311.3 371.566 311.66 371.946 311.96C370.746 312.64 370.126 313.34 370.126 314.24C370.126 315.84 372.106 316.64 374.726 316.64C377.526 316.64 379.806 315.48 379.806 313.4ZM374.886 315.22C373.066 315.22 372.206 314.7 372.206 313.98C372.206 313.48 372.526 313.02 373.226 312.52C373.706 312.62 374.006 312.68 374.666 312.76L375.966 312.92C377.166 313.1 377.586 313.4 377.586 313.92C377.586 314.64 376.606 315.22 374.886 315.22Z" fill="#ED988D"/>
<path d="M534.475 37.375L528.075 34.575C527.975 34.575 527.975 34.375 528.075 34.375L534.475 31.475H534.575L537.375 25.075C537.375 24.975 537.575 24.975 537.575 25.075L540.475 31.475L546.875 34.375C546.975 34.375 546.975 34.575 546.875 34.575L540.475 37.375L537.575 43.775H537.375L534.575 37.375H534.475Z" fill="#FDD2F8"/>
<rect x="397" y="121" width="216" height="297" rx="8" fill="#292841"/>
<path d="M397 129C397 124.582 400.582 121 405 121H605C609.418 121 613 124.582 613 129V305H397V129Z" fill="#1C1B29"/>
<path d="M466.032 276.088V270.824H461.6L461.856 272.52H464.096V274.968C463.552 275.256 463.008 275.416 462.24 275.416C460.016 275.416 458.896 273.848 458.896 271.48C458.896 269.128 459.984 267.56 462.144 267.56C463.36 267.56 464.352 268.008 465.184 268.6L465.488 266.632C464.608 266.104 463.536 265.752 462.128 265.752C458.768 265.752 456.736 268.072 456.736 271.496C456.736 274.904 458.656 277.208 462.16 277.208C463.632 277.208 464.992 276.76 466.032 276.088ZM472.663 271.016L472.359 269.112C471.159 269.176 470.391 269.928 469.879 270.824L469.639 269.272H468.007V277H469.927V272.568C470.487 271.736 471.463 271.096 472.663 271.016ZM477.825 274.872C477.297 275.384 476.673 275.704 476.017 275.704C475.425 275.704 475.073 275.368 475.073 274.808C475.073 274.072 475.601 273.416 477.825 273.144V274.872ZM479.745 277V271.704C479.745 269.848 478.753 269.112 476.753 269.112C475.521 269.112 474.577 269.384 473.681 269.736L473.921 271.272C474.753 270.904 475.601 270.648 476.497 270.648C477.345 270.648 477.825 270.968 477.825 271.8V272.024C474.705 272.328 473.169 273.144 473.169 275.016C473.169 276.36 474.049 277.16 475.361 277.16C476.513 277.16 477.313 276.648 477.937 275.992L478.097 277H479.745ZM485.84 271.784C485.84 272.632 485.328 273.256 484.48 273.256C483.648 273.256 483.136 272.648 483.136 271.848C483.136 271 483.632 270.344 484.48 270.344C485.296 270.344 485.84 270.968 485.84 271.784ZM488.576 277.32C488.576 276.136 487.584 275.64 486 275.416L485.008 275.32C483.808 275.144 483.568 275.08 483.568 274.824C483.568 274.696 483.696 274.552 483.888 274.408C484.08 274.44 484.288 274.456 484.512 274.456C486.176 274.456 487.6 273.464 487.6 271.8C487.6 271.448 487.536 271.096 487.392 270.792L488.8 270.696L488.544 269.16L486.656 269.832C486.096 269.368 485.36 269.112 484.464 269.112C482.736 269.112 481.36 270.152 481.36 271.848C481.36 272.872 481.904 273.672 482.816 274.104C482.176 274.488 481.84 274.904 481.84 275.336C481.84 275.64 481.984 275.928 482.288 276.168C481.328 276.712 480.832 277.272 480.832 277.992C480.832 279.272 482.416 279.912 484.512 279.912C486.752 279.912 488.576 278.984 488.576 277.32ZM484.64 278.776C483.184 278.776 482.496 278.36 482.496 277.784C482.496 277.384 482.752 277.016 483.312 276.616C483.696 276.696 483.936 276.744 484.464 276.808L485.504 276.936C486.464 277.08 486.8 277.32 486.8 277.736C486.8 278.312 486.016 278.776 484.64 278.776ZM494.137 271.784C494.137 272.632 493.625 273.256 492.777 273.256C491.945 273.256 491.433 272.648 491.433 271.848C491.433 271 491.929 270.344 492.777 270.344C493.593 270.344 494.137 270.968 494.137 271.784ZM496.873 277.32C496.873 276.136 495.881 275.64 494.297 275.416L493.305 275.32C492.105 275.144 491.865 275.08 491.865 274.824C491.865 274.696 491.993 274.552 492.185 274.408C492.377 274.44 492.585 274.456 492.809 274.456C494.473 274.456 495.897 273.464 495.897 271.8C495.897 271.448 495.833 271.096 495.689 270.792L497.097 270.696L496.841 269.16L494.953 269.832C494.393 269.368 493.657 269.112 492.761 269.112C491.033 269.112 489.657 270.152 489.657 271.848C489.657 272.872 490.201 273.672 491.113 274.104C490.473 274.488 490.137 274.904 490.137 275.336C490.137 275.64 490.281 275.928 490.585 276.168C489.625 276.712 489.129 277.272 489.129 277.992C489.129 279.272 490.713 279.912 492.809 279.912C495.049 279.912 496.873 278.984 496.873 277.32ZM492.937 278.776C491.481 278.776 490.793 278.36 490.793 277.784C490.793 277.384 491.049 277.016 491.609 276.616C491.993 276.696 492.233 276.744 492.761 276.808L493.801 276.936C494.761 277.08 495.097 277.32 495.097 277.736C495.097 278.312 494.313 278.776 492.937 278.776ZM500.242 277V265.448L498.322 265.752V277H500.242ZM505.345 270.44C506.273 270.44 506.753 271.112 506.881 272.312H503.793C503.937 271.064 504.577 270.44 505.345 270.44ZM508.737 276.216L508.513 274.712C507.665 275.304 506.849 275.672 505.857 275.672C504.673 275.672 503.857 275.016 503.777 273.512H508.737C508.737 273.4 508.753 273.208 508.753 273.048C508.753 270.856 507.713 269.112 505.393 269.112C503.377 269.112 501.873 270.632 501.873 273.144C501.873 275.928 503.489 277.16 505.649 277.16C506.897 277.16 507.905 276.792 508.737 276.216ZM513.232 272.904L513.632 270.28H516.096L515.68 272.904H513.232ZM515.008 277.032H516.352L516.752 274.488H519.072L518.816 272.872H517.008L517.408 270.312H519.36V268.696H517.664L518.032 266.344L516.752 266.056L516.336 268.696H513.904L514.304 266.152H512.976L512.576 268.696H510.24L510.512 270.312H512.32L511.904 272.872H509.952V274.488H511.648L511.28 276.84L512.56 277.128L512.976 274.488H515.424L515.008 277.032ZM520.672 277H528.016L527.76 275.304H523.248L525.856 272.696C527.184 271.384 527.824 270.472 527.824 269.064C527.824 267.176 526.512 265.992 524.336 265.992C522.912 265.992 521.792 266.488 520.944 267.128L521.2 268.968C522.08 268.264 523.056 267.768 524.112 267.768C525.184 267.768 525.792 268.28 525.792 269.272C525.792 270.056 525.376 270.664 524.544 271.544L520.672 275.496V277ZM533.312 277.208C535.776 277.208 537.296 275.848 537.296 274.152C537.296 272.728 536.576 271.928 535.232 271.288C536.256 270.68 536.944 269.832 536.944 268.744C536.944 267.128 535.616 265.976 533.376 265.976C531.248 265.976 529.712 267.08 529.712 268.808C529.712 269.928 530.256 270.728 531.392 271.336C530.128 272.024 529.328 273 529.328 274.2C529.328 275.832 530.704 277.208 533.312 277.208ZM531.6 268.776C531.6 268.008 532.272 267.416 533.312 267.416C534.384 267.416 535.056 268.008 535.056 268.84C535.056 269.576 534.544 270.184 533.728 270.664C532.16 270.056 531.6 269.592 531.6 268.776ZM533.344 275.704C532.128 275.704 531.248 275.016 531.248 274.056C531.248 273.208 531.904 272.488 532.848 271.992C534.736 272.696 535.344 273.144 535.344 274.136C535.344 275.032 534.528 275.704 533.344 275.704ZM541.4 277.112L545.576 267.768V266.184H538.184L538.44 267.944H543.4L539.432 276.728L541.4 277.112ZM550.074 277.208C552.426 277.208 554.042 276.008 554.042 274.008C554.042 272.552 553.258 271.752 551.898 271.352C553.05 270.952 553.85 270.2 553.85 268.808C553.85 267.24 552.65 265.976 550.234 265.976C548.842 265.976 547.754 266.376 546.922 266.968L547.178 268.648C547.994 268.056 548.954 267.688 550.01 267.688C551.21 267.688 551.802 268.232 551.802 269.032C551.802 270.008 551.082 270.568 549.482 270.568H548.506L548.778 272.232H549.482C551.274 272.232 551.994 272.856 551.994 273.944C551.994 274.952 551.226 275.496 549.994 275.496C548.89 275.496 547.93 275.176 547.034 274.616L546.746 276.36C547.61 276.872 548.81 277.208 550.074 277.208Z" fill="#99AAB5"/>
<mask id="mask4" mask-type="alpha" maskUnits="userSpaceOnUse" x="452" y="139" width="108" height="108">
<circle cx="506" cy="193" r="54" fill="#C4C4C4"/>
</mask>
<g mask="url(#mask4)">
<circle cx="506" cy="193" r="54" fill="#FFB869"/>
<path d="M478.288 210.635C484.591 232.551 509.944 247.734 530.284 233.41C550.623 219.086 530.427 189.723 530.427 189.723C530.427 189.723 541.456 161.935 513.811 155.346C486.166 148.757 479.291 160.789 478.288 210.635Z" fill="#4D7AE8"/>
<path d="M519.254 194.593C516.169 194.593 513.668 191.258 513.668 187.145C513.668 183.031 516.169 179.696 519.254 179.696C522.34 179.696 524.841 183.031 524.841 187.145C524.841 191.258 522.34 194.593 519.254 194.593Z" fill="#DBE7FF"/>
<path d="M521.649 192.8C520.86 192.747 520.304 191.487 520.406 189.988C520.508 188.488 521.231 187.316 522.02 187.37C522.81 187.424 523.367 188.683 523.264 190.182C523.162 191.682 522.439 192.854 521.649 192.8Z" fill="#201E2F"/>
<path d="M525.7 173.25C525.329 172.138 524.619 171.17 523.667 170.485C522.715 169.799 521.573 169.43 520.4 169.43C519.227 169.43 518.084 169.799 517.134 170.485C516.182 171.17 515.471 172.138 515.1 173.25H525.7Z" fill="#201E2F"/>
<path d="M525.127 204.906C519.684 206.338 513.811 205.049 508.941 199.749C508.305 199.023 507.412 198.573 506.45 198.493C505.488 198.413 504.532 198.709 503.785 199.32C502.97 199.872 502.407 200.725 502.219 201.691C502.031 202.657 502.234 203.659 502.782 204.476C510.23 216.651 521.833 218.514 528.995 211.638C529.486 211.196 529.851 210.632 530.053 210.003C530.254 209.374 530.284 208.702 530.141 208.057C530.042 207.509 529.828 206.987 529.517 206.526C529.205 206.064 528.8 205.673 528.329 205.376C527.857 205.08 527.329 204.885 526.777 204.804C526.226 204.723 525.664 204.758 525.127 204.906Z" fill="#590942"/>
<path d="M520.973 205.479C522.378 205.491 523.778 205.298 525.127 204.906H526.416V208.487C526.416 208.487 524.268 210.062 516.246 209.203V207.198L502.209 202.471C502.214 201.881 502.36 201.3 502.634 200.777C502.908 200.254 503.302 199.803 503.785 199.463C503.785 199.425 503.8 199.388 503.827 199.362C503.853 199.335 503.89 199.32 503.928 199.32C504.517 198.916 505.22 198.716 505.933 198.747C506.076 198.604 506.363 198.747 506.506 198.747H507.795C507.938 198.89 508.082 198.89 508.082 199.033C508.082 199.176 508.368 199.033 508.368 199.176L508.941 199.606C509.789 200.577 510.751 201.443 511.806 202.184L513.811 203.473C514.745 204.049 515.759 204.483 516.819 204.763C518.157 205.223 519.559 205.465 520.973 205.479Z" fill="#DBE7FF"/>
<path d="M503.785 199.32C503.785 199.282 503.8 199.245 503.827 199.218C503.853 199.191 503.89 199.176 503.928 199.176C504.517 198.773 505.22 198.572 505.933 198.603C506.076 198.46 506.363 198.603 506.506 198.603H507.795C507.938 198.747 508.082 198.747 508.082 198.89C508.082 199.033 508.368 198.89 508.368 199.033L508.941 199.463C509.392 200.058 509.922 200.588 510.517 201.038L506.506 203.474L502.209 202.041C502.257 201.5 502.423 200.976 502.695 200.506C502.968 200.036 503.339 199.631 503.785 199.32Z" fill="#B5CDFF"/>
<path d="M484.161 165.372C489.318 153.913 498.342 151.621 513.811 155.346C516.927 156.041 519.92 157.2 522.692 158.783C523.552 163.367 516.533 164.799 503.498 160.645C507.795 168.38 498.915 182.131 484.161 165.372Z" fill="#201E2F"/>
<path d="M502.209 154.916L502.925 145.462C502.99 144.599 502.867 143.733 502.566 142.922C502.264 142.111 501.792 141.374 501.18 140.762C500.568 140.15 499.831 139.677 499.02 139.376C498.209 139.075 497.343 138.952 496.48 139.017C495.508 139.072 494.563 139.362 493.728 139.862C492.893 140.363 492.192 141.058 491.685 141.889C491.177 142.721 490.88 143.662 490.816 144.634C490.754 145.606 490.927 146.578 491.323 147.468L495.62 157.208L502.209 154.916Z" fill="#201E2F"/>
<path d="M464.967 205.479L469.265 207.055L478.288 201.182V208.487L485.737 214.36C487.301 215.646 488.59 217.236 489.525 219.032C490.461 220.829 491.023 222.796 491.18 224.816L491.466 230.689C502.352 239.713 517.249 242.577 530.284 233.41C532.404 231.994 534.289 230.254 535.87 228.254L540.31 229.829C540.31 229.829 531.286 267.788 516.246 274.663C501.207 281.539 490.75 274.663 490.75 274.663C474.994 221.092 479.578 211.065 440.617 226.535L438.755 215.649L464.967 205.479Z" fill="#EF6767"/>
<path d="M496.193 188.434L467.832 161.935L465.254 165.229L487.169 206.052L496.193 188.434Z" fill="#4D7AE8"/>
<path d="M485.88 182.418L474.707 174.539L483.302 190.009L481.726 183.993L485.88 182.418Z" fill="#3366E0"/>
</g>
<circle cx="547" cy="235" r="12" fill="#6ADBC6"/>
<path d="M420.174 334.098L422.134 333.748L419.516 329.954C420.72 329.534 421.476 328.652 421.476 327.238C421.476 325.362 420.174 324.34 418.018 324.34H415.022V334H416.87V330.304H417.654L420.174 334.098ZM419.656 327.336C419.656 328.344 418.942 328.89 417.794 328.89H416.856V325.824H417.878C419.04 325.824 419.656 326.37 419.656 327.336ZM428.927 330.612C428.927 328.414 427.583 327.098 425.735 327.098C423.901 327.098 422.557 328.428 422.557 330.626C422.557 332.824 423.887 334.14 425.721 334.14C427.569 334.14 428.927 332.81 428.927 330.612ZM427.289 330.626C427.289 331.886 426.757 332.768 425.721 332.768C424.741 332.768 424.195 331.858 424.195 330.612C424.195 329.366 424.727 328.47 425.721 328.47C426.729 328.47 427.289 329.38 427.289 330.626ZM432.04 334V323.892L430.36 324.158V334H432.04ZM436.505 328.26C437.317 328.26 437.737 328.848 437.849 329.898H435.147C435.273 328.806 435.833 328.26 436.505 328.26ZM439.473 333.314L439.277 331.998C438.535 332.516 437.821 332.838 436.953 332.838C435.917 332.838 435.203 332.264 435.133 330.948H439.473C439.473 330.85 439.487 330.682 439.487 330.542C439.487 328.624 438.577 327.098 436.547 327.098C434.783 327.098 433.467 328.428 433.467 330.626C433.467 333.062 434.881 334.14 436.771 334.14C437.863 334.14 438.745 333.818 439.473 333.314ZM445.856 332.012C445.856 330.738 445.17 330.262 443.42 329.814C442.412 329.548 442.16 329.338 442.16 328.974C442.16 328.61 442.468 328.358 443.098 328.358C443.77 328.358 444.568 328.596 445.24 328.974L445.464 327.574C444.792 327.28 443.98 327.098 443.098 327.098C441.53 327.098 440.606 327.924 440.606 329.1C440.606 330.332 441.292 330.808 442.93 331.228C444.008 331.494 444.302 331.69 444.302 332.166C444.302 332.614 443.91 332.88 443.182 332.88C442.342 332.88 441.446 332.558 440.718 332.082L440.494 333.482C441.138 333.832 442.146 334.14 443.126 334.14C444.904 334.14 445.856 333.342 445.856 332.012Z" fill="#B9BBBE"/>
<rect x="414" y="346" width="139" height="24" rx="12" fill="#ED988D" fill-opacity="0.2"/>
<circle cx="426" cy="358" r="8" fill="#ED988D"/>
<path d="M449.574 363.098L451.436 362.762L447.894 353.298H445.92L442.294 363H444.156L444.996 360.55H448.664L449.574 363.098ZM446.83 355.3L448.132 359.038H445.514L446.83 355.3ZM458.356 363V358.128C458.356 356.868 457.684 356.098 456.424 356.098C455.514 356.098 454.8 356.588 454.17 357.19L454.016 356.238H452.588V363H454.268V358.436C454.758 357.918 455.29 357.582 455.808 357.582C456.424 357.582 456.676 357.988 456.676 358.576V363H458.356ZM461.958 354.152C461.958 353.578 461.51 353.172 460.964 353.172C460.404 353.172 459.956 353.578 459.956 354.152C459.956 354.712 460.404 355.104 460.964 355.104C461.51 355.104 461.958 354.712 461.958 354.152ZM461.79 363V356.238H460.11V363H461.79ZM473.269 363V358.128C473.269 356.868 472.639 356.098 471.365 356.098C470.455 356.098 469.713 356.588 469.111 357.19C468.859 356.532 468.341 356.098 467.375 356.098C466.465 356.098 465.779 356.588 465.149 357.19L464.995 356.238H463.567V363H465.247V358.422C465.737 357.918 466.227 357.582 466.745 357.582C467.361 357.582 467.585 357.988 467.585 358.576V363H469.265V358.422C469.755 357.918 470.245 357.582 470.763 357.582C471.379 357.582 471.589 357.988 471.589 358.576V363H473.269ZM478.652 361.138C478.19 361.586 477.644 361.866 477.07 361.866C476.552 361.866 476.244 361.572 476.244 361.082C476.244 360.438 476.706 359.864 478.652 359.626V361.138ZM480.332 363V358.366C480.332 356.742 479.464 356.098 477.714 356.098C476.636 356.098 475.81 356.336 475.026 356.644L475.236 357.988C475.964 357.666 476.706 357.442 477.49 357.442C478.232 357.442 478.652 357.722 478.652 358.45V358.646C475.922 358.912 474.578 359.626 474.578 361.264C474.578 362.44 475.348 363.14 476.496 363.14C477.504 363.14 478.204 362.692 478.75 362.118L478.89 363H480.332ZM483.747 363V352.892L482.067 353.158V363H483.747ZM495.728 362.342L495.476 360.718C494.734 361.208 493.936 361.558 493.026 361.558C491.29 361.558 490.198 360.27 490.198 358.17C490.198 356.084 491.248 354.768 492.998 354.768C493.936 354.768 494.678 355.146 495.308 355.622L495.574 353.872C494.86 353.424 494.02 353.172 492.928 353.172C490.114 353.172 488.308 355.188 488.308 358.184C488.308 361.194 490.072 363.168 492.872 363.168C493.978 363.168 494.972 362.832 495.728 362.342ZM501.219 357.764L500.953 356.098C499.903 356.154 499.231 356.812 498.783 357.596L498.573 356.238H497.145V363H498.825V359.122C499.315 358.394 500.169 357.834 501.219 357.764ZM508.128 359.612C508.128 357.414 506.784 356.098 504.936 356.098C503.102 356.098 501.758 357.428 501.758 359.626C501.758 361.824 503.088 363.14 504.922 363.14C506.77 363.14 508.128 361.81 508.128 359.612ZM506.49 359.626C506.49 360.886 505.958 361.768 504.922 361.768C503.942 361.768 503.396 360.858 503.396 359.612C503.396 358.366 503.928 357.47 504.922 357.47C505.93 357.47 506.49 358.38 506.49 359.626ZM514.503 361.012C514.503 359.738 513.817 359.262 512.067 358.814C511.059 358.548 510.807 358.338 510.807 357.974C510.807 357.61 511.115 357.358 511.745 357.358C512.417 357.358 513.215 357.596 513.887 357.974L514.111 356.574C513.439 356.28 512.627 356.098 511.745 356.098C510.177 356.098 509.253 356.924 509.253 358.1C509.253 359.332 509.939 359.808 511.577 360.228C512.655 360.494 512.949 360.69 512.949 361.166C512.949 361.614 512.557 361.88 511.829 361.88C510.989 361.88 510.093 361.558 509.365 361.082L509.141 362.482C509.785 362.832 510.793 363.14 511.773 363.14C513.551 363.14 514.503 362.342 514.503 361.012ZM520.792 361.012C520.792 359.738 520.106 359.262 518.356 358.814C517.348 358.548 517.096 358.338 517.096 357.974C517.096 357.61 517.404 357.358 518.034 357.358C518.706 357.358 519.504 357.596 520.176 357.974L520.4 356.574C519.728 356.28 518.916 356.098 518.034 356.098C516.466 356.098 515.542 356.924 515.542 358.1C515.542 359.332 516.228 359.808 517.866 360.228C518.944 360.494 519.238 360.69 519.238 361.166C519.238 361.614 518.846 361.88 518.118 361.88C517.278 361.88 516.382 361.558 515.654 361.082L515.43 362.482C516.074 362.832 517.082 363.14 518.062 363.14C519.84 363.14 520.792 362.342 520.792 361.012ZM524.042 354.152C524.042 353.578 523.594 353.172 523.048 353.172C522.488 353.172 522.04 353.578 522.04 354.152C522.04 354.712 522.488 355.104 523.048 355.104C523.594 355.104 524.042 354.712 524.042 354.152ZM523.874 363V356.238H522.194V363H523.874ZM531.419 363V358.128C531.419 356.868 530.747 356.098 529.487 356.098C528.577 356.098 527.863 356.588 527.233 357.19L527.079 356.238H525.651V363H527.331V358.436C527.821 357.918 528.353 357.582 528.871 357.582C529.487 357.582 529.739 357.988 529.739 358.576V363H531.419ZM536.77 358.436C536.77 359.178 536.322 359.724 535.58 359.724C534.852 359.724 534.404 359.192 534.404 358.492C534.404 357.75 534.838 357.176 535.58 357.176C536.294 357.176 536.77 357.722 536.77 358.436ZM539.164 363.28C539.164 362.244 538.296 361.81 536.91 361.614L536.042 361.53C534.992 361.376 534.782 361.32 534.782 361.096C534.782 360.984 534.894 360.858 535.062 360.732C535.23 360.76 535.412 360.774 535.608 360.774C537.064 360.774 538.31 359.906 538.31 358.45C538.31 358.142 538.254 357.834 538.128 357.568L539.36 357.484L539.136 356.14L537.484 356.728C536.994 356.322 536.35 356.098 535.566 356.098C534.054 356.098 532.85 357.008 532.85 358.492C532.85 359.388 533.326 360.088 534.124 360.466C533.564 360.802 533.27 361.166 533.27 361.544C533.27 361.81 533.396 362.062 533.662 362.272C532.822 362.748 532.388 363.238 532.388 363.868C532.388 364.988 533.774 365.548 535.608 365.548C537.568 365.548 539.164 364.736 539.164 363.28ZM535.72 364.554C534.446 364.554 533.844 364.19 533.844 363.686C533.844 363.336 534.068 363.014 534.558 362.664C534.894 362.734 535.104 362.776 535.566 362.832L536.476 362.944C537.316 363.07 537.61 363.28 537.61 363.644C537.61 364.148 536.924 364.554 535.72 364.554Z" fill="white"/>
<rect x="415" y="378" width="120" height="24" rx="12" fill="#BED3FF" fill-opacity="0.22"/>
<circle cx="427" cy="390" r="8" fill="#BED3FF"/>
<path d="M449.902 392.242C449.902 390.744 449.174 390.058 447.186 389.246C445.842 388.686 445.534 388.392 445.534 387.776C445.534 387.188 445.94 386.74 446.864 386.74C447.62 386.74 448.446 387.034 449.146 387.496L449.426 385.816C448.726 385.452 447.97 385.228 446.878 385.228C445.072 385.228 443.756 386.222 443.756 387.93C443.756 389.428 444.512 390.044 446.388 390.814C447.788 391.416 448.124 391.71 448.124 392.424C448.124 393.18 447.536 393.6 446.682 393.6C445.716 393.6 444.708 393.222 443.896 392.746L443.616 394.426C444.47 394.846 445.478 395.112 446.654 395.112C448.516 395.112 449.902 394.132 449.902 392.242ZM454.959 395L454.749 393.586C454.595 393.628 454.413 393.642 454.217 393.642C453.573 393.642 453.335 393.348 453.335 392.802V389.61H454.917L454.707 388.238H453.335V385.844L451.669 386.096V388.238H450.717V389.61H451.669V393.082C451.669 394.622 452.565 395.112 453.895 395.112C454.385 395.112 454.693 395.056 454.959 395ZM456.185 388.238V393.096C456.185 394.37 456.843 395.14 458.117 395.14C459.013 395.14 459.741 394.65 460.371 394.048L460.525 395H461.953V388.238H460.273V392.802C459.783 393.306 459.251 393.642 458.733 393.642C458.117 393.642 457.865 393.25 457.865 392.662V388.238H456.185ZM465.023 391.71C465.023 390.226 465.653 389.512 466.535 389.512C467.109 389.512 467.431 389.61 467.851 389.806V392.704C467.403 393.278 466.927 393.642 466.311 393.642C465.569 393.642 465.023 393.026 465.023 391.71ZM463.329 391.808C463.329 394.09 464.463 395.14 465.877 395.14C466.815 395.14 467.473 394.636 467.949 394.062L468.089 395H469.531V384.892L467.851 385.158V388.42C467.445 388.28 466.927 388.168 466.283 388.168C464.715 388.168 463.329 389.288 463.329 391.808ZM473.927 389.26C474.739 389.26 475.159 389.848 475.271 390.898H472.569C472.695 389.806 473.255 389.26 473.927 389.26ZM476.895 394.314L476.699 392.998C475.957 393.516 475.243 393.838 474.375 393.838C473.339 393.838 472.625 393.264 472.555 391.948H476.895C476.895 391.85 476.909 391.682 476.909 391.542C476.909 389.624 475.999 388.098 473.969 388.098C472.205 388.098 470.889 389.428 470.889 391.626C470.889 394.062 472.303 395.14 474.193 395.14C475.285 395.14 476.167 394.818 476.895 394.314ZM484.034 395V390.128C484.034 388.868 483.362 388.098 482.102 388.098C481.192 388.098 480.478 388.588 479.848 389.19L479.694 388.238H478.266V395H479.946V390.436C480.436 389.918 480.968 389.582 481.486 389.582C482.102 389.582 482.354 389.988 482.354 390.576V395H484.034ZM489.357 395L489.147 393.586C488.993 393.628 488.811 393.642 488.615 393.642C487.971 393.642 487.733 393.348 487.733 392.802V389.61H489.315L489.105 388.238H487.733V385.844L486.067 386.096V388.238H485.115V389.61H486.067V393.082C486.067 394.622 486.963 395.112 488.293 395.112C488.783 395.112 489.091 395.056 489.357 395ZM499.108 395L498.856 393.348H495.636V385.34H493.774V395H499.108ZM502.774 389.26C503.586 389.26 504.006 389.848 504.118 390.898H501.416C501.542 389.806 502.102 389.26 502.774 389.26ZM505.742 394.314L505.546 392.998C504.804 393.516 504.09 393.838 503.222 393.838C502.186 393.838 501.472 393.264 501.402 391.948H505.742C505.742 391.85 505.756 391.682 505.756 391.542C505.756 389.624 504.846 388.098 502.816 388.098C501.052 388.098 499.736 389.428 499.736 391.626C499.736 394.062 501.15 395.14 503.04 395.14C504.132 395.14 505.014 394.818 505.742 394.314ZM510.81 393.138C510.348 393.586 509.802 393.866 509.228 393.866C508.71 393.866 508.402 393.572 508.402 393.082C508.402 392.438 508.864 391.864 510.81 391.626V393.138ZM512.49 395V390.366C512.49 388.742 511.622 388.098 509.872 388.098C508.794 388.098 507.968 388.336 507.184 388.644L507.394 389.988C508.122 389.666 508.864 389.442 509.648 389.442C510.39 389.442 510.81 389.722 510.81 390.45V390.646C508.08 390.912 506.736 391.626 506.736 393.264C506.736 394.44 507.506 395.14 508.654 395.14C509.662 395.14 510.362 394.692 510.908 394.118L511.048 395H512.49ZM515.513 391.71C515.513 390.226 516.143 389.512 517.025 389.512C517.599 389.512 517.921 389.61 518.341 389.806V392.704C517.893 393.278 517.417 393.642 516.801 393.642C516.059 393.642 515.513 393.026 515.513 391.71ZM513.819 391.808C513.819 394.09 514.953 395.14 516.367 395.14C517.305 395.14 517.963 394.636 518.439 394.062L518.579 395H520.021V384.892L518.341 385.158V388.42C517.935 388.28 517.417 388.168 516.773 388.168C515.205 388.168 513.819 389.288 513.819 391.808Z" fill="white"/>
<path d="M147.892 186.328L160.216 165.946C160.368 165.695 160.613 165.515 160.898 165.445C161.182 165.374 161.483 165.42 161.734 165.572L166.206 168.276C166.457 168.428 166.637 168.673 166.708 168.958C166.778 169.242 166.732 169.543 166.58 169.794L154.256 190.176L147.892 186.328Z" fill="#9F90A8"/>
<path d="M150.47 181.084L157.77 185.484C157.863 185.536 157.944 185.606 158.009 185.689C158.075 185.773 158.123 185.869 158.151 185.971C158.178 186.074 158.186 186.181 158.172 186.286C158.158 186.391 158.124 186.492 158.07 186.584C128.97 244.584 95.7702 294.984 76.4702 316.684L71.6702 313.784C81.9702 286.684 111.27 233.884 149.27 181.284C149.33 181.185 149.41 181.1 149.506 181.035C149.602 180.97 149.71 180.927 149.824 180.907C149.938 180.888 150.055 180.894 150.167 180.925C150.278 180.955 150.382 181.01 150.47 181.084Z" fill="#433E6B"/>
<path d="M119.97 226.084L136.07 195.484C136.935 193.786 138.295 192.391 139.97 191.484L143.37 189.684C143.563 189.592 143.78 189.563 143.99 189.603C144.199 189.643 144.391 189.748 144.536 189.905C144.682 190.061 144.773 190.26 144.797 190.472C144.821 190.685 144.777 190.899 144.67 191.084L122.57 227.584C122.346 227.914 122.006 228.149 121.617 228.242C121.229 228.334 120.819 228.278 120.47 228.084C120.147 227.878 119.915 227.556 119.822 227.184C119.729 226.812 119.782 226.418 119.97 226.084Z" fill="#B4A3BE"/>
<path d="M203.37 305.884H50.1702C49.7377 305.893 49.3143 306.01 48.9384 306.225C48.5625 306.439 48.246 306.743 48.0176 307.111C47.7892 307.478 47.6561 307.897 47.6304 308.329C47.6046 308.761 47.6871 309.192 47.8702 309.584L48.6702 311.384L200.77 341.984L203.37 305.884Z" fill="#527FF7"/>
<path d="M212.17 311.384H219.57L249.37 437.484C249.446 437.777 249.454 438.083 249.395 438.379C249.335 438.675 249.209 438.954 249.026 439.195C248.843 439.435 248.608 439.631 248.339 439.768C248.069 439.905 247.772 439.979 247.47 439.984H242.57L212.17 311.384Z" fill="#4C65D4"/>
<path d="M189.37 311.384H212.17L242.57 439.984H158.97L189.37 311.384Z" fill="url(#paint3_linear)"/>
<path d="M205.77 356.984C206.77 413.884 200.77 439.984 200.77 439.984H180.17L192.47 372.184L205.77 356.984Z" fill="#FCCC7E"/>
<path d="M205.97 335.484C205.47 392.584 187.27 439.984 187.27 439.984H164.47L196.77 311.384H212.17L205.97 335.484Z" fill="#FCCC7E"/>
<path d="M200.87 335.484C203.37 403.884 231.07 439.984 231.07 439.984H242.57L212.17 311.384H196.77L200.87 335.484Z" fill="#FCCC7E"/>
<path d="M196.77 311.384H189.37L156.37 439.984H164.47C165.02 439.962 165.548 439.766 165.979 439.425C166.411 439.083 166.723 438.614 166.87 438.084L196.77 311.384Z" fill="#4C65D4"/>
<path d="M63.8702 222.784L71.5702 219.384C71.6233 219.384 71.6741 219.363 71.7116 219.325C71.7491 219.288 71.7702 219.237 71.7702 219.184C71.7702 219.131 71.7491 219.08 71.7116 219.043C71.6741 219.005 71.6233 218.984 71.5702 218.984L63.8702 215.584C63.8437 215.584 63.8183 215.573 63.7995 215.555C63.7808 215.536 63.7702 215.511 63.7702 215.484L60.2702 207.784C60.2702 207.584 60.0702 207.584 59.9702 207.784L56.5702 215.484H56.4702L48.6702 218.984C48.621 219.039 48.5938 219.11 48.5938 219.184C48.5938 219.258 48.621 219.329 48.6702 219.384L56.4702 222.784H56.5702L59.9702 230.584C60.0702 230.784 60.2702 230.784 60.2702 230.584L63.7702 222.884C63.7702 222.858 63.7808 222.832 63.7995 222.813C63.8183 222.795 63.8437 222.784 63.8702 222.784Z" fill="#FF7ABC"/>
<path d="M189.37 311.384H48.6702L19.0702 436.784C18.9802 437.163 18.9767 437.558 19.0599 437.939C19.1432 438.32 19.3111 438.678 19.5511 438.985C19.7912 439.292 20.0973 439.542 20.4468 439.715C20.7964 439.887 21.1803 439.98 21.5702 439.984H156.37C157.102 439.967 157.808 439.715 158.384 439.264C158.961 438.814 159.377 438.19 159.57 437.484L189.37 311.384Z" fill="#628BF7"/>
<path d="M218.07 305.884H190.87C190.429 305.877 189.994 305.981 189.604 306.189C189.215 306.396 188.885 306.699 188.645 307.069C188.405 307.439 188.263 307.864 188.232 308.304C188.202 308.744 188.284 309.184 188.47 309.584L189.37 311.384H219.57L220.47 309.584C220.657 309.184 220.739 308.744 220.708 308.304C220.678 307.864 220.536 307.439 220.296 307.069C220.056 306.699 219.726 306.396 219.336 306.189C218.947 305.981 218.511 305.877 218.07 305.884Z" fill="#4C65D4"/>
<path d="M196.77 311.384C200.77 318.684 208.17 318.684 212.17 311.384H196.77Z" fill="#1F1E41"/>
<path d="M237.07 439.984C216.07 394.884 210.17 362.984 208.57 328.084C208.57 328.084 214.27 385.584 237.07 439.984Z" fill="#F0AD60"/>
<path d="M200.47 360.184C199.87 408.184 194.07 439.984 194.07 439.984H185.57C185.57 439.984 191.27 424.284 200.47 360.184Z" fill="#EEA456"/>
<path d="M104.87 354.384C105.572 351.998 106.997 349.888 108.95 348.348C110.903 346.807 113.286 345.911 115.77 345.784H142.07C146.97 345.784 149.97 349.684 148.87 354.384L138.77 396.884C138.129 399.285 136.733 401.417 134.789 402.966C132.845 404.514 130.454 405.397 127.97 405.484H101.67C96.7702 405.484 93.7702 401.684 94.8702 396.884L104.87 354.384Z" fill="#8DADFC"/>
<path d="M131.07 350.784C131.287 350.794 131.498 350.851 131.691 350.951C131.883 351.05 132.052 351.19 132.185 351.362C132.318 351.533 132.412 351.73 132.462 351.942C132.511 352.153 132.514 352.372 132.47 352.584L121.37 399.384C121.322 399.72 121.153 400.026 120.896 400.247C120.638 400.468 120.309 400.588 119.97 400.584C119.735 400.593 119.5 400.546 119.286 400.447C119.072 400.348 118.884 400.2 118.738 400.015C118.592 399.829 118.492 399.612 118.445 399.381C118.399 399.15 118.407 398.911 118.47 398.684L129.57 351.984C129.657 351.649 129.85 351.35 130.12 351.134C130.391 350.918 130.724 350.795 131.07 350.784Z" fill="#628BF7"/>
<path d="M148.37 238.084L129.97 230.684H173.47L148.37 238.084Z" fill="#FFADD6"/>
<path d="M142.87 284.884L129.97 305.884H173.47L142.87 284.884Z" fill="#A63281"/>
<path d="M142.87 284.884L148.37 238.084L108.27 268.284L142.87 284.884Z" fill="#F06A9F"/>
<path d="M142.87 284.884L148.37 238.084L184.77 264.984L142.87 284.884Z" fill="#DB5191"/>
<path d="M129.97 230.684L148.37 238.084L108.27 268.284L129.97 230.684Z" fill="#FF82A6"/>
<path d="M108.27 268.284L142.87 284.884L129.97 305.884L108.27 268.284Z" fill="#D14590"/>
<path d="M142.87 284.884L184.77 264.984L173.47 305.884L142.87 284.884Z" fill="#BF3D8D"/>
<path d="M173.47 305.884L184.77 264.984L195.17 268.284L173.47 305.884Z" fill="#AB3582"/>
<path d="M173.47 230.684L148.37 238.084L184.77 264.984L173.47 230.684Z" fill="#E663A0"/>
<path d="M195.17 268.284L184.77 264.984L173.47 230.684L195.17 268.284Z" fill="#CF4E9D"/>
<path d="M397.976 387.29C401.976 383.99 402.976 378.39 402.976 378.39L395.576 384.09L397.976 387.29Z" fill="#2C9DA3"/>
<path d="M376.676 384.09C376.315 373.213 374.292 362.455 370.676 352.19C368.876 347.39 371.476 347.89 379.376 354.49C387.276 361.09 387.976 367.19 376.676 384.09Z" fill="#2C9DA3"/>
<path d="M378.776 386.19L384.876 392.29L402.976 378.39C403.054 378.317 403.114 378.227 403.152 378.128C403.19 378.028 403.205 377.921 403.195 377.815C403.186 377.709 403.152 377.607 403.097 377.516C403.041 377.425 402.966 377.347 402.876 377.29L395.776 373.39L385.976 366.29C385.634 366.047 385.242 365.885 384.829 365.814C384.416 365.744 383.992 365.767 383.589 365.882C383.185 365.997 382.813 366.202 382.5 366.48C382.186 366.758 381.939 367.103 381.776 367.49C379.276 374.29 377.776 379.69 378.776 386.19Z" fill="#4CCCB5"/>
<path d="M395.976 384.79C410.176 381.09 413.876 390.69 412.776 399.79C411.676 408.89 408.176 401.29 404.776 394.19L395.976 384.79Z" fill="#4CCCB5"/>
<path d="M368.276 399.59C366.525 398.242 365.305 396.321 364.829 394.163C364.354 392.005 364.654 389.748 365.676 387.79L374.276 371.29L394.076 386.59L380.376 399.09C378.742 400.586 376.632 401.456 374.418 401.548C372.204 401.639 370.029 400.946 368.276 399.59Z" fill="#4CCCB5"/>
<path d="M384.376 385.79H384.276C383.239 386.845 382.061 387.754 380.776 388.49C379.178 389.37 377.505 390.106 375.776 390.69L376.376 386.39L377.076 381.29L371.676 384.19L368.376 385.99V382.69L374.576 369.19L390.176 374.49C392.576 375.79 387.776 381.99 384.376 385.79Z" fill="#2C9DA3"/>
<path d="M309.176 411.99L316.976 408.59C317.026 408.535 317.053 408.464 317.053 408.39C317.053 408.316 317.026 408.245 316.976 408.19L309.176 404.79L305.676 396.99C305.658 396.968 305.635 396.951 305.609 396.94C305.583 396.928 305.555 396.922 305.526 396.922C305.498 396.922 305.47 396.928 305.444 396.94C305.418 396.951 305.395 396.968 305.376 396.99L301.876 404.69L294.076 408.19C294.027 408.245 294 408.316 294 408.39C294 408.464 294.027 408.535 294.076 408.59L301.876 411.99L305.376 419.69C305.51 419.89 305.61 419.89 305.676 419.69L309.176 411.99Z" fill="#628BF7"/>
<path d="M367.376 388.89C352.476 382.09 335.476 387.39 329.476 400.59C326.176 407.79 326.876 415.99 330.676 422.99L332.576 427.19C332.995 428.069 333.224 429.026 333.246 429.999C333.269 430.973 333.085 431.94 332.707 432.837C332.33 433.734 331.766 434.541 331.054 435.205C330.342 435.869 329.498 436.375 328.576 436.69C328.376 436.748 328.192 436.85 328.036 436.988C327.88 437.126 327.757 437.298 327.676 437.49C327.58 437.726 327.542 437.982 327.565 438.236C327.588 438.491 327.672 438.736 327.809 438.951C327.946 439.166 328.132 439.346 328.353 439.474C328.573 439.603 328.822 439.677 329.076 439.69H358.576C369.276 439.89 379.076 434.49 383.376 425.09C389.376 411.89 382.276 395.69 367.376 388.89Z" fill="#F2DB96"/>
<path d="M369.676 363.09L376.276 369.19L390.176 374.49C382.576 374.49 370.276 380.29 363.876 383.59C363.347 383.864 362.762 384.014 362.166 384.027C361.57 384.04 360.979 383.916 360.438 383.665C359.897 383.414 359.421 383.042 359.046 382.579C358.671 382.115 358.408 381.571 358.276 380.99C355.376 367.79 357.476 363.89 366.376 362.19C366.958 362.054 367.564 362.066 368.14 362.223C368.716 362.38 369.244 362.678 369.676 363.09Z" fill="#4CCCB5"/>
<path d="M380.676 392.89C389.876 385.89 402.076 389.69 404.776 394.19C397.576 378.49 385.576 374.19 380.676 392.89Z" fill="#2C9DA3"/>
<path d="M327.676 413.89C328.08 417.088 329.099 420.178 330.676 422.99L332.576 427.19C332.995 428.068 333.224 429.026 333.246 429.999C333.269 430.973 333.085 431.94 332.707 432.837C332.33 433.734 331.766 434.541 331.054 435.205C330.342 435.869 329.498 436.375 328.576 436.69C328.376 436.748 328.192 436.85 328.036 436.988C327.88 437.126 327.757 437.298 327.676 437.49C327.58 437.726 327.542 437.982 327.565 438.236C327.588 438.49 327.672 438.735 327.809 438.951C327.946 439.166 328.132 439.346 328.353 439.474C328.573 439.603 328.822 439.677 329.076 439.69H358.576C369.276 439.89 379.076 434.49 383.376 425.09C387.676 415.69 385.176 404.29 377.676 396.29C370.676 417.29 349.176 428.09 327.676 413.89Z" fill="#EEBD79"/>
<path d="M338.976 408.39C340.191 408.39 341.176 407.405 341.176 406.19C341.176 404.975 340.191 403.99 338.976 403.99C337.761 403.99 336.776 404.975 336.776 406.19C336.776 407.405 337.761 408.39 338.976 408.39Z" fill="#EEBD79"/>
<path d="M361.076 408.49C361.905 408.49 362.576 407.818 362.576 406.99C362.576 406.161 361.905 405.49 361.076 405.49C360.248 405.49 359.576 406.161 359.576 406.99C359.576 407.818 360.248 408.49 361.076 408.49Z" fill="#EEBD79"/>
<path d="M356.476 399.29C358.133 399.29 359.476 397.947 359.476 396.29C359.476 394.633 358.133 393.29 356.476 393.29C354.82 393.29 353.476 394.633 353.476 396.29C353.476 397.947 354.82 399.29 356.476 399.29Z" fill="#EEBD79"/>
<path d="M368.376 427.19C369.591 427.19 370.576 426.205 370.576 424.99C370.576 423.775 369.591 422.79 368.376 422.79C367.161 422.79 366.176 423.775 366.176 424.99C366.176 426.205 367.161 427.19 368.376 427.19Z" fill="#E0AA5E"/>
<path d="M350.276 428.29C350.884 428.29 351.376 427.797 351.376 427.19C351.376 426.582 350.884 426.09 350.276 426.09C349.669 426.09 349.176 426.582 349.176 427.19C349.176 427.797 349.669 428.29 350.276 428.29Z" fill="#E0AA5E"/>
<mask id="mask5" mask-type="alpha" maskUnits="userSpaceOnUse" x="241" y="332" width="28" height="28">
<circle cx="255" cy="346" r="14" fill="#C4C4C4"/>
</mask>
<g mask="url(#mask5)">
<circle cx="255" cy="346" r="14" fill="#FFB869"/>
<path d="M247.816 350.572C249.449 356.254 256.023 360.19 261.296 356.477C266.569 352.763 261.333 345.15 261.333 345.15C261.333 345.15 264.192 337.946 257.025 336.238C249.858 334.529 248.075 337.649 247.816 350.572Z" fill="#4D7AE8"/>
<path d="M258.436 346.413C257.636 346.413 256.988 345.548 256.988 344.482C256.988 343.415 257.636 342.551 258.436 342.551C259.236 342.551 259.885 343.415 259.885 344.482C259.885 345.548 259.236 346.413 258.436 346.413Z" fill="#DBE7FF"/>
<path d="M259.057 345.948C258.853 345.934 258.709 345.608 258.735 345.219C258.761 344.83 258.949 344.526 259.153 344.54C259.358 344.554 259.502 344.881 259.476 345.269C259.449 345.658 259.262 345.962 259.057 345.948Z" fill="#201E2F"/>
<path d="M260.107 340.88C260.011 340.591 259.827 340.34 259.58 340.163C259.333 339.985 259.038 339.889 258.733 339.889C258.429 339.889 258.133 339.985 257.886 340.163C257.64 340.34 257.455 340.591 257.359 340.88H260.107Z" fill="#201E2F"/>
<path d="M259.959 349.087C258.548 349.458 257.025 349.124 255.763 347.75C255.598 347.562 255.366 347.445 255.117 347.424C254.867 347.403 254.619 347.48 254.426 347.638C254.214 347.782 254.069 348.003 254.02 348.253C253.971 348.504 254.024 348.763 254.166 348.975C256.097 352.132 259.105 352.615 260.962 350.832C261.089 350.718 261.184 350.571 261.236 350.408C261.288 350.245 261.296 350.071 261.259 349.904C261.233 349.762 261.178 349.626 261.097 349.507C261.016 349.387 260.911 349.286 260.789 349.209C260.667 349.132 260.53 349.081 260.387 349.06C260.244 349.039 260.098 349.048 259.959 349.087Z" fill="#590942"/>
<path d="M258.882 349.235C259.246 349.238 259.609 349.188 259.959 349.087H260.293V350.015C260.293 350.015 259.736 350.424 257.656 350.201V349.681L254.017 348.455C254.019 348.302 254.056 348.152 254.127 348.016C254.198 347.881 254.301 347.764 254.426 347.676C254.426 347.666 254.43 347.656 254.437 347.649C254.443 347.642 254.453 347.638 254.463 347.638C254.615 347.534 254.798 347.482 254.983 347.49C255.02 347.453 255.094 347.49 255.131 347.49H255.465C255.503 347.527 255.54 347.527 255.54 347.564C255.54 347.601 255.614 347.564 255.614 347.601L255.763 347.713C255.982 347.965 256.232 348.189 256.505 348.381L257.025 348.715C257.267 348.864 257.53 348.977 257.805 349.05C258.152 349.169 258.515 349.232 258.882 349.235Z" fill="#DBE7FF"/>
<path d="M254.426 347.638C254.426 347.629 254.43 347.619 254.437 347.612C254.443 347.605 254.453 347.601 254.463 347.601C254.615 347.497 254.798 347.445 254.983 347.453C255.02 347.416 255.094 347.453 255.131 347.453H255.465C255.503 347.49 255.54 347.49 255.54 347.527C255.54 347.564 255.614 347.527 255.614 347.564L255.763 347.676C255.879 347.83 256.017 347.967 256.171 348.084L255.131 348.715L254.017 348.344C254.03 348.204 254.073 348.068 254.143 347.946C254.214 347.824 254.31 347.719 254.426 347.638Z" fill="#B5CDFF"/>
<path d="M249.338 338.837C250.675 335.866 253.014 335.272 257.025 336.238C257.833 336.418 258.609 336.719 259.328 337.129C259.55 338.317 257.731 338.689 254.351 337.612C255.465 339.617 253.163 343.182 249.338 338.837Z" fill="#201E2F"/>
<path d="M254.017 336.126L254.203 333.675C254.219 333.452 254.188 333.227 254.11 333.017C254.031 332.806 253.909 332.615 253.75 332.457C253.592 332.298 253.401 332.176 253.19 332.098C252.98 332.019 252.755 331.988 252.532 332.004C252.28 332.019 252.035 332.094 251.818 332.224C251.602 332.353 251.42 332.534 251.289 332.749C251.157 332.965 251.08 333.209 251.064 333.461C251.047 333.713 251.092 333.965 251.195 334.195L252.309 336.721L254.017 336.126Z" fill="#201E2F"/>
<path d="M244.362 349.235L245.476 349.644L247.815 348.121V350.015L249.747 351.538C250.152 351.871 250.486 352.283 250.729 352.749C250.971 353.215 251.117 353.725 251.158 354.249L251.232 355.771C254.054 358.111 257.916 358.853 261.296 356.477C261.845 356.11 262.334 355.659 262.744 355.14L263.895 355.548C263.895 355.548 261.556 365.389 257.656 367.172C253.757 368.954 251.046 367.172 251.046 367.172C246.961 353.283 248.15 350.684 238.049 354.694L237.566 351.872L244.362 349.235Z" fill="#EF6767"/>
<path d="M252.457 344.816L245.105 337.946L244.436 338.8L250.118 349.384L252.457 344.816Z" fill="#4D7AE8"/>
<path d="M249.784 343.256L246.887 341.214L249.115 345.225L248.707 343.665L249.784 343.256Z" fill="#3366E0"/>
</g>
<defs>
<linearGradient id="paint0_linear" x1="245.183" y1="128.601" x2="249.776" y2="126.859" gradientUnits="userSpaceOnUse">
<stop stop-color="#61C7C7"/>
<stop offset="1" stop-color="#54B9C7"/>
</linearGradient>
<linearGradient id="paint1_linear" x1="251.009" y1="241.786" x2="252.249" y2="256.312" gradientUnits="userSpaceOnUse">
<stop stop-color="#FFC285"/>
<stop offset="1" stop-color="#DB8D6B"/>
</linearGradient>
<linearGradient id="paint2_linear" x1="238.786" y1="256.656" x2="264.969" y2="243.831" gradientUnits="userSpaceOnUse">
<stop stop-color="#D67569"/>
<stop offset="1" stop-color="#E39E7F"/>
</linearGradient>
<linearGradient id="paint3_linear" x1="200.75" y1="384.614" x2="200.75" y2="417.934" gradientUnits="userSpaceOnUse">
<stop stop-color="#ED9653"/>
<stop offset="1" stop-color="#F0A85E"/>
</linearGradient>
</defs>
</svg>
